  0
SECTION
  2
HEADER
  9
$INSBASE
 10
0.0
 20
0.0
 30
0.0
  9
$EXTMIN
 10
-553.500000
 20
-353.500000
 30
0.000000
  9
$EXTMAX
 10
553.500000
 20
353.500000
 30
0.000000
  9
$LIMMIN
 10
0.000000
 20
0.000000
  9
$LIMMAX
 10
0.000000
 20
0.000000
  9
$LTSCALE
 40
0.000000
  0
ENDSEC
  0
SECTION
  2
TABLES
  0
TABLE
  2
LTYPE
 70
    25
  0
LTYPE
  2
CONTINUOUS
 70
    64
  3
Solid line
 72
    65
 73
     0
 40
0.00
  0
LTYPE
  2
BORDER
 70
    64
  3
__ __ . __ __ . __ __ . __ __ . __ __ . __ __ .
 72
    65
 73
     6
 40
0.25
 49
0.50
 49
-0.25
 49
0.50
 49
-0.25
 49
0.00
 49
-0.25
  0
LTYPE
  2
BORDER2
 70
    64
  3
__.__.__.__.__.__.__.__.__.__.__.__.__.__.__.__
 72
    65
 73
     6
 40
0.13
 49
0.25
 49
-0.13
 49
0.25
 49
-0.13
 49
0.00
 49
-0.13
  0
LTYPE
  2
BORDERX2
 70
    64
  3
____  ____  .  ____  ____  .  ____  ____  .  __
 72
    65
 73
     6
 40
0.50
 49
1.00
 49
-0.50
 49
1.00
 49
-0.50
 49
0.00
 49
-0.50
  0
LTYPE
  2
CENTER
 70
    64
  3
____ _ ____ _ ____ _ ____ _ ____ _ ____ _ ____ 
 72
    65
 73
     4
 40
1.00
 49
1.25
 49
-0.25
 49
0.25
 49
-0.25
  0
LTYPE
  2
CENTER2
 70
    64
  3
___ _ ___ _ ___ _ ___ _ ___ _ ___ _ ___ _ ___ _
 72
    65
 73
     4
 40
0.63
 49
0.75
 49
-0.13
 49
0.13
 49
-0.13
  0
LTYPE
  2
CENTERX2
 70
    64
  3
________  __  ________  __  ________  __  _____
 72
    65
 73
     4
 40
2.00
 49
2.50
 49
-0.50
 49
0.50
 49
-0.50
  0
LTYPE
  2
DASHDOT
 70
    64
  3
__ . __ . __ . __ . __ . __ . __ . __ . __ . __
 72
    65
 73
     4
 40
0.00
 49
0.50
 49
-0.25
 49
0.00
 49
-0.25
  0
LTYPE
  2
DASHDOT2
 70
    64
  3
_._._._._._._._._._._._._._._._._._._._._._._._
 72
    65
 73
     4
 40
0.00
 49
0.25
 49
-0.13
 49
0.00
 49
-0.13
  0
LTYPE
  2
DASHDOTX2
 70
    64
  3
____  .  ____  .  ____  .  ____  .  ____  .  __
 72
    65
 73
     4
 40
0.00
 49
1.00
 49
-0.50
 49
0.00
 49
-0.50
  0
LTYPE
  2
DASHED
 70
    64
  3
__ __ __ __ __ __ __ __ __ __ __ __ __ __ __ __
 72
    65
 73
     2
 40
0.25
 49
0.50
 49
-0.25
  0
LTYPE
  2
DASHED2
 70
    64
  3
_ _ _ _ _ _ _ _ _ _ _ _ _ _ _ _ _ _ _ _ _ _ _ _
 72
    65
 73
     2
 40
0.13
 49
0.25
 49
-0.13
  0
LTYPE
  2
DASHEDX2
 70
    64
  3
____  ____  ____  ____  ____  ____  ____  ____ 
 72
    65
 73
     2
 40
0.50
 49
1.00
 49
-0.50
  0
LTYPE
  2
DIVIDE
 70
    64
  3
____ . . ____ . . ____ . . ____ . . ____ . . __
 72
    65
 73
     6
 40
-0.25
 49
0.50
 49
-0.25
 49
0.00
 49
-0.25
 49
0.00
 49
-0.25
  0
LTYPE
  2
DIVIDE2
 70
    64
  3
__..__..__..__..__..__..__..__..__..__..__..__.
 72
    65
 73
     6
 40
-0.13
 49
0.25
 49
-0.13
 49
0.00
 49
-0.13
 49
0.00
 49
-0.13
  0
LTYPE
  2
DIVIDEX2
 70
    64
  3
________  .  .  ________  .  .  ________  .  . 
 72
    65
 73
     6
 40
-0.50
 49
1.00
 49
-0.50
 49
0.00
 49
-0.50
 49
0.00
 49
-0.50
  0
LTYPE
  2
DOT
 70
    64
  3
. . . . . . . . . . . . . . . . . . . . . . . .
 72
    65
 73
     2
 40
-0.25
 49
0.00
 49
-0.25
  0
LTYPE
  2
DOT2
 70
    64
  3
...............................................
 72
    65
 73
     2
 40
-0.13
 49
0.00
 49
-0.13
  0
LTYPE
  2
DOTX2
 70
    64
  3
.  .  .  .  .  .  .  .  .  .  .  .  .  .  .  . 
 72
    65
 73
     2
 40
-0.50
 49
0.00
 49
-0.50
  0
LTYPE
  2
HIDDEN
 70
    64
  3
__ __ __ __ __ __ __ __ __ __ __ __ __ __ __ __
 72
    65
 73
     2
 40
0.13
 49
0.25
 49
-0.13
  0
LTYPE
  2
HIDDEN2
 70
    64
  3
_ _ _ _ _ _ _ _ _ _ _ _ _ _ _ _ _ _ _ _ _ _ _ _
 72
    65
 73
     2
 40
0.06
 49
0.13
 49
-0.06
  0
LTYPE
  2
HIDDENX2
 70
    64
  3
____ ____ ____ ____ ____ ____ ____ ____ ____ __
 72
    65
 73
     2
 40
0.25
 49
0.50
 49
-0.25
  0
LTYPE
  2
PHANTOM
 70
    64
  3
______  __  __  ______  __  __  ______  __  __ 
 72
    65
 73
     6
 40
1.00
 49
1.25
 49
-0.25
 49
0.25
 49
-0.25
 49
0.25
 49
-0.25
  0
LTYPE
  2
PHANTOM2
 70
    64
  3
___ _ _ ___ _ _ ___ _ _ ___ _ _ ___ _ _ ___ _ _
 72
    65
 73
     6
 40
0.50
 49
0.63
 49
-0.13
 49
0.13
 49
-0.13
 49
0.13
 49
-0.13
  0
LTYPE
  2
PHANTOMX2
 70
    64
  3
____________    ____    ____    ____________   
 72
    65
 73
     6
 40
2.00
 49
2.50
 49
-0.50
 49
0.50
 49
-0.50
 49
0.50
 49
-0.50
  0
ENDTAB
  0
TABLE
  2
LAYER
 70
     1
  0
LAYER
  2
‰şŠG
 70
     0
 62
     7
  6
CONTINUOUS
  0
ENDTAB
  0
TABLE
  2
STYLE
 70
     1
  0
STYLE
  2
STANDARD
 70
     0
 40
0.0
 41
1.0
 50
0.0
 71
     0
 42
0.2
  3
txt.shx
  4
bigfont.shx
  0
ENDTAB
  0
ENDSEC
  0
SECTION
  2
BLOCKS
  0
ENDSEC
  0
SECTION
  2
ENTITIES
  0
LINE
  8
‰şŠG
  6
CONTINUOUS
 62
7
 10
-24.881788
 20
-54.912948
 30
0.000000
 11
-45.467662
 21
-48.799530
 31
0.000000
  0
LINE
  8
‰şŠG
  6
CONTINUOUS
 62
7
 10
24.532338
 20
-54.912948
 30
0.000000
 11
-24.881788
 21
-54.912948
 31
0.000000
  0
LINE
  8
‰şŠG
  6
CONTINUOUS
 62
7
 10
44.532338
 20
-74.912948
 30
0.000000
 11
24.532338
 21
-54.912948
 31
0.000000
  0
LINE
  8
‰şŠG
  6
CONTINUOUS
 62
7
 10
44.532338
 20
-97.389251
 30
0.000000
 11
44.532338
 21
-74.912948
 31
0.000000
  0
LINE
  8
‰şŠG
  6
CONTINUOUS
 62
7
 10
70.000000
 20
-138.000000
 30
0.000000
 11
44.532338
 21
-97.389251
 31
0.000000
  0
LINE
  8
‰şŠG
  6
CONTINUOUS
 62
7
 10
84.166800
 20
-162.044802
 30
0.000000
 11
76.500000
 21
-149.000000
 31
0.000000
  0
LINE
  8
‰şŠG
  6
CONTINUOUS
 62
7
 10
44.532338
 20
-204.321011
 30
0.000000
 11
84.166800
 21
-162.044802
 31
0.000000
  0
LINE
  8
‰şŠG
  6
CONTINUOUS
 62
7
 10
44.532338
 20
-214.912948
 30
0.000000
 11
44.532338
 21
-204.321011
 31
0.000000
  0
LINE
  8
‰şŠG
  6
CONTINUOUS
 62
7
 10
24.532338
 20
-234.912948
 30
0.000000
 11
44.532338
 21
-214.912948
 31
0.000000
  0
LINE
  8
‰şŠG
  6
CONTINUOUS
 62
7
 10
14.000000
 20
-234.500000
 30
0.000000
 11
24.532338
 21
-234.912948
 31
0.000000
  0
LINE
  8
‰şŠG
  6
CONTINUOUS
 62
7
 10
-115.467662
 20
-234.912948
 30
0.000000
 11
5.500000
 21
-234.500000
 31
0.000000
  0
LINE
  8
‰şŠG
  6
CONTINUOUS
 62
7
 10
-135.467662
 20
-214.912948
 30
0.000000
 11
-115.467662
 21
-234.912948
 31
0.000000
  0
LINE
  8
‰şŠG
  6
CONTINUOUS
 62
7
 10
-135.467662
 20
-204.321011
 30
0.000000
 11
-135.467662
 21
-214.912948
 31
0.000000
  0
LINE
  8
‰şŠG
  6
CONTINUOUS
 62
7
 10
-175.102123
 20
-162.044802
 30
0.000000
 11
-135.467662
 21
-204.321011
 31
0.000000
  0
LINE
  8
‰şŠG
  6
CONTINUOUS
 62
7
 10
-152.500000
 20
-125.500000
 30
0.000000
 11
-175.102123
 21
-162.044802
 31
0.000000
  0
LINE
  8
‰şŠG
  6
CONTINUOUS
 62
7
 10
-135.467662
 20
-97.389251
 30
0.000000
 11
-145.500000
 21
-114.500000
 31
0.000000
  0
LINE
  8
‰şŠG
  6
CONTINUOUS
 62
7
 10
-135.467662
 20
-74.912948
 30
0.000000
 11
-135.467662
 21
-97.389251
 31
0.000000
  0
LINE
  8
‰şŠG
  6
CONTINUOUS
 62
7
 10
-115.467662
 20
-54.912948
 30
0.000000
 11
-135.467662
 21
-74.912948
 31
0.000000
  0
LINE
  8
‰şŠG
  6
CONTINUOUS
 62
7
 10
-66.053535
 20
-54.912948
 30
0.000000
 11
-115.467662
 21
-54.912948
 31
0.000000
  0
LINE
  8
‰şŠG
  6
CONTINUOUS
 62
7
 10
-45.467662
 20
-48.799530
 30
0.000000
 11
-66.053535
 21
-54.912948
 31
0.000000
  0
LINE
  8
‰şŠG
  6
CONTINUOUS
 62
7
 10
8.004319
 20
-64.679185
 30
0.000000
 11
34.060010
 21
-80.305781
 31
0.000000
  0
LINE
  8
‰şŠG
  6
CONTINUOUS
 62
7
 10
34.060010
 20
-80.305781
 30
0.000000
 11
44.532338
 21
-97.389251
 31
0.000000
  0
LINE
  8
‰şŠG
  6
CONTINUOUS
 62
7
 10
-98.939642
 20
-64.679185
 30
0.000000
 11
-124.995333
 21
-80.305781
 31
0.000000
  0
LINE
  8
‰şŠG
  6
CONTINUOUS
 62
7
 10
-124.995333
 20
-80.305781
 30
0.000000
 11
-135.467662
 21
-97.389251
 31
0.000000
  0
LINE
  8
‰şŠG
  6
CONTINUOUS
 62
7
 10
20.000000
 20
-225.000000
 30
0.000000
 11
24.439437
 21
-225.753161
 31
0.000000
  0
LINE
  8
‰şŠG
  6
CONTINUOUS
 62
7
 10
-115.374760
 20
-225.753161
 30
0.000000
 11
10.500000
 21
-225.500000
 31
0.000000
  0
LINE
  8
‰şŠG
  6
CONTINUOUS
 62
7
 10
-21.651730
 20
-72.529536
 30
0.000000
 11
-27.727258
 21
-80.626655
 31
0.000000
  0
LINE
  8
‰şŠG
  6
CONTINUOUS
 62
7
 10
-16.500000
 20
-212.500000
 30
0.000000
 11
-5.474209
 21
-209.530985
 31
0.000000
  0
LINE
  8
‰şŠG
  6
CONTINUOUS
 62
7
 10
-36.032070
 20
-216.268834
 30
0.000000
 11
-21.500000
 21
-213.500000
 31
0.000000
  0
LINE
  8
‰şŠG
  6
CONTINUOUS
 62
7
 10
-5.474209
 20
-209.530985
 30
0.000000
 11
16.096189
 21
-172.248676
 31
0.000000
  0
LINE
  8
‰şŠG
  6
CONTINUOUS
 62
7
 10
16.096189
 20
-172.248676
 30
0.000000
 11
17.444352
 21
-119.244719
 31
0.000000
  0
LINE
  8
‰şŠG
  6
CONTINUOUS
 62
7
 10
17.444352
 20
-119.244719
 30
0.000000
 11
14.748025
 21
-90.047715
 31
0.000000
  0
LINE
  8
‰şŠG
  6
CONTINUOUS
 62
7
 10
14.748025
 20
-90.047715
 30
0.000000
 11
-21.651730
 21
-72.529536
 31
0.000000
  0
LINE
  8
‰şŠG
  6
CONTINUOUS
 62
7
 10
-77.094771
 20
-71.470650
 30
0.000000
 11
-95.968841
 21
-96.624944
 31
0.000000
  0
LINE
  8
‰şŠG
  6
CONTINUOUS
 62
7
 10
-95.968841
 20
-96.624944
 30
0.000000
 11
-101.500000
 21
-152.500000
 31
0.000000
  0
LINE
  8
‰şŠG
  6
CONTINUOUS
 62
7
 10
-99.750236
 20
-164.846432
 30
0.000000
 11
-98.215707
 21
-180.622664
 31
0.000000
  0
LINE
  8
‰şŠG
  6
CONTINUOUS
 62
7
 10
-98.215707
 20
-180.622664
 30
0.000000
 11
-91.475110
 21
-215.209947
 31
0.000000
  0
LINE
  8
‰şŠG
  6
CONTINUOUS
 62
7
 10
-91.475110
 20
-215.209947
 30
0.000000
 11
-61.745064
 21
-208.654627
 31
0.000000
  0
LINE
  8
‰şŠG
  6
CONTINUOUS
 62
7
 10
-54.068588
 20
-82.552504
 30
0.000000
 11
-77.094771
 21
-71.470650
 31
0.000000
  0
LINE
  8
‰şŠG
  6
CONTINUOUS
 62
7
 10
-46.018386
 20
-71.823650
 30
0.000000
 11
-64.892456
 21
-96.977944
 31
0.000000
  0
LINE
  8
‰şŠG
  6
CONTINUOUS
 62
7
 10
-64.892456
 20
-96.977944
 30
0.000000
 11
-70.285111
 21
-148.634331
 31
0.000000
  0
LINE
  8
‰şŠG
  6
CONTINUOUS
 62
7
 10
-70.285111
 20
-148.634331
 30
0.000000
 11
-67.500000
 21
-176.000000
 31
0.000000
  0
LINE
  8
‰şŠG
  6
CONTINUOUS
 62
7
 10
-66.500000
 20
-184.000000
 30
0.000000
 11
-60.398725
 21
-215.562947
 31
0.000000
  0
LINE
  8
‰şŠG
  6
CONTINUOUS
 62
7
 10
-60.398725
 20
-215.562947
 30
0.000000
 11
-29.840865
 21
-208.825098
 31
0.000000
  0
LINE
  8
‰şŠG
  6
CONTINUOUS
 62
7
 10
-27.000000
 20
-205.000000
 30
0.000000
 11
-8.270467
 21
-171.542790
 31
0.000000
  0
LINE
  8
‰şŠG
  6
CONTINUOUS
 62
7
 10
-8.270467
 20
-171.542790
 30
0.000000
 11
-6.922303
 21
-118.538833
 31
0.000000
  0
LINE
  8
‰şŠG
  6
CONTINUOUS
 62
7
 10
-6.922303
 20
-118.538833
 30
0.000000
 11
-9.618630
 21
-89.341829
 31
0.000000
  0
LINE
  8
‰şŠG
  6
CONTINUOUS
 62
7
 10
-9.618630
 20
-89.341829
 30
0.000000
 11
-46.018386
 21
-71.823650
 31
0.000000
  0
LINE
  8
‰şŠG
  6
CONTINUOUS
 62
7
 10
-37.167900
 20
-210.440672
 30
0.000000
 11
-36.032070
 21
-216.268834
 31
0.000000
  0
LINE
  8
‰şŠG
  6
CONTINUOUS
 62
7
 10
44.532338
 20
-204.321011
 30
0.000000
 11
24.439437
 21
-225.753161
 31
0.000000
  0
LINE
  8
‰şŠG
  6
CONTINUOUS
 62
7
 10
-135.467662
 20
-204.321011
 30
0.000000
 11
-115.374760
 21
-225.753161
 31
0.000000
  0
LINE
  8
‰şŠG
  6
CONTINUOUS
 62
7
 10
-66.053535
 20
-54.912948
 30
0.000000
 11
-98.939642
 21
-64.679185
 31
0.000000
  0
LINE
  8
‰şŠG
  6
CONTINUOUS
 62
7
 10
-24.881788
 20
-54.912948
 30
0.000000
 11
8.004319
 21
-64.679185
 31
0.000000
  0
LINE
  8
‰şŠG
  6
CONTINUOUS
 62
7
 10
-258.000000
 20
-99.500000
 30
0.000000
 11
-252.800857
 21
-100.784669
 31
0.000000
  0
LINE
  8
‰şŠG
  6
CONTINUOUS
 62
7
 10
-294.956383
 20
-73.207656
 30
0.000000
 11
-285.500000
 21
-82.500000
 31
0.000000
  0
LINE
  8
‰şŠG
  6
CONTINUOUS
 62
7
 10
-298.000000
 20
-59.000000
 30
0.000000
 11
-294.956383
 21
-73.207656
 31
0.000000
  0
LINE
  8
‰şŠG
  6
CONTINUOUS
 62
7
 10
-298.500000
 20
-28.500000
 30
0.000000
 11
-302.994859
 21
-43.207656
 31
0.000000
  0
LINE
  8
‰şŠG
  6
CONTINUOUS
 62
7
 10
-272.994859
 20
8.753869
 30
0.000000
 11
-294.956383
 21
-13.207656
 31
0.000000
  0
LINE
  8
‰şŠG
  6
CONTINUOUS
 62
7
 10
-242.994859
 20
16.792344
 30
0.000000
 11
-255.000000
 21
13.000000
 31
0.000000
  0
LINE
  8
‰şŠG
  6
CONTINUOUS
 62
7
 10
-212.994859
 20
8.753869
 30
0.000000
 11
-242.994859
 21
16.792344
 31
0.000000
  0
LINE
  8
‰şŠG
  6
CONTINUOUS
 62
7
 10
-191.033335
 20
-13.207656
 30
0.000000
 11
-212.994859
 21
8.753869
 31
0.000000
  0
LINE
  8
‰şŠG
  6
CONTINUOUS
 62
7
 10
-182.994859
 20
-43.207656
 30
0.000000
 11
-186.000000
 21
-30.500000
 31
0.000000
  0
LINE
  8
‰şŠG
  6
CONTINUOUS
 62
7
 10
-191.033335
 20
-73.207656
 30
0.000000
 11
-182.994859
 21
-43.207656
 31
0.000000
  0
LINE
  8
‰şŠG
  6
CONTINUOUS
 62
7
 10
-208.022859
 20
-90.344456
 30
0.000000
 11
-202.000000
 21
-84.500000
 31
0.000000
  0
LINE
  8
‰şŠG
  6
CONTINUOUS
 62
7
 10
-236.500000
 20
-102.500000
 30
0.000000
 11
-221.500000
 21
-98.000000
 31
0.000000
  0
LINE
  8
‰şŠG
  6
CONTINUOUS
 62
7
 10
188.108286
 20
8.753869
 30
0.000000
 11
158.108286
 21
16.792344
 31
0.000000
  0
LINE
  8
‰şŠG
  6
CONTINUOUS
 62
7
 10
210.069810
 20
-13.207656
 30
0.000000
 11
188.108286
 21
8.753869
 31
0.000000
  0
LINE
  8
‰şŠG
  6
CONTINUOUS
 62
7
 10
218.108286
 20
-43.207656
 30
0.000000
 11
214.500000
 21
-30.000000
 31
0.000000
  0
LINE
  8
‰şŠG
  6
CONTINUOUS
 62
7
 10
210.069810
 20
-73.207656
 30
0.000000
 11
218.108286
 21
-43.207656
 31
0.000000
  0
LINE
  8
‰şŠG
  6
CONTINUOUS
 62
7
 10
192.500000
 20
-91.500000
 30
0.000000
 11
199.500000
 21
-84.500000
 31
0.000000
  0
LINE
  8
‰şŠG
  6
CONTINUOUS
 62
7
 10
163.500000
 20
-102.000000
 30
0.000000
 11
180.000000
 21
-97.500000
 31
0.000000
  0
LINE
  8
‰şŠG
  6
CONTINUOUS
 62
7
 10
142.500000
 20
-100.000000
 30
0.000000
 11
149.000000
 21
-101.500000
 31
0.000000
  0
LINE
  8
‰şŠG
  6
CONTINUOUS
 62
7
 10
106.146762
 20
-73.207656
 30
0.000000
 11
115.000000
 21
-82.000000
 31
0.000000
  0
LINE
  8
‰şŠG
  6
CONTINUOUS
 62
7
 10
103.000000
 20
-59.000000
 30
0.000000
 11
106.146762
 21
-73.207656
 31
0.000000
  0
LINE
  8
‰şŠG
  6
CONTINUOUS
 62
7
 10
102.500000
 20
-27.500000
 30
0.000000
 11
98.108286
 21
-43.207656
 31
0.000000
  0
LINE
  8
‰şŠG
  6
CONTINUOUS
 62
7
 10
128.108286
 20
8.753869
 30
0.000000
 11
106.146762
 21
-13.207656
 31
0.000000
  0
LINE
  8
‰şŠG
  6
CONTINUOUS
 62
7
 10
158.108286
 20
16.792344
 30
0.000000
 11
146.000000
 21
13.000000
 31
0.000000
  0
LINE
  8
‰şŠG
  6
CONTINUOUS
 62
7
 10
-278.806583
 20
66.410966
 30
0.000000
 11
-388.513714
 21
353.500000
 31
0.000000
  0
LINE
  8
‰şŠG
  6
CONTINUOUS
 62
7
 10
-236.362734
 20
-30.319221
 30
0.000000
 11
-278.806583
 21
66.410966
 31
0.000000
  0
LINE
  8
‰şŠG
  6
CONTINUOUS
 62
7
 10
-141.758887
 20
8.034944
 30
0.000000
 11
-236.362734
 21
-30.319221
 31
0.000000
  0
LINE
  8
‰şŠG
  6
CONTINUOUS
 62
7
 10
-40.500000
 20
44.000000
 30
0.000000
 11
-141.758887
 21
8.034944
 31
0.000000
  0
LINE
  8
‰şŠG
  6
CONTINUOUS
 62
7
 10
-10.653237
 20
53.935188
 30
0.000000
 11
-23.160677
 21
49.771796
 31
0.000000
  0
LINE
  8
‰şŠG
  6
CONTINUOUS
 62
7
 10
99.500000
 20
87.500000
 30
0.000000
 11
-10.653237
 21
53.935188
 31
0.000000
  0
LINE
  8
‰şŠG
  6
CONTINUOUS
 62
7
 10
152.396854
 20
104.492163
 30
0.000000
 11
112.000000
 21
92.000000
 31
0.000000
  0
LINE
  8
‰şŠG
  6
CONTINUOUS
 62
7
 10
114.000000
 20
89.000000
 30
0.000000
 11
152.396854
 21
104.492163
 31
0.000000
  0
LINE
  8
‰şŠG
  6
CONTINUOUS
 62
7
 10
-9.322172
 20
41.296058
 30
0.000000
 11
100.000000
 21
84.000000
 31
0.000000
  0
LINE
  8
‰şŠG
  6
CONTINUOUS
 62
7
 10
-134.438253
 20
-5.934795
 30
0.000000
 11
-23.500000
 21
35.000000
 31
0.000000
  0
LINE
  8
‰şŠG
  6
CONTINUOUS
 62
7
 10
-224.195140
 20
-46.242794
 30
0.000000
 11
-134.438253
 21
-5.934795
 31
0.000000
  0
LINE
  8
‰şŠG
  6
CONTINUOUS
 62
7
 10
-116.688281
 20
-140.330123
 30
0.000000
 11
-224.195140
 21
-46.242794
 31
0.000000
  0
LINE
  8
‰şŠG
  6
CONTINUOUS
 62
7
 10
7.512665
 20
-230.803304
 30
0.000000
 11
-116.688281
 21
-140.330123
 31
0.000000
  0
LINE
  8
‰şŠG
  6
CONTINUOUS
 62
7
 10
-126.488506
 20
-148.404841
 30
0.000000
 11
7.512665
 21
-230.803304
 31
0.000000
  0
LINE
  8
‰şŠG
  6
CONTINUOUS
 62
7
 10
-220.166678
 20
-68.608060
 30
0.000000
 11
-126.488506
 21
-148.404841
 31
0.000000
  0
LINE
  8
‰şŠG
  6
CONTINUOUS
 62
7
 10
-198.340238
 20
-107.675517
 30
0.000000
 11
-220.166678
 21
-68.608060
 31
0.000000
  0
LINE
  8
‰şŠG
  6
CONTINUOUS
 62
7
 10
-180.320900
 20
-154.607214
 30
0.000000
 11
-198.340238
 21
-107.675517
 31
0.000000
  0
LINE
  8
‰şŠG
  6
CONTINUOUS
 62
7
 10
-213.567982
 20
-113.256583
 30
0.000000
 11
-180.320900
 21
-154.607214
 31
0.000000
  0
LINE
  8
‰şŠG
  6
CONTINUOUS
 62
7
 10
-236.733686
 20
-66.655619
 30
0.000000
 11
-213.567982
 21
-113.256583
 31
0.000000
  0
LINE
  8
‰şŠG
  6
CONTINUOUS
 62
7
 10
-237.621524
 20
-121.690790
 30
0.000000
 11
-236.733686
 21
-66.655619
 31
0.000000
  0
LINE
  8
‰şŠG
  6
CONTINUOUS
 62
7
 10
-245.049637
 20
-174.633617
 30
0.000000
 11
-237.621524
 21
-121.690790
 31
0.000000
  0
LINE
  8
‰şŠG
  6
CONTINUOUS
 62
7
 10
-252.800857
 20
-122.336457
 30
0.000000
 11
-245.049637
 21
-174.633617
 31
0.000000
  0
LINE
  8
‰şŠG
  6
CONTINUOUS
 62
7
 10
-252.800857
 20
-85.534757
 30
0.000000
 11
-252.800857
 21
-122.336457
 31
0.000000
  0
LINE
  8
‰şŠG
  6
CONTINUOUS
 62
7
 10
-326.372492
 20
-235.626575
 30
0.000000
 11
-252.800857
 21
-85.534757
 31
0.000000
  0
LINE
  8
‰şŠG
  6
CONTINUOUS
 62
7
 10
-393.413604
 20
-353.500000
 30
0.000000
 11
-326.372492
 21
-235.626575
 31
0.000000
  0
LINE
  8
‰şŠG
  6
CONTINUOUS
 62
7
 10
-393.413604
 20
-353.500000
 30
0.000000
 11
-393.413604
 21
-353.500000
 31
0.000000
  0
LINE
  8
‰şŠG
  6
CONTINUOUS
 62
7
 10
-393.413604
 20
-353.500000
 30
0.000000
 11
-393.413604
 21
-353.500000
 31
0.000000
  0
LINE
  8
‰şŠG
  6
CONTINUOUS
 62
7
 10
-338.938551
 20
-230.568805
 30
0.000000
 11
-393.413604
 21
-353.500000
 31
0.000000
  0
LINE
  8
‰şŠG
  6
CONTINUOUS
 62
7
 10
-274.165583
 20
-89.868062
 30
0.000000
 11
-338.938551
 21
-230.568805
 31
0.000000
  0
LINE
  8
‰şŠG
  6
CONTINUOUS
 62
7
 10
-340.507670
 20
-169.929189
 30
0.000000
 11
-274.165583
 21
-89.868062
 31
0.000000
  0
LINE
  8
‰şŠG
  6
CONTINUOUS
 62
7
 10
-436.213307
 20
-300.095347
 30
0.000000
 11
-340.507670
 21
-169.929189
 31
0.000000
  0
LINE
  8
‰şŠG
  6
CONTINUOUS
 62
7
 10
-353.059073
 20
-163.656012
 30
0.000000
 11
-436.213307
 21
-300.095347
 31
0.000000
  0
LINE
  8
‰şŠG
  6
CONTINUOUS
 62
7
 10
-264.674958
 20
-55.968361
 30
0.000000
 11
-353.059073
 21
-163.656012
 31
0.000000
  0
LINE
  8
‰şŠG
  6
CONTINUOUS
 62
7
 10
-319.587926
 20
-60.448307
 30
0.000000
 11
-264.674958
 21
-55.968361
 31
0.000000
  0
LINE
  8
‰şŠG
  6
CONTINUOUS
 62
7
 10
-370.840133
 20
-60.971034
 30
0.000000
 11
-319.587926
 21
-60.448307
 31
0.000000
  0
LINE
  8
‰şŠG
  6
CONTINUOUS
 62
7
 10
-319.064738
 20
-44.242864
 30
0.000000
 11
-370.840133
 21
-60.971034
 31
0.000000
  0
LINE
  8
‰şŠG
  6
CONTINUOUS
 62
7
 10
-273.042411
 20
-40.060822
 30
0.000000
 11
-319.064738
 21
-44.242864
 31
0.000000
  0
LINE
  8
‰şŠG
  6
CONTINUOUS
 62
7
 10
-438.827914
 20
42.534574
 30
0.000000
 11
-273.042411
 21
-40.060822
 31
0.000000
  0
LINE
  8
‰şŠG
  6
CONTINUOUS
 62
7
 10
-553.500000
 20
106.310779
 30
0.000000
 11
-438.827914
 21
42.534574
 31
0.000000
  0
LINE
  8
‰şŠG
  6
CONTINUOUS
 62
7
 10
-432.029136
 20
53.512521
 30
0.000000
 11
-553.500000
 21
106.310779
 31
0.000000
  0
LINE
  8
‰şŠG
  6
CONTINUOUS
 62
7
 10
-257.300362
 20
-30.658227
 30
0.000000
 11
-432.029136
 21
53.512521
 31
0.000000
  0
LINE
  8
‰şŠG
  6
CONTINUOUS
 62
7
 10
-338.526840
 20
186.597617
 30
0.000000
 11
-257.300362
 21
-30.658227
 31
0.000000
  0
LINE
  8
‰şŠG
  6
CONTINUOUS
 62
7
 10
-388.513714
 20
353.500000
 30
0.000000
 11
-338.526840
 21
186.597617
 31
0.000000
  0
POLYLINE
  8
‰şŠG
  6
CONTINUOUS
 62
7
 10
0.0
 20
0.0
 30
0.0
 66
     1
  0
VERTEX
  8
‰şŠG
 10
12.589431
 20
353.500000
 30
0.000000
  0
VERTEX
  8
‰şŠG
 10
62.576305
 20
186.597617
 30
0.000000
  0
VERTEX
  8
‰şŠG
 10
143.802783
 20
-30.658227
 30
0.000000
  0
VERTEX
  8
‰şŠG
 10
-30.925991
 20
53.512521
 30
0.000000
  0
VERTEX
  8
‰şŠG
 10
-152.396855
 20
106.310779
 30
0.000000
  0
VERTEX
  8
‰şŠG
 10
-37.724769
 20
42.534574
 30
0.000000
  0
VERTEX
  8
‰şŠG
 10
128.060734
 20
-40.060822
 30
0.000000
  0
VERTEX
  8
‰şŠG
 10
82.038407
 20
-44.242864
 30
0.000000
  0
VERTEX
  8
‰şŠG
 10
30.263012
 20
-60.971034
 30
0.000000
  0
VERTEX
  8
‰şŠG
 10
81.515219
 20
-60.448307
 30
0.000000
  0
VERTEX
  8
‰şŠG
 10
136.428187
 20
-55.968361
 30
0.000000
  0
VERTEX
  8
‰şŠG
 10
48.044073
 20
-163.656012
 30
0.000000
  0
VERTEX
  8
‰şŠG
 10
-35.110161
 20
-300.095347
 30
0.000000
  0
VERTEX
  8
‰şŠG
 10
60.595475
 20
-169.929189
 30
0.000000
  0
VERTEX
  8
‰şŠG
 10
126.937562
 20
-89.868062
 30
0.000000
  0
VERTEX
  8
‰şŠG
 10
62.164595
 20
-230.568805
 30
0.000000
  0
VERTEX
  8
‰şŠG
 10
7.689541
 20
-353.500000
 30
0.000000
  0
VERTEX
  8
‰şŠG
 10
7.689541
 20
-353.500000
 30
0.000000
  0
VERTEX
  8
‰şŠG
 10
7.689541
 20
-353.500000
 30
0.000000
  0
VERTEX
  8
‰şŠG
 10
74.730653
 20
-235.626575
 30
0.000000
  0
VERTEX
  8
‰şŠG
 10
148.302288
 20
-85.534757
 30
0.000000
  0
VERTEX
  8
‰şŠG
 10
148.302288
 20
-122.336457
 30
0.000000
  0
VERTEX
  8
‰şŠG
 10
156.053508
 20
-174.633617
 30
0.000000
  0
VERTEX
  8
‰şŠG
 10
163.481621
 20
-121.690790
 30
0.000000
  0
VERTEX
  8
‰şŠG
 10
164.369459
 20
-66.655619
 30
0.000000
  0
VERTEX
  8
‰şŠG
 10
187.535163
 20
-113.256583
 30
0.000000
  0
VERTEX
  8
‰şŠG
 10
220.782245
 20
-154.607214
 30
0.000000
  0
VERTEX
  8
‰şŠG
 10
202.762907
 20
-107.675517
 30
0.000000
  0
VERTEX
  8
‰şŠG
 10
180.936467
 20
-68.608060
 30
0.000000
  0
VERTEX
  8
‰şŠG
 10
274.614639
 20
-148.404841
 30
0.000000
  0
VERTEX
  8
‰şŠG
 10
408.615810
 20
-230.803304
 30
0.000000
  0
VERTEX
  8
‰şŠG
 10
284.414864
 20
-140.330123
 30
0.000000
  0
VERTEX
  8
‰şŠG
 10
176.908005
 20
-46.242794
 30
0.000000
  0
VERTEX
  8
‰şŠG
 10
266.664892
 20
-5.934795
 30
0.000000
  0
VERTEX
  8
‰şŠG
 10
391.780973
 20
41.296058
 30
0.000000
  0
VERTEX
  8
‰şŠG
 10
553.500000
 20
104.492163
 30
0.000000
  0
VERTEX
  8
‰şŠG
 10
390.449908
 20
53.935188
 30
0.000000
  0
VERTEX
  8
‰şŠG
 10
259.344259
 20
8.034944
 30
0.000000
  0
VERTEX
  8
‰şŠG
 10
164.740412
 20
-30.319221
 30
0.000000
  0
VERTEX
  8
‰şŠG
 10
122.296562
 20
66.410966
 30
0.000000
  0
VERTEX
  8
‰şŠG
 10
12.589431
 20
353.500000
 30
0.000000
  0
SEQEND
  0
ENDSEC
  0
EOF
