  0
SECTION
  2
HEADER
  9
$INSBASE
 10
0.0
 20
0.0
 30
0.0
  9
$EXTMIN
 10
-195.000000
 20
-195.000000
 30
0.000000
  9
$EXTMAX
 10
195.000000
 20
195.000000
 30
0.000000
  9
$LIMMIN
 10
0.000000
 20
0.000000
  9
$LIMMAX
 10
0.000000
 20
0.000000
  9
$LTSCALE
 40
0.000000
  0
ENDSEC
  0
SECTION
  2
TABLES
  0
TABLE
  2
LTYPE
 70
    25
  0
LTYPE
  2
CONTINUOUS
 70
    64
  3
Solid line
 72
    65
 73
     0
 40
0.00
  0
LTYPE
  2
BORDER
 70
    64
  3
__ __ . __ __ . __ __ . __ __ . __ __ . __ __ .
 72
    65
 73
     6
 40
0.25
 49
0.50
 49
-0.25
 49
0.50
 49
-0.25
 49
0.00
 49
-0.25
  0
LTYPE
  2
BORDER2
 70
    64
  3
__.__.__.__.__.__.__.__.__.__.__.__.__.__.__.__
 72
    65
 73
     6
 40
0.13
 49
0.25
 49
-0.13
 49
0.25
 49
-0.13
 49
0.00
 49
-0.13
  0
LTYPE
  2
BORDERX2
 70
    64
  3
____  ____  .  ____  ____  .  ____  ____  .  __
 72
    65
 73
     6
 40
0.50
 49
1.00
 49
-0.50
 49
1.00
 49
-0.50
 49
0.00
 49
-0.50
  0
LTYPE
  2
CENTER
 70
    64
  3
____ _ ____ _ ____ _ ____ _ ____ _ ____ _ ____ 
 72
    65
 73
     4
 40
1.00
 49
1.25
 49
-0.25
 49
0.25
 49
-0.25
  0
LTYPE
  2
CENTER2
 70
    64
  3
___ _ ___ _ ___ _ ___ _ ___ _ ___ _ ___ _ ___ _
 72
    65
 73
     4
 40
0.63
 49
0.75
 49
-0.13
 49
0.13
 49
-0.13
  0
LTYPE
  2
CENTERX2
 70
    64
  3
________  __  ________  __  ________  __  _____
 72
    65
 73
     4
 40
2.00
 49
2.50
 49
-0.50
 49
0.50
 49
-0.50
  0
LTYPE
  2
DASHDOT
 70
    64
  3
__ . __ . __ . __ . __ . __ . __ . __ . __ . __
 72
    65
 73
     4
 40
0.00
 49
0.50
 49
-0.25
 49
0.00
 49
-0.25
  0
LTYPE
  2
DASHDOT2
 70
    64
  3
_._._._._._._._._._._._._._._._._._._._._._._._
 72
    65
 73
     4
 40
0.00
 49
0.25
 49
-0.13
 49
0.00
 49
-0.13
  0
LTYPE
  2
DASHDOTX2
 70
    64
  3
____  .  ____  .  ____  .  ____  .  ____  .  __
 72
    65
 73
     4
 40
0.00
 49
1.00
 49
-0.50
 49
0.00
 49
-0.50
  0
LTYPE
  2
DASHED
 70
    64
  3
__ __ __ __ __ __ __ __ __ __ __ __ __ __ __ __
 72
    65
 73
     2
 40
0.25
 49
0.50
 49
-0.25
  0
LTYPE
  2
DASHED2
 70
    64
  3
_ _ _ _ _ _ _ _ _ _ _ _ _ _ _ _ _ _ _ _ _ _ _ _
 72
    65
 73
     2
 40
0.13
 49
0.25
 49
-0.13
  0
LTYPE
  2
DASHEDX2
 70
    64
  3
____  ____  ____  ____  ____  ____  ____  ____ 
 72
    65
 73
     2
 40
0.50
 49
1.00
 49
-0.50
  0
LTYPE
  2
DIVIDE
 70
    64
  3
____ . . ____ . . ____ . . ____ . . ____ . . __
 72
    65
 73
     6
 40
-0.25
 49
0.50
 49
-0.25
 49
0.00
 49
-0.25
 49
0.00
 49
-0.25
  0
LTYPE
  2
DIVIDE2
 70
    64
  3
__..__..__..__..__..__..__..__..__..__..__..__.
 72
    65
 73
     6
 40
-0.13
 49
0.25
 49
-0.13
 49
0.00
 49
-0.13
 49
0.00
 49
-0.13
  0
LTYPE
  2
DIVIDEX2
 70
    64
  3
________  .  .  ________  .  .  ________  .  . 
 72
    65
 73
     6
 40
-0.50
 49
1.00
 49
-0.50
 49
0.00
 49
-0.50
 49
0.00
 49
-0.50
  0
LTYPE
  2
DOT
 70
    64
  3
. . . . . . . . . . . . . . . . . . . . . . . .
 72
    65
 73
     2
 40
-0.25
 49
0.00
 49
-0.25
  0
LTYPE
  2
DOT2
 70
    64
  3
...............................................
 72
    65
 73
     2
 40
-0.13
 49
0.00
 49
-0.13
  0
LTYPE
  2
DOTX2
 70
    64
  3
.  .  .  .  .  .  .  .  .  .  .  .  .  .  .  . 
 72
    65
 73
     2
 40
-0.50
 49
0.00
 49
-0.50
  0
LTYPE
  2
HIDDEN
 70
    64
  3
__ __ __ __ __ __ __ __ __ __ __ __ __ __ __ __
 72
    65
 73
     2
 40
0.13
 49
0.25
 49
-0.13
  0
LTYPE
  2
HIDDEN2
 70
    64
  3
_ _ _ _ _ _ _ _ _ _ _ _ _ _ _ _ _ _ _ _ _ _ _ _
 72
    65
 73
     2
 40
0.06
 49
0.13
 49
-0.06
  0
LTYPE
  2
HIDDENX2
 70
    64
  3
____ ____ ____ ____ ____ ____ ____ ____ ____ __
 72
    65
 73
     2
 40
0.25
 49
0.50
 49
-0.25
  0
LTYPE
  2
PHANTOM
 70
    64
  3
______  __  __  ______  __  __  ______  __  __ 
 72
    65
 73
     6
 40
1.00
 49
1.25
 49
-0.25
 49
0.25
 49
-0.25
 49
0.25
 49
-0.25
  0
LTYPE
  2
PHANTOM2
 70
    64
  3
___ _ _ ___ _ _ ___ _ _ ___ _ _ ___ _ _ ___ _ _
 72
    65
 73
     6
 40
0.50
 49
0.63
 49
-0.13
 49
0.13
 49
-0.13
 49
0.13
 49
-0.13
  0
LTYPE
  2
PHANTOMX2
 70
    64
  3
____________    ____    ____    ____________   
 72
    65
 73
     6
 40
2.00
 49
2.50
 49
-0.50
 49
0.50
 49
-0.50
 49
0.50
 49
-0.50
  0
ENDTAB
  0
TABLE
  2
LAYER
 70
     1
  0
LAYER
  2
‰şŠG
 70
     0
 62
     7
  6
CONTINUOUS
  0
ENDTAB
  0
TABLE
  2
STYLE
 70
     1
  0
STYLE
  2
STANDARD
 70
     0
 40
0.0
 41
1.0
 50
0.0
 71
     0
 42
0.2
  3
txt.shx
  4
bigfont.shx
  0
ENDTAB
  0
ENDSEC
  0
SECTION
  2
BLOCKS
  0
ENDSEC
  0
SECTION
  2
ENTITIES
  0
POLYLINE
  8
‰şŠG
  6
CONTINUOUS
 62
7
 10
0.0
 20
0.0
 30
0.0
 66
     1
  0
VERTEX
  8
‰şŠG
 10
-195.000000
 20
0.000000
 30
0.000000
  0
VERTEX
  8
‰şŠG
 10
-188.355536
 20
-50.469714
 30
0.000000
  0
VERTEX
  8
‰şŠG
 10
-168.874954
 20
-97.500000
 30
0.000000
  0
VERTEX
  8
‰şŠG
 10
-137.885823
 20
-137.885822
 30
0.000000
  0
VERTEX
  8
‰şŠG
 10
-97.500000
 20
-168.874954
 30
0.000000
  0
VERTEX
  8
‰şŠG
 10
-50.469714
 20
-188.355536
 30
0.000000
  0
VERTEX
  8
‰şŠG
 10
0.000000
 20
-195.000000
 30
0.000000
  0
VERTEX
  8
‰şŠG
 10
50.469713
 20
-188.355536
 30
0.000000
  0
VERTEX
  8
‰şŠG
 10
97.500000
 20
-168.874954
 30
0.000000
  0
VERTEX
  8
‰şŠG
 10
137.885822
 20
-137.885822
 30
0.000000
  0
VERTEX
  8
‰şŠG
 10
168.874953
 20
-97.500000
 30
0.000000
  0
VERTEX
  8
‰şŠG
 10
188.355536
 20
-50.469714
 30
0.000000
  0
VERTEX
  8
‰şŠG
 10
195.000000
 20
0.000000
 30
0.000000
  0
VERTEX
  8
‰şŠG
 10
188.355536
 20
50.469714
 30
0.000000
  0
VERTEX
  8
‰şŠG
 10
168.874953
 20
97.500000
 30
0.000000
  0
VERTEX
  8
‰şŠG
 10
137.885822
 20
137.885822
 30
0.000000
  0
VERTEX
  8
‰şŠG
 10
97.500000
 20
168.874954
 30
0.000000
  0
VERTEX
  8
‰şŠG
 10
50.469713
 20
188.355536
 30
0.000000
  0
VERTEX
  8
‰şŠG
 10
0.000000
 20
195.000000
 30
0.000000
  0
VERTEX
  8
‰şŠG
 10
-50.469714
 20
188.355536
 30
0.000000
  0
VERTEX
  8
‰şŠG
 10
-97.500000
 20
168.874954
 30
0.000000
  0
VERTEX
  8
‰şŠG
 10
-137.885823
 20
137.885822
 30
0.000000
  0
VERTEX
  8
‰şŠG
 10
-168.874954
 20
97.500000
 30
0.000000
  0
VERTEX
  8
‰şŠG
 10
-188.355536
 20
50.469714
 30
0.000000
  0
VERTEX
  8
‰şŠG
 10
-195.000000
 20
0.000000
 30
0.000000
  0
VERTEX
  8
‰şŠG
 10
-195.000000
 20
0.000000
 30
0.000000
  0
SEQEND
  0
LINE
  8
‰şŠG
  6
CONTINUOUS
 62
7
 10
-126.076952
 20
5.000000
 30
0.000000
 11
-126.076952
 21
5.000000
 31
0.000000
  0
LINE
  8
‰şŠG
  6
CONTINUOUS
 62
7
 10
-121.647309
 20
38.646476
 30
0.000000
 11
-126.076952
 21
5.000000
 31
0.000000
  0
LINE
  8
‰şŠG
  6
CONTINUOUS
 62
7
 10
-108.660254
 20
70.000000
 30
0.000000
 11
-121.647309
 21
38.646476
 31
0.000000
  0
LINE
  8
‰şŠG
  6
CONTINUOUS
 62
7
 10
-88.000833
 20
96.923882
 30
0.000000
 11
-108.660254
 21
70.000000
 31
0.000000
  0
LINE
  8
‰şŠG
  6
CONTINUOUS
 62
7
 10
-61.076952
 20
117.583302
 30
0.000000
 11
-88.000833
 21
96.923882
 31
0.000000
  0
LINE
  8
‰şŠG
  6
CONTINUOUS
 62
7
 10
-29.723428
 20
130.570357
 30
0.000000
 11
-61.076952
 21
117.583302
 31
0.000000
  0
LINE
  8
‰şŠG
  6
CONTINUOUS
 62
7
 10
3.923048
 20
135.000000
 30
0.000000
 11
-29.723428
 21
130.570357
 31
0.000000
  0
LINE
  8
‰şŠG
  6
CONTINUOUS
 62
7
 10
37.569524
 20
130.570357
 30
0.000000
 11
3.923048
 21
135.000000
 31
0.000000
  0
LINE
  8
‰şŠG
  6
CONTINUOUS
 62
7
 10
68.923048
 20
117.583302
 30
0.000000
 11
37.569524
 21
130.570357
 31
0.000000
  0
LINE
  8
‰şŠG
  6
CONTINUOUS
 62
7
 10
73.000000
 20
114.500000
 30
0.000000
 11
68.923048
 21
117.583302
 31
0.000000
  0
LINE
  8
‰şŠG
  6
CONTINUOUS
 62
7
 10
95.846930
 20
96.923882
 30
0.000000
 11
90.500000
 21
100.500000
 31
0.000000
  0
LINE
  8
‰şŠG
  6
CONTINUOUS
 62
7
 10
116.506351
 20
70.000000
 30
0.000000
 11
95.846930
 21
96.923882
 31
0.000000
  0
LINE
  8
‰şŠG
  6
CONTINUOUS
 62
7
 10
129.493406
 20
38.646476
 30
0.000000
 11
116.506351
 21
70.000000
 31
0.000000
  0
LINE
  8
‰şŠG
  6
CONTINUOUS
 62
7
 10
133.923048
 20
5.000000
 30
0.000000
 11
129.493406
 21
38.646476
 31
0.000000
  0
LINE
  8
‰şŠG
  6
CONTINUOUS
 62
7
 10
129.493406
 20
-28.646476
 30
0.000000
 11
133.923048
 21
5.000000
 31
0.000000
  0
LINE
  8
‰şŠG
  6
CONTINUOUS
 62
7
 10
116.506351
 20
-60.000000
 30
0.000000
 11
129.493406
 21
-28.646476
 31
0.000000
  0
LINE
  8
‰şŠG
  6
CONTINUOUS
 62
7
 10
95.846930
 20
-86.923882
 30
0.000000
 11
116.506351
 21
-60.000000
 31
0.000000
  0
LINE
  8
‰şŠG
  6
CONTINUOUS
 62
7
 10
68.923048
 20
-107.583302
 30
0.000000
 11
95.846930
 21
-86.923882
 31
0.000000
  0
LINE
  8
‰şŠG
  6
CONTINUOUS
 62
7
 10
37.569524
 20
-120.570357
 30
0.000000
 11
68.923048
 21
-107.583302
 31
0.000000
  0
LINE
  8
‰şŠG
  6
CONTINUOUS
 62
7
 10
3.923048
 20
-125.000000
 30
0.000000
 11
37.569524
 21
-120.570357
 31
0.000000
  0
LINE
  8
‰şŠG
  6
CONTINUOUS
 62
7
 10
-29.723428
 20
-120.570357
 30
0.000000
 11
3.923048
 21
-125.000000
 31
0.000000
  0
LINE
  8
‰şŠG
  6
CONTINUOUS
 62
7
 10
-61.076952
 20
-107.583302
 30
0.000000
 11
-29.723428
 21
-120.570357
 31
0.000000
  0
LINE
  8
‰şŠG
  6
CONTINUOUS
 62
7
 10
-88.000833
 20
-86.923882
 30
0.000000
 11
-61.076952
 21
-107.583302
 31
0.000000
  0
LINE
  8
‰şŠG
  6
CONTINUOUS
 62
7
 10
-108.660254
 20
-60.000000
 30
0.000000
 11
-88.000833
 21
-86.923882
 31
0.000000
  0
LINE
  8
‰şŠG
  6
CONTINUOUS
 62
7
 10
-121.647309
 20
-28.646476
 30
0.000000
 11
-108.660254
 21
-60.000000
 31
0.000000
  0
LINE
  8
‰şŠG
  6
CONTINUOUS
 62
7
 10
-126.076952
 20
5.000000
 30
0.000000
 11
-121.647309
 21
-28.646476
 31
0.000000
  0
POLYLINE
  8
‰şŠG
  6
CONTINUOUS
 62
7
 10
0.0
 20
0.0
 30
0.0
 66
     1
  0
VERTEX
  8
‰şŠG
 10
-105.262795
 20
5.000000
 30
0.000000
  0
VERTEX
  8
‰şŠG
 10
-101.514636
 20
-23.470095
 30
0.000000
  0
VERTEX
  8
‰şŠG
 10
-90.525589
 20
-50.000000
 30
0.000000
  0
VERTEX
  8
‰şŠG
 10
-73.044541
 20
-72.781746
 30
0.000000
  0
VERTEX
  8
‰şŠG
 10
-50.262795
 20
-90.262794
 30
0.000000
  0
VERTEX
  8
‰şŠG
 10
-23.732890
 20
-101.251841
 30
0.000000
  0
VERTEX
  8
‰şŠG
 10
4.737205
 20
-105.000000
 30
0.000000
  0
VERTEX
  8
‰şŠG
 10
33.207300
 20
-101.251841
 30
0.000000
  0
VERTEX
  8
‰şŠG
 10
59.737205
 20
-90.262794
 30
0.000000
  0
VERTEX
  8
‰şŠG
 10
82.518951
 20
-72.781746
 30
0.000000
  0
VERTEX
  8
‰şŠG
 10
100.000000
 20
-50.000000
 30
0.000000
  0
VERTEX
  8
‰şŠG
 10
110.989046
 20
-23.470095
 30
0.000000
  0
VERTEX
  8
‰şŠG
 10
114.737205
 20
5.000000
 30
0.000000
  0
VERTEX
  8
‰şŠG
 10
110.989046
 20
33.470095
 30
0.000000
  0
VERTEX
  8
‰şŠG
 10
100.000000
 20
60.000000
 30
0.000000
  0
VERTEX
  8
‰şŠG
 10
90.165206
 20
69.124633
 30
0.000000
  0
VERTEX
  8
‰şŠG
 10
95.000000
 20
85.000000
 30
0.000000
  0
VERTEX
  8
‰şŠG
 10
80.000000
 20
140.000000
 30
0.000000
  0
VERTEX
  8
‰şŠG
 10
70.000000
 20
110.000000
 30
0.000000
  0
VERTEX
  8
‰şŠG
 10
59.737205
 20
100.262794
 30
0.000000
  0
VERTEX
  8
‰şŠG
 10
33.207300
 20
111.251841
 30
0.000000
  0
VERTEX
  8
‰şŠG
 10
4.737205
 20
115.000000
 30
0.000000
  0
VERTEX
  8
‰şŠG
 10
-23.732890
 20
111.251841
 30
0.000000
  0
VERTEX
  8
‰şŠG
 10
-50.262795
 20
100.262794
 30
0.000000
  0
VERTEX
  8
‰şŠG
 10
-73.044541
 20
82.781746
 30
0.000000
  0
VERTEX
  8
‰şŠG
 10
-90.525589
 20
60.000000
 30
0.000000
  0
VERTEX
  8
‰şŠG
 10
-101.514636
 20
33.470095
 30
0.000000
  0
VERTEX
  8
‰şŠG
 10
-105.262795
 20
5.000000
 30
0.000000
  0
VERTEX
  8
‰şŠG
 10
-105.262795
 20
5.000000
 30
0.000000
  0
SEQEND
  0
POLYLINE
  8
‰şŠG
  6
CONTINUOUS
 62
7
 10
0.0
 20
0.0
 30
0.0
 66
     1
  0
VERTEX
  8
‰şŠG
 10
60.000000
 20
100.000000
 30
0.000000
  0
VERTEX
  8
‰şŠG
 10
5.000000
 20
60.000000
 30
0.000000
  0
VERTEX
  8
‰şŠG
 10
-20.000000
 20
50.000000
 30
0.000000
  0
VERTEX
  8
‰şŠG
 10
-35.000000
 20
50.000000
 30
0.000000
  0
SEQEND
  0
POLYLINE
  8
‰şŠG
  6
CONTINUOUS
 62
7
 10
0.0
 20
0.0
 30
0.0
 66
     1
  0
VERTEX
  8
‰şŠG
 10
90.000000
 20
70.000000
 30
0.000000
  0
VERTEX
  8
‰şŠG
 10
80.000000
 20
30.000000
 30
0.000000
  0
VERTEX
  8
‰şŠG
 10
62.165206
 20
-9.375367
 30
0.000000
  0
VERTEX
  8
‰şŠG
 10
60.000000
 20
-30.000000
 30
0.000000
  0
SEQEND
  0
ENDSEC
  0
EOF
