  0
SECTION
  2
HEADER
  9
$INSBASE
 10
0.0
 20
0.0
 30
0.0
  9
$EXTMIN
 10
-675.000000
 20
-850.486940
 30
0.000000
  9
$EXTMAX
 10
675.000000
 20
799.513105
 30
0.000000
  9
$LIMMIN
 10
0.000000
 20
0.000000
  9
$LIMMAX
 10
0.000000
 20
0.000000
  9
$LTSCALE
 40
0.000000
  0
ENDSEC
  0
SECTION
  2
TABLES
  0
TABLE
  2
LTYPE
 70
    25
  0
LTYPE
  2
CONTINUOUS
 70
    64
  3
Solid line
 72
    65
 73
     0
 40
0.00
  0
LTYPE
  2
BORDER
 70
    64
  3
__ __ . __ __ . __ __ . __ __ . __ __ . __ __ .
 72
    65
 73
     6
 40
0.25
 49
0.50
 49
-0.25
 49
0.50
 49
-0.25
 49
0.00
 49
-0.25
  0
LTYPE
  2
BORDER2
 70
    64
  3
__.__.__.__.__.__.__.__.__.__.__.__.__.__.__.__
 72
    65
 73
     6
 40
0.13
 49
0.25
 49
-0.13
 49
0.25
 49
-0.13
 49
0.00
 49
-0.13
  0
LTYPE
  2
BORDERX2
 70
    64
  3
____  ____  .  ____  ____  .  ____  ____  .  __
 72
    65
 73
     6
 40
0.50
 49
1.00
 49
-0.50
 49
1.00
 49
-0.50
 49
0.00
 49
-0.50
  0
LTYPE
  2
CENTER
 70
    64
  3
____ _ ____ _ ____ _ ____ _ ____ _ ____ _ ____ 
 72
    65
 73
     4
 40
1.00
 49
1.25
 49
-0.25
 49
0.25
 49
-0.25
  0
LTYPE
  2
CENTER2
 70
    64
  3
___ _ ___ _ ___ _ ___ _ ___ _ ___ _ ___ _ ___ _
 72
    65
 73
     4
 40
0.63
 49
0.75
 49
-0.13
 49
0.13
 49
-0.13
  0
LTYPE
  2
CENTERX2
 70
    64
  3
________  __  ________  __  ________  __  _____
 72
    65
 73
     4
 40
2.00
 49
2.50
 49
-0.50
 49
0.50
 49
-0.50
  0
LTYPE
  2
DASHDOT
 70
    64
  3
__ . __ . __ . __ . __ . __ . __ . __ . __ . __
 72
    65
 73
     4
 40
0.00
 49
0.50
 49
-0.25
 49
0.00
 49
-0.25
  0
LTYPE
  2
DASHDOT2
 70
    64
  3
_._._._._._._._._._._._._._._._._._._._._._._._
 72
    65
 73
     4
 40
0.00
 49
0.25
 49
-0.13
 49
0.00
 49
-0.13
  0
LTYPE
  2
DASHDOTX2
 70
    64
  3
____  .  ____  .  ____  .  ____  .  ____  .  __
 72
    65
 73
     4
 40
0.00
 49
1.00
 49
-0.50
 49
0.00
 49
-0.50
  0
LTYPE
  2
DASHED
 70
    64
  3
__ __ __ __ __ __ __ __ __ __ __ __ __ __ __ __
 72
    65
 73
     2
 40
0.25
 49
0.50
 49
-0.25
  0
LTYPE
  2
DASHED2
 70
    64
  3
_ _ _ _ _ _ _ _ _ _ _ _ _ _ _ _ _ _ _ _ _ _ _ _
 72
    65
 73
     2
 40
0.13
 49
0.25
 49
-0.13
  0
LTYPE
  2
DASHEDX2
 70
    64
  3
____  ____  ____  ____  ____  ____  ____  ____ 
 72
    65
 73
     2
 40
0.50
 49
1.00
 49
-0.50
  0
LTYPE
  2
DIVIDE
 70
    64
  3
____ . . ____ . . ____ . . ____ . . ____ . . __
 72
    65
 73
     6
 40
-0.25
 49
0.50
 49
-0.25
 49
0.00
 49
-0.25
 49
0.00
 49
-0.25
  0
LTYPE
  2
DIVIDE2
 70
    64
  3
__..__..__..__..__..__..__..__..__..__..__..__.
 72
    65
 73
     6
 40
-0.13
 49
0.25
 49
-0.13
 49
0.00
 49
-0.13
 49
0.00
 49
-0.13
  0
LTYPE
  2
DIVIDEX2
 70
    64
  3
________  .  .  ________  .  .  ________  .  . 
 72
    65
 73
     6
 40
-0.50
 49
1.00
 49
-0.50
 49
0.00
 49
-0.50
 49
0.00
 49
-0.50
  0
LTYPE
  2
DOT
 70
    64
  3
. . . . . . . . . . . . . . . . . . . . . . . .
 72
    65
 73
     2
 40
-0.25
 49
0.00
 49
-0.25
  0
LTYPE
  2
DOT2
 70
    64
  3
...............................................
 72
    65
 73
     2
 40
-0.13
 49
0.00
 49
-0.13
  0
LTYPE
  2
DOTX2
 70
    64
  3
.  .  .  .  .  .  .  .  .  .  .  .  .  .  .  . 
 72
    65
 73
     2
 40
-0.50
 49
0.00
 49
-0.50
  0
LTYPE
  2
HIDDEN
 70
    64
  3
__ __ __ __ __ __ __ __ __ __ __ __ __ __ __ __
 72
    65
 73
     2
 40
0.13
 49
0.25
 49
-0.13
  0
LTYPE
  2
HIDDEN2
 70
    64
  3
_ _ _ _ _ _ _ _ _ _ _ _ _ _ _ _ _ _ _ _ _ _ _ _
 72
    65
 73
     2
 40
0.06
 49
0.13
 49
-0.06
  0
LTYPE
  2
HIDDENX2
 70
    64
  3
____ ____ ____ ____ ____ ____ ____ ____ ____ __
 72
    65
 73
     2
 40
0.25
 49
0.50
 49
-0.25
  0
LTYPE
  2
PHANTOM
 70
    64
  3
______  __  __  ______  __  __  ______  __  __ 
 72
    65
 73
     6
 40
1.00
 49
1.25
 49
-0.25
 49
0.25
 49
-0.25
 49
0.25
 49
-0.25
  0
LTYPE
  2
PHANTOM2
 70
    64
  3
___ _ _ ___ _ _ ___ _ _ ___ _ _ ___ _ _ ___ _ _
 72
    65
 73
     6
 40
0.50
 49
0.63
 49
-0.13
 49
0.13
 49
-0.13
 49
0.13
 49
-0.13
  0
LTYPE
  2
PHANTOMX2
 70
    64
  3
____________    ____    ____    ____________   
 72
    65
 73
     6
 40
2.00
 49
2.50
 49
-0.50
 49
0.50
 49
-0.50
 49
0.50
 49
-0.50
  0
ENDTAB
  0
TABLE
  2
LAYER
 70
     1
  0
LAYER
  2
‰şŠG
 70
     0
 62
     7
  6
CONTINUOUS
  0
ENDTAB
  0
TABLE
  2
STYLE
 70
     1
  0
STYLE
  2
STANDARD
 70
     0
 40
0.0
 41
1.0
 50
0.0
 71
     0
 42
0.2
  3
txt.shx
  4
bigfont.shx
  0
ENDTAB
  0
ENDSEC
  0
SECTION
  2
BLOCKS
  0
ENDSEC
  0
SECTION
  2
ENTITIES
  0
POLYLINE
  8
‰şŠG
  6
CONTINUOUS
 62
7
 10
0.0
 20
0.0
 30
0.0
 66
     1
  0
VERTEX
  8
‰şŠG
 10
-675.000000
 20
-850.486940
 30
0.000000
  0
VERTEX
  8
‰şŠG
 10
675.000000
 20
-850.486940
 30
0.000000
  0
VERTEX
  8
‰şŠG
 10
675.000000
 20
799.513105
 30
0.000000
  0
VERTEX
  8
‰şŠG
 10
-675.000000
 20
799.513105
 30
0.000000
  0
VERTEX
  8
‰şŠG
 10
-675.000000
 20
-850.486940
 30
0.000000
  0
SEQEND
  0
LINE
  8
‰şŠG
  6
CONTINUOUS
 62
7
 10
675.000000
 20
350.872620
 30
0.000000
 11
-675.000000
 21
350.872620
 31
0.000000
  0
LINE
  8
‰şŠG
  6
CONTINUOUS
 62
7
 10
675.000000
 20
151.476832
 30
0.000000
 11
-675.000000
 21
151.476832
 31
0.000000
  0
LINE
  8
‰şŠG
  6
CONTINUOUS
 62
7
 10
675.000000
 20
-47.918942
 30
0.000000
 11
-675.000000
 21
-47.918942
 31
0.000000
  0
LINE
  8
‰şŠG
  6
CONTINUOUS
 62
7
 10
675.000000
 20
-247.314729
 30
0.000000
 11
-675.000000
 21
-247.314729
 31
0.000000
  0
LINE
  8
‰şŠG
  6
CONTINUOUS
 62
7
 10
675.000000
 20
-446.710501
 30
0.000000
 11
-675.000000
 21
-446.710501
 31
0.000000
  0
LINE
  8
‰şŠG
  6
CONTINUOUS
 62
7
 10
675.000000
 20
-646.106259
 30
0.000000
 11
-675.000000
 21
-646.106259
 31
0.000000
  0
POLYLINE
  8
‰şŠG
  6
CONTINUOUS
 62
7
 10
0.0
 20
0.0
 30
0.0
 66
     1
  0
VERTEX
  8
‰şŠG
 10
667.370432
 20
438.783689
 30
0.000000
  0
VERTEX
  8
‰şŠG
 10
426.273250
 20
782.065960
 30
0.000000
  0
VERTEX
  8
‰şŠG
 10
-426.273250
 20
782.065960
 30
0.000000
  0
VERTEX
  8
‰şŠG
 10
-667.370432
 20
438.783689
 30
0.000000
  0
VERTEX
  8
‰şŠG
 10
-642.795903
 20
421.628393
 30
0.000000
  0
VERTEX
  8
‰şŠG
 10
-410.656265
 20
752.156597
 30
0.000000
  0
VERTEX
  8
‰şŠG
 10
410.656265
 20
752.156597
 30
0.000000
  0
VERTEX
  8
‰şŠG
 10
642.795903
 20
421.628393
 30
0.000000
  0
VERTEX
  8
‰şŠG
 10
667.370432
 20
438.783689
 30
0.000000
  0
SEQEND
  0
POLYLINE
  8
‰şŠG
  6
CONTINUOUS
 62
7
 10
0.0
 20
0.0
 30
0.0
 66
     1
  0
VERTEX
  8
‰şŠG
 10
167.781807
 20
700.402283
 30
0.000000
  0
VERTEX
  8
‰şŠG
 10
319.759853
 20
700.402283
 30
0.000000
  0
VERTEX
  8
‰şŠG
 10
319.759853
 20
420.866491
 30
0.000000
  0
VERTEX
  8
‰şŠG
 10
-380.863369
 20
420.866491
 30
0.000000
  0
VERTEX
  8
‰şŠG
 10
-380.863369
 20
700.402283
 30
0.000000
  0
VERTEX
  8
‰şŠG
 10
92.902976
 20
700.402283
 30
0.000000
  0
SEQEND
  0
POLYLINE
  8
‰şŠG
  6
CONTINUOUS
 62
7
 10
0.0
 20
0.0
 30
0.0
 66
     1
  0
VERTEX
  8
‰şŠG
 10
-334.355292
 20
662.785252
 30
0.000000
  0
VERTEX
  8
‰şŠG
 10
-39.060065
 20
662.785252
 30
0.000000
  0
VERTEX
  8
‰şŠG
 10
-39.060065
 20
461.313315
 30
0.000000
  0
VERTEX
  8
‰şŠG
 10
-334.355292
 20
461.313315
 30
0.000000
  0
VERTEX
  8
‰şŠG
 10
-334.355292
 20
662.785252
 30
0.000000
  0
SEQEND
  0
LINE
  8
‰şŠG
  6
CONTINUOUS
 62
7
 10
-219.877644
 20
617.894436
 30
0.000000
 11
-261.699388
 21
609.915444
 31
0.000000
  0
LINE
  8
‰şŠG
  6
CONTINUOUS
 62
7
 10
-261.699388
 20
609.915444
 30
0.000000
 11
-267.396980
 21
600.377399
 31
0.000000
  0
LINE
  8
‰şŠG
  6
CONTINUOUS
 62
7
 10
-267.396980
 20
600.377399
 30
0.000000
 11
-281.071428
 21
604.981994
 31
0.000000
  0
LINE
  8
‰şŠG
  6
CONTINUOUS
 62
7
 10
-281.071428
 20
604.981994
 30
0.000000
 11
-314.117632
 21
583.274816
 31
0.000000
  0
LINE
  8
‰şŠG
  6
CONTINUOUS
 62
7
 10
-314.117632
 20
583.274816
 30
0.000000
 11
-293.226272
 21
505.655167
 31
0.000000
  0
LINE
  8
‰şŠG
  6
CONTINUOUS
 62
7
 10
-293.226272
 20
505.655167
 30
0.000000
 11
-242.327347
 21
515.850921
 31
0.000000
  0
LINE
  8
‰şŠG
  6
CONTINUOUS
 62
7
 10
-242.327347
 20
515.850921
 30
0.000000
 11
-214.218790
 21
505.655167
 31
0.000000
  0
LINE
  8
‰şŠG
  6
CONTINUOUS
 62
7
 10
-214.218790
 20
505.655167
 30
0.000000
 11
-209.280858
 21
492.828199
 31
0.000000
  0
LINE
  8
‰şŠG
  6
CONTINUOUS
 62
7
 10
-209.280858
 20
492.828199
 30
0.000000
 11
-167.118450
 21
499.735028
 31
0.000000
  0
LINE
  8
‰şŠG
  6
CONTINUOUS
 62
7
 10
-167.118450
 20
499.735028
 30
0.000000
 11
-143.947825
 21
515.193212
 31
0.000000
  0
LINE
  8
‰şŠG
  6
CONTINUOUS
 62
7
 10
-143.947825
 20
515.193212
 30
0.000000
 11
-95.437495
 21
506.215173
 31
0.000000
  0
LINE
  8
‰şŠG
  6
CONTINUOUS
 62
7
 10
-210.849054
 20
572.957639
 30
0.000000
 11
-207.582330
 21
558.794598
 31
0.000000
  0
LINE
  8
‰şŠG
  6
CONTINUOUS
 62
7
 10
-207.582330
 20
558.794598
 30
0.000000
 11
-196.696013
 21
554.246052
 31
0.000000
  0
LINE
  8
‰şŠG
  6
CONTINUOUS
 62
7
 10
-177.965439
 20
572.957639
 30
0.000000
 11
-181.232163
 21
558.794598
 31
0.000000
  0
LINE
  8
‰şŠG
  6
CONTINUOUS
 62
7
 10
-194.407246
 20
551.545842
 30
0.000000
 11
-196.696013
 21
554.246052
 31
0.000000
  0
LINE
  8
‰şŠG
  6
CONTINUOUS
 62
7
 10
-181.232163
 20
558.794598
 30
0.000000
 11
-192.118480
 21
554.246052
 31
0.000000
  0
LINE
  8
‰şŠG
  6
CONTINUOUS
 62
7
 10
-194.407246
 20
551.545842
 30
0.000000
 11
-192.118480
 21
554.246052
 31
0.000000
  0
POLYLINE
  8
‰şŠG
  6
CONTINUOUS
 62
7
 10
0.0
 20
0.0
 30
0.0
 66
     1
  0
VERTEX
  8
‰şŠG
 10
-194.407246
 20
587.200370
 30
0.000000
  0
VERTEX
  8
‰şŠG
 10
-206.033360
 20
583.028771
 30
0.000000
  0
VERTEX
  8
‰şŠG
 10
-210.849054
 20
572.957639
 30
0.000000
  0
VERTEX
  8
‰şŠG
 10
-206.033360
 20
562.886508
 30
0.000000
  0
VERTEX
  8
‰şŠG
 10
-194.407246
 20
558.714909
 30
0.000000
  0
VERTEX
  8
‰şŠG
 10
-182.781133
 20
562.886508
 30
0.000000
  0
VERTEX
  8
‰şŠG
 10
-177.965439
 20
572.957639
 30
0.000000
  0
VERTEX
  8
‰şŠG
 10
-182.781133
 20
583.028771
 30
0.000000
  0
VERTEX
  8
‰şŠG
 10
-194.407246
 20
587.200370
 30
0.000000
  0
SEQEND
  0
POLYLINE
  8
‰şŠG
  6
CONTINUOUS
 62
7
 10
0.0
 20
0.0
 30
0.0
 66
     1
  0
VERTEX
  8
‰şŠG
 10
-219.877644
 20
627.691083
 30
0.000000
  0
VERTEX
  8
‰şŠG
 10
-168.936849
 20
627.691083
 30
0.000000
  0
VERTEX
  8
‰şŠG
 10
-168.936849
 20
610.158966
 30
0.000000
  0
VERTEX
  8
‰şŠG
 10
-219.877644
 20
610.158966
 30
0.000000
  0
VERTEX
  8
‰şŠG
 10
-219.877644
 20
627.691083
 30
0.000000
  0
SEQEND
  0
LINE
  8
‰şŠG
  6
CONTINUOUS
 62
7
 10
-168.936849
 20
617.894436
 30
0.000000
 11
-127.115105
 21
609.915444
 31
0.000000
  0
LINE
  8
‰şŠG
  6
CONTINUOUS
 62
7
 10
-127.115105
 20
609.915444
 30
0.000000
 11
-121.417513
 21
600.377399
 31
0.000000
  0
LINE
  8
‰şŠG
  6
CONTINUOUS
 62
7
 10
-121.417513
 20
600.377399
 30
0.000000
 11
-107.743065
 21
604.981994
 31
0.000000
  0
LINE
  8
‰şŠG
  6
CONTINUOUS
 62
7
 10
-107.743065
 20
604.981994
 30
0.000000
 11
-74.696861
 21
583.274816
 31
0.000000
  0
LINE
  8
‰şŠG
  6
CONTINUOUS
 62
7
 10
-74.696861
 20
583.274816
 30
0.000000
 11
-95.437495
 21
506.215173
 31
0.000000
  0
POLYLINE
  8
‰şŠG
  6
CONTINUOUS
 62
7
 10
0.0
 20
0.0
 30
0.0
 66
     1
  0
VERTEX
  8
‰şŠG
 10
8.474219
 20
662.785252
 30
0.000000
  0
VERTEX
  8
‰şŠG
 10
-22.043451
 20
662.785252
 30
0.000000
  0
VERTEX
  8
‰şŠG
 10
-22.043451
 20
649.188177
 30
0.000000
  0
SEQEND
  0
LINE
  8
‰şŠG
  6
CONTINUOUS
 62
7
 10
35.108204
 20
601.332483
 30
0.000000
 11
2.886152
 21
562.969570
 31
0.000000
  0
LINE
  8
‰şŠG
  6
CONTINUOUS
 62
7
 10
2.886152
 20
562.969570
 30
0.000000
 11
3.292045
 21
520.090361
 31
0.000000
  0
LINE
  8
‰şŠG
  6
CONTINUOUS
 62
7
 10
3.292045
 20
520.090361
 30
0.000000
 11
70.673340
 21
482.483196
 31
0.000000
  0
LINE
  8
‰şŠG
  6
CONTINUOUS
 62
7
 10
70.673340
 20
482.483196
 30
0.000000
 11
97.869564
 21
496.541977
 31
0.000000
  0
LINE
  8
‰şŠG
  6
CONTINUOUS
 62
7
 10
97.869564
 20
496.541977
 30
0.000000
 11
130.342392
 21
490.215576
 31
0.000000
  0
LINE
  8
‰şŠG
  6
CONTINUOUS
 62
7
 10
130.342392
 20
717.083325
 30
0.000000
 11
-36.487134
 21
642.752828
 31
0.000000
  0
LINE
  8
‰şŠG
  6
CONTINUOUS
 62
7
 10
-36.487134
 20
642.752828
 30
0.000000
 11
15.875283
 21
603.388441
 31
0.000000
  0
LINE
  8
‰şŠG
  6
CONTINUOUS
 62
7
 10
15.875283
 20
603.388441
 30
0.000000
 11
48.754288
 21
599.873746
 31
0.000000
  0
LINE
  8
‰şŠG
  6
CONTINUOUS
 62
7
 10
48.754288
 20
599.873746
 30
0.000000
 11
84.068363
 21
605.848652
 31
0.000000
  0
LINE
  8
‰şŠG
  6
CONTINUOUS
 62
7
 10
84.068363
 20
605.848652
 30
0.000000
 11
120.231832
 21
614.716000
 31
0.000000
  0
LINE
  8
‰şŠG
  6
CONTINUOUS
 62
7
 10
130.342392
 20
602.808263
 30
0.000000
 11
120.968695
 21
601.184990
 31
0.000000
  0
LINE
  8
‰şŠG
  6
CONTINUOUS
 62
7
 10
120.968695
 20
601.184990
 30
0.000000
 11
104.465532
 21
592.069144
 31
0.000000
  0
LINE
  8
‰şŠG
  6
CONTINUOUS
 62
7
 10
104.465532
 20
592.069144
 30
0.000000
 11
95.929255
 21
583.692461
 31
0.000000
  0
LINE
  8
‰şŠG
  6
CONTINUOUS
 62
7
 10
95.929255
 20
583.692461
 30
0.000000
 11
102.758219
 21
569.649237
 31
0.000000
  0
LINE
  8
‰şŠG
  6
CONTINUOUS
 62
7
 10
102.758219
 20
569.649237
 30
0.000000
 11
130.358343
 21
565.707283
 31
0.000000
  0
LINE
  8
‰şŠG
  6
CONTINUOUS
 62
7
 10
115.942354
 20
567.766229
 30
0.000000
 11
117.167308
 21
562.455381
 31
0.000000
  0
LINE
  8
‰şŠG
  6
CONTINUOUS
 62
7
 10
117.167308
 20
562.455381
 30
0.000000
 11
128.053625
 21
557.906835
 31
0.000000
  0
LINE
  8
‰şŠG
  6
CONTINUOUS
 62
7
 10
144.742429
 20
567.766229
 30
0.000000
 11
143.517475
 21
562.455381
 31
0.000000
  0
LINE
  8
‰şŠG
  6
CONTINUOUS
 62
7
 10
130.342392
 20
555.206625
 30
0.000000
 11
128.053625
 21
557.906835
 31
0.000000
  0
LINE
  8
‰şŠG
  6
CONTINUOUS
 62
7
 10
143.517475
 20
562.455381
 30
0.000000
 11
132.631159
 21
557.906835
 31
0.000000
  0
LINE
  8
‰şŠG
  6
CONTINUOUS
 62
7
 10
130.342392
 20
555.206625
 30
0.000000
 11
132.631159
 21
557.906835
 31
0.000000
  0
LINE
  8
‰şŠG
  6
CONTINUOUS
 62
7
 10
225.576580
 20
601.332483
 30
0.000000
 11
257.798631
 21
562.969570
 31
0.000000
  0
LINE
  8
‰şŠG
  6
CONTINUOUS
 62
7
 10
257.798631
 20
562.969570
 30
0.000000
 11
257.392739
 21
520.090361
 31
0.000000
  0
LINE
  8
‰şŠG
  6
CONTINUOUS
 62
7
 10
257.392739
 20
520.090361
 30
0.000000
 11
190.011444
 21
482.483196
 31
0.000000
  0
LINE
  8
‰şŠG
  6
CONTINUOUS
 62
7
 10
190.011444
 20
482.483196
 30
0.000000
 11
162.815219
 21
496.541977
 31
0.000000
  0
LINE
  8
‰şŠG
  6
CONTINUOUS
 62
7
 10
162.815219
 20
496.541977
 30
0.000000
 11
130.342392
 21
490.215576
 31
0.000000
  0
LINE
  8
‰şŠG
  6
CONTINUOUS
 62
7
 10
130.342392
 20
717.083325
 30
0.000000
 11
297.171917
 21
642.752828
 31
0.000000
  0
LINE
  8
‰şŠG
  6
CONTINUOUS
 62
7
 10
297.171917
 20
642.752828
 30
0.000000
 11
244.809500
 21
603.388441
 31
0.000000
  0
LINE
  8
‰şŠG
  6
CONTINUOUS
 62
7
 10
244.809500
 20
603.388441
 30
0.000000
 11
211.930496
 21
599.873746
 31
0.000000
  0
LINE
  8
‰şŠG
  6
CONTINUOUS
 62
7
 10
211.930496
 20
599.873746
 30
0.000000
 11
176.616420
 21
605.848652
 31
0.000000
  0
LINE
  8
‰şŠG
  6
CONTINUOUS
 62
7
 10
176.616420
 20
605.848652
 30
0.000000
 11
140.452951
 21
614.716000
 31
0.000000
  0
LINE
  8
‰şŠG
  6
CONTINUOUS
 62
7
 10
130.342392
 20
602.808263
 30
0.000000
 11
139.716088
 21
601.184990
 31
0.000000
  0
LINE
  8
‰şŠG
  6
CONTINUOUS
 62
7
 10
139.716088
 20
601.184990
 30
0.000000
 11
156.219252
 21
592.069144
 31
0.000000
  0
LINE
  8
‰şŠG
  6
CONTINUOUS
 62
7
 10
156.219252
 20
592.069144
 30
0.000000
 11
164.755528
 21
583.692461
 31
0.000000
  0
LINE
  8
‰şŠG
  6
CONTINUOUS
 62
7
 10
164.755528
 20
583.692461
 30
0.000000
 11
157.926564
 21
569.649237
 31
0.000000
  0
LINE
  8
‰şŠG
  6
CONTINUOUS
 62
7
 10
157.926564
 20
569.649237
 30
0.000000
 11
130.326441
 21
565.707283
 31
0.000000
  0
POLYLINE
  8
‰şŠG
  6
CONTINUOUS
 62
7
 10
0.0
 20
0.0
 30
0.0
 66
     1
  0
VERTEX
  8
‰şŠG
 10
-22.043451
 20
631.894530
 30
0.000000
  0
VERTEX
  8
‰şŠG
 10
-22.043451
 20
461.313315
 30
0.000000
  0
VERTEX
  8
‰şŠG
 10
273.251776
 20
461.313315
 30
0.000000
  0
VERTEX
  8
‰şŠG
 10
273.251776
 20
624.770433
 30
0.000000
  0
SEQEND
  0
POLYLINE
  8
‰şŠG
  6
CONTINUOUS
 62
7
 10
0.0
 20
0.0
 30
0.0
 66
     1
  0
VERTEX
  8
‰şŠG
 10
273.251776
 20
653.410390
 30
0.000000
  0
VERTEX
  8
‰şŠG
 10
273.251776
 20
662.785252
 30
0.000000
  0
VERTEX
  8
‰şŠG
 10
252.210564
 20
662.785252
 30
0.000000
  0
SEQEND
  0
LINE
  8
‰şŠG
  6
CONTINUOUS
 62
7
 10
108.163854
 20
677.009978
 30
0.000000
 11
122.791977
 21
601.500733
 31
0.000000
  0
LINE
  8
‰şŠG
  6
CONTINUOUS
 62
7
 10
152.520930
 20
677.009978
 30
0.000000
 11
137.892807
 21
601.500733
 31
0.000000
  0
LINE
  8
‰şŠG
  6
CONTINUOUS
 62
7
 10
108.163854
 20
677.009978
 30
0.000000
 11
152.520930
 21
677.009978
 31
0.000000
  0
ENDSEC
  0
EOF
