  0
SECTION
  2
HEADER
  9
$INSBASE
 10
0.0
 20
0.0
 30
0.0
  9
$EXTMIN
 10
-288.322876
 20
-200.000000
 30
0.000000
  9
$EXTMAX
 10
288.322876
 20
200.000000
 30
0.000000
  9
$LIMMIN
 10
0.000000
 20
0.000000
  9
$LIMMAX
 10
0.000000
 20
0.000000
  9
$LTSCALE
 40
0.000000
  0
ENDSEC
  0
SECTION
  2
TABLES
  0
TABLE
  2
LTYPE
 70
    25
  0
LTYPE
  2
CONTINUOUS
 70
    64
  3
Solid line
 72
    65
 73
     0
 40
0.00
  0
LTYPE
  2
BORDER
 70
    64
  3
__ __ . __ __ . __ __ . __ __ . __ __ . __ __ .
 72
    65
 73
     6
 40
0.25
 49
0.50
 49
-0.25
 49
0.50
 49
-0.25
 49
0.00
 49
-0.25
  0
LTYPE
  2
BORDER2
 70
    64
  3
__.__.__.__.__.__.__.__.__.__.__.__.__.__.__.__
 72
    65
 73
     6
 40
0.13
 49
0.25
 49
-0.13
 49
0.25
 49
-0.13
 49
0.00
 49
-0.13
  0
LTYPE
  2
BORDERX2
 70
    64
  3
____  ____  .  ____  ____  .  ____  ____  .  __
 72
    65
 73
     6
 40
0.50
 49
1.00
 49
-0.50
 49
1.00
 49
-0.50
 49
0.00
 49
-0.50
  0
LTYPE
  2
CENTER
 70
    64
  3
____ _ ____ _ ____ _ ____ _ ____ _ ____ _ ____ 
 72
    65
 73
     4
 40
1.00
 49
1.25
 49
-0.25
 49
0.25
 49
-0.25
  0
LTYPE
  2
CENTER2
 70
    64
  3
___ _ ___ _ ___ _ ___ _ ___ _ ___ _ ___ _ ___ _
 72
    65
 73
     4
 40
0.63
 49
0.75
 49
-0.13
 49
0.13
 49
-0.13
  0
LTYPE
  2
CENTERX2
 70
    64
  3
________  __  ________  __  ________  __  _____
 72
    65
 73
     4
 40
2.00
 49
2.50
 49
-0.50
 49
0.50
 49
-0.50
  0
LTYPE
  2
DASHDOT
 70
    64
  3
__ . __ . __ . __ . __ . __ . __ . __ . __ . __
 72
    65
 73
     4
 40
0.00
 49
0.50
 49
-0.25
 49
0.00
 49
-0.25
  0
LTYPE
  2
DASHDOT2
 70
    64
  3
_._._._._._._._._._._._._._._._._._._._._._._._
 72
    65
 73
     4
 40
0.00
 49
0.25
 49
-0.13
 49
0.00
 49
-0.13
  0
LTYPE
  2
DASHDOTX2
 70
    64
  3
____  .  ____  .  ____  .  ____  .  ____  .  __
 72
    65
 73
     4
 40
0.00
 49
1.00
 49
-0.50
 49
0.00
 49
-0.50
  0
LTYPE
  2
DASHED
 70
    64
  3
__ __ __ __ __ __ __ __ __ __ __ __ __ __ __ __
 72
    65
 73
     2
 40
0.25
 49
0.50
 49
-0.25
  0
LTYPE
  2
DASHED2
 70
    64
  3
_ _ _ _ _ _ _ _ _ _ _ _ _ _ _ _ _ _ _ _ _ _ _ _
 72
    65
 73
     2
 40
0.13
 49
0.25
 49
-0.13
  0
LTYPE
  2
DASHEDX2
 70
    64
  3
____  ____  ____  ____  ____  ____  ____  ____ 
 72
    65
 73
     2
 40
0.50
 49
1.00
 49
-0.50
  0
LTYPE
  2
DIVIDE
 70
    64
  3
____ . . ____ . . ____ . . ____ . . ____ . . __
 72
    65
 73
     6
 40
-0.25
 49
0.50
 49
-0.25
 49
0.00
 49
-0.25
 49
0.00
 49
-0.25
  0
LTYPE
  2
DIVIDE2
 70
    64
  3
__..__..__..__..__..__..__..__..__..__..__..__.
 72
    65
 73
     6
 40
-0.13
 49
0.25
 49
-0.13
 49
0.00
 49
-0.13
 49
0.00
 49
-0.13
  0
LTYPE
  2
DIVIDEX2
 70
    64
  3
________  .  .  ________  .  .  ________  .  . 
 72
    65
 73
     6
 40
-0.50
 49
1.00
 49
-0.50
 49
0.00
 49
-0.50
 49
0.00
 49
-0.50
  0
LTYPE
  2
DOT
 70
    64
  3
. . . . . . . . . . . . . . . . . . . . . . . .
 72
    65
 73
     2
 40
-0.25
 49
0.00
 49
-0.25
  0
LTYPE
  2
DOT2
 70
    64
  3
...............................................
 72
    65
 73
     2
 40
-0.13
 49
0.00
 49
-0.13
  0
LTYPE
  2
DOTX2
 70
    64
  3
.  .  .  .  .  .  .  .  .  .  .  .  .  .  .  . 
 72
    65
 73
     2
 40
-0.50
 49
0.00
 49
-0.50
  0
LTYPE
  2
HIDDEN
 70
    64
  3
__ __ __ __ __ __ __ __ __ __ __ __ __ __ __ __
 72
    65
 73
     2
 40
0.13
 49
0.25
 49
-0.13
  0
LTYPE
  2
HIDDEN2
 70
    64
  3
_ _ _ _ _ _ _ _ _ _ _ _ _ _ _ _ _ _ _ _ _ _ _ _
 72
    65
 73
     2
 40
0.06
 49
0.13
 49
-0.06
  0
LTYPE
  2
HIDDENX2
 70
    64
  3
____ ____ ____ ____ ____ ____ ____ ____ ____ __
 72
    65
 73
     2
 40
0.25
 49
0.50
 49
-0.25
  0
LTYPE
  2
PHANTOM
 70
    64
  3
______  __  __  ______  __  __  ______  __  __ 
 72
    65
 73
     6
 40
1.00
 49
1.25
 49
-0.25
 49
0.25
 49
-0.25
 49
0.25
 49
-0.25
  0
LTYPE
  2
PHANTOM2
 70
    64
  3
___ _ _ ___ _ _ ___ _ _ ___ _ _ ___ _ _ ___ _ _
 72
    65
 73
     6
 40
0.50
 49
0.63
 49
-0.13
 49
0.13
 49
-0.13
 49
0.13
 49
-0.13
  0
LTYPE
  2
PHANTOMX2
 70
    64
  3
____________    ____    ____    ____________   
 72
    65
 73
     6
 40
2.00
 49
2.50
 49
-0.50
 49
0.50
 49
-0.50
 49
0.50
 49
-0.50
  0
ENDTAB
  0
TABLE
  2
LAYER
 70
     1
  0
LAYER
  2
‰şŠG
 70
     0
 62
     7
  6
CONTINUOUS
  0
ENDTAB
  0
TABLE
  2
STYLE
 70
     1
  0
STYLE
  2
STANDARD
 70
     0
 40
0.0
 41
1.0
 50
0.0
 71
     0
 42
0.2
  3
txt.shx
  4
bigfont.shx
  0
ENDTAB
  0
ENDSEC
  0
SECTION
  2
BLOCKS
  0
ENDSEC
  0
SECTION
  2
ENTITIES
  0
LINE
  8
‰şŠG
  6
CONTINUOUS
 62
7
 10
56.794406
 20
184.775907
 30
0.000000
 11
-19.748353
 21
200.000000
 31
0.000000
  0
LINE
  8
‰şŠG
  6
CONTINUOUS
 62
7
 10
121.684225
 20
141.421357
 30
0.000000
 11
56.794406
 21
184.775907
 31
0.000000
  0
LINE
  8
‰şŠG
  6
CONTINUOUS
 62
7
 10
165.042215
 20
76.536687
 30
0.000000
 11
121.684225
 21
141.421357
 31
0.000000
  0
LINE
  8
‰şŠG
  6
CONTINUOUS
 62
7
 10
178.500000
 20
8.000000
 30
0.000000
 11
165.042215
 21
76.536687
 31
0.000000
  0
LINE
  8
‰şŠG
  6
CONTINUOUS
 62
7
 10
165.042215
 20
-76.536686
 30
0.000000
 11
180.000000
 21
-1.500000
 31
0.000000
  0
LINE
  8
‰şŠG
  6
CONTINUOUS
 62
7
 10
121.684225
 20
-141.421356
 30
0.000000
 11
165.042215
 21
-76.536686
 31
0.000000
  0
LINE
  8
‰şŠG
  6
CONTINUOUS
 62
7
 10
56.794406
 20
-184.775906
 30
0.000000
 11
121.684225
 21
-141.421356
 31
0.000000
  0
LINE
  8
‰şŠG
  6
CONTINUOUS
 62
7
 10
-19.748353
 20
-200.000000
 30
0.000000
 11
56.794406
 21
-184.775906
 31
0.000000
  0
LINE
  8
‰şŠG
  6
CONTINUOUS
 62
7
 10
-96.291113
 20
-184.775906
 30
0.000000
 11
-19.748353
 21
-200.000000
 31
0.000000
  0
LINE
  8
‰şŠG
  6
CONTINUOUS
 62
7
 10
-161.180931
 20
-141.421356
 30
0.000000
 11
-96.291113
 21
-184.775906
 31
0.000000
  0
LINE
  8
‰şŠG
  6
CONTINUOUS
 62
7
 10
-204.538921
 20
-76.536686
 30
0.000000
 11
-161.180931
 21
-141.421356
 31
0.000000
  0
LINE
  8
‰şŠG
  6
CONTINUOUS
 62
7
 10
-212.375821
 20
-34.261442
 30
0.000000
 11
-204.538921
 21
-76.536686
 31
0.000000
  0
LINE
  8
‰şŠG
  6
CONTINUOUS
 62
7
 10
-219.764223
 20
-0.000000
 30
0.000000
 11
-214.000000
 21
-25.500000
 31
0.000000
  0
LINE
  8
‰şŠG
  6
CONTINUOUS
 62
7
 10
-204.538921
 20
76.536687
 30
0.000000
 11
-219.764223
 21
-0.000000
 31
0.000000
  0
LINE
  8
‰şŠG
  6
CONTINUOUS
 62
7
 10
-161.180931
 20
141.421357
 30
0.000000
 11
-204.538921
 21
76.536687
 31
0.000000
  0
LINE
  8
‰şŠG
  6
CONTINUOUS
 62
7
 10
-96.291113
 20
184.775907
 30
0.000000
 11
-161.180931
 21
141.421357
 31
0.000000
  0
LINE
  8
‰şŠG
  6
CONTINUOUS
 62
7
 10
-19.748353
 20
200.000000
 30
0.000000
 11
-96.291113
 21
184.775907
 31
0.000000
  0
LINE
  8
‰şŠG
  6
CONTINUOUS
 62
7
 10
-71.135499
 20
-120.342551
 30
0.000000
 11
-27.928748
 21
-128.936226
 31
0.000000
  0
LINE
  8
‰şŠG
  6
CONTINUOUS
 62
7
 10
-114.699417
 20
-91.236380
 30
0.000000
 11
-71.135499
 21
-120.342551
 31
0.000000
  0
LINE
  8
‰şŠG
  6
CONTINUOUS
 62
7
 10
-143.807897
 20
-47.675918
 30
0.000000
 11
-114.699417
 21
-91.236380
 31
0.000000
  0
LINE
  8
‰şŠG
  6
CONTINUOUS
 62
7
 10
-153.000000
 20
-5.500000
 30
0.000000
 11
-143.807897
 21
-47.675918
 31
0.000000
  0
LINE
  8
‰şŠG
  6
CONTINUOUS
 62
7
 10
-143.807897
 20
55.090218
 30
0.000000
 11
-154.029436
 21
3.707150
 31
0.000000
  0
LINE
  8
‰şŠG
  6
CONTINUOUS
 62
7
 10
-114.699417
 20
98.650681
 30
0.000000
 11
-143.807897
 21
55.090218
 31
0.000000
  0
LINE
  8
‰şŠG
  6
CONTINUOUS
 62
7
 10
-71.135499
 20
127.756851
 30
0.000000
 11
-114.699417
 21
98.650681
 31
0.000000
  0
LINE
  8
‰şŠG
  6
CONTINUOUS
 62
7
 10
-56.679242
 20
130.632151
 30
0.000000
 11
-71.135499
 21
127.756851
 31
0.000000
  0
POLYLINE
  8
‰şŠG
  6
CONTINUOUS
 62
7
 10
0.0
 20
0.0
 30
0.0
 66
     1
  0
VERTEX
  8
‰şŠG
 10
-113.649128
 20
61.150760
 30
0.000000
  0
VERTEX
  8
‰şŠG
 10
-123.358677
 20
46.620546
 30
0.000000
  0
VERTEX
  8
‰şŠG
 10
-131.895359
 20
3.707150
 30
0.000000
  0
VERTEX
  8
‰şŠG
 10
-123.358677
 20
-39.206246
 30
0.000000
  0
VERTEX
  8
‰şŠG
 10
-99.048262
 20
-75.586467
 30
0.000000
  0
VERTEX
  8
‰şŠG
 10
-62.665154
 20
-99.894953
 30
0.000000
  0
VERTEX
  8
‰şŠG
 10
-19.748353
 20
-108.430958
 30
0.000000
  0
VERTEX
  8
‰şŠG
 10
23.168448
 20
-99.894953
 30
0.000000
  0
VERTEX
  8
‰şŠG
 10
59.551555
 20
-75.586467
 30
0.000000
  0
VERTEX
  8
‰şŠG
 10
83.861970
 20
-39.206246
 30
0.000000
  0
VERTEX
  8
‰şŠG
 10
85.296770
 20
-31.993597
 30
0.000000
  0
SEQEND
  0
LINE
  8
‰şŠG
  6
CONTINUOUS
 62
7
 10
104.311191
 20
55.090218
 30
0.000000
 11
90.607917
 21
75.596990
 31
0.000000
  0
LINE
  8
‰şŠG
  6
CONTINUOUS
 62
7
 10
113.500000
 20
7.000000
 30
0.000000
 11
104.311191
 21
55.090218
 31
0.000000
  0
LINE
  8
‰şŠG
  6
CONTINUOUS
 62
7
 10
104.311191
 20
-47.675918
 30
0.000000
 11
114.000000
 21
-2.000000
 31
0.000000
  0
LINE
  8
‰şŠG
  6
CONTINUOUS
 62
7
 10
75.202711
 20
-91.236380
 30
0.000000
 11
104.311191
 21
-47.675918
 31
0.000000
  0
LINE
  8
‰şŠG
  6
CONTINUOUS
 62
7
 10
31.638792
 20
-120.342551
 30
0.000000
 11
75.202711
 21
-91.236380
 31
0.000000
  0
LINE
  8
‰şŠG
  6
CONTINUOUS
 62
7
 10
-7.171496
 20
-128.061785
 30
0.000000
 11
31.638792
 21
-120.342551
 31
0.000000
  0
POLYLINE
  8
‰şŠG
  6
CONTINUOUS
 62
7
 10
0.0
 20
0.0
 30
0.0
 66
     1
  0
VERTEX
  8
‰şŠG
 10
-69.933328
 20
-2.886689
 30
0.000000
  0
VERTEX
  8
‰şŠG
 10
-26.858418
 20
-31.462648
 30
0.000000
  0
VERTEX
  8
‰şŠG
 10
25.128433
 20
-32.947152
 30
0.000000
  0
VERTEX
  8
‰şŠG
 10
64.118512
 20
-8.824587
 30
0.000000
  0
VERTEX
  8
‰şŠG
 10
94.792097
 20
88.931947
 30
0.000000
  0
VERTEX
  8
‰şŠG
 10
77.777911
 20
134.137260
 30
0.000000
  0
VERTEX
  8
‰şŠG
 10
36.639704
 20
161.888970
 30
0.000000
  0
VERTEX
  8
‰şŠG
 10
-14.233081
 20
163.373414
 30
0.000000
  0
VERTEX
  8
‰şŠG
 10
-53.594594
 20
139.250849
 30
0.000000
  0
VERTEX
  8
‰şŠG
 10
-88.128644
 20
42.760588
 30
0.000000
  0
VERTEX
  8
‰şŠG
 10
-69.933328
 20
-2.886689
 30
0.000000
  0
SEQEND
  0
POLYLINE
  8
‰şŠG
  6
CONTINUOUS
 62
7
 10
0.0
 20
0.0
 30
0.0
 66
     1
  0
VERTEX
  8
‰şŠG
 10
-69.365564
 20
95.185786
 30
0.000000
  0
VERTEX
  8
‰şŠG
 10
-50.971497
 20
49.039892
 30
0.000000
  0
VERTEX
  8
‰şŠG
 10
-7.896587
 20
20.463933
 30
0.000000
  0
VERTEX
  8
‰şŠG
 10
44.090264
 20
18.979429
 30
0.000000
  0
VERTEX
  8
‰şŠG
 10
79.768958
 20
41.053290
 30
0.000000
  0
SEQEND
  0
POLYLINE
  8
‰şŠG
  6
CONTINUOUS
 62
7
 10
0.0
 20
0.0
 30
0.0
 66
     1
  0
VERTEX
  8
‰şŠG
 10
-84.507326
 20
52.878772
 30
0.000000
  0
VERTEX
  8
‰şŠG
 10
-66.092394
 20
6.680535
 30
0.000000
  0
VERTEX
  8
‰şŠG
 10
-23.017484
 20
-21.895424
 30
0.000000
  0
VERTEX
  8
‰şŠG
 10
28.969366
 20
-23.379928
 30
0.000000
  0
VERTEX
  8
‰şŠG
 10
66.918368
 20
0.098538
 30
0.000000
  0
SEQEND
  0
POLYLINE
  8
‰şŠG
  6
CONTINUOUS
 62
7
 10
0.0
 20
0.0
 30
0.0
 66
     1
  0
VERTEX
  8
‰şŠG
 10
-58.455340
 20
125.669625
 30
0.000000
  0
VERTEX
  8
‰şŠG
 10
-102.016056
 20
97.669058
 30
0.000000
  0
VERTEX
  8
‰şŠG
 10
-121.525097
 20
36.426682
 30
0.000000
  0
VERTEX
  8
‰şŠG
 10
-96.767627
 20
-26.624372
 30
0.000000
  0
VERTEX
  8
‰şŠG
 10
-38.990785
 20
-65.869534
 30
0.000000
  0
VERTEX
  8
‰şŠG
 10
30.791475
 20
-67.619315
 30
0.000000
  0
VERTEX
  8
‰şŠG
 10
86.912318
 20
-30.937642
 30
0.000000
  0
VERTEX
  8
‰şŠG
 10
105.209422
 20
28.957960
 30
0.000000
  0
VERTEX
  8
‰şŠG
 10
88.435810
 20
68.674496
 30
0.000000
  0
SEQEND
  0
POLYLINE
  8
‰şŠG
  6
CONTINUOUS
 62
7
 10
0.0
 20
0.0
 30
0.0
 66
     1
  0
VERTEX
  8
‰şŠG
 10
25.280324
 20
-97.537858
 30
0.000000
  0
VERTEX
  8
‰şŠG
 10
12.366498
 20
-95.872552
 30
0.000000
  0
VERTEX
  8
‰şŠG
 10
14.449328
 20
-90.460248
 30
0.000000
  0
VERTEX
  8
‰şŠG
 10
19.864826
 20
-86.990861
 30
0.000000
  0
VERTEX
  8
‰şŠG
 10
27.755765
 20
-85.878540
 30
0.000000
  0
VERTEX
  8
‰şŠG
 10
32.362038
 20
-86.990861
 30
0.000000
  0
VERTEX
  8
‰şŠG
 10
25.280324
 20
-97.537858
 30
0.000000
  0
SEQEND
  0
POLYLINE
  8
‰şŠG
  6
CONTINUOUS
 62
7
 10
0.0
 20
0.0
 30
0.0
 66
     1
  0
VERTEX
  8
‰şŠG
 10
-31.615912
 20
-106.070541
 30
0.000000
  0
VERTEX
  8
‰şŠG
 10
-18.470626
 20
-187.590085
 30
0.000000
  0
VERTEX
  8
‰şŠG
 10
-2.805717
 20
-105.061126
 30
0.000000
  0
SEQEND
  0
POLYLINE
  8
‰şŠG
  6
CONTINUOUS
 62
7
 10
0.0
 20
0.0
 30
0.0
 66
     1
  0
VERTEX
  8
‰şŠG
 10
-62.221576
 20
-97.537858
 30
0.000000
  0
VERTEX
  8
‰şŠG
 10
-49.307751
 20
-95.872552
 30
0.000000
  0
VERTEX
  8
‰şŠG
 10
-51.390580
 20
-90.460248
 30
0.000000
  0
VERTEX
  8
‰şŠG
 10
-56.806078
 20
-86.990861
 30
0.000000
  0
VERTEX
  8
‰şŠG
 10
-64.697017
 20
-85.878540
 30
0.000000
  0
VERTEX
  8
‰şŠG
 10
-69.303291
 20
-86.990861
 30
0.000000
  0
VERTEX
  8
‰şŠG
 10
-62.221576
 20
-97.537858
 30
0.000000
  0
SEQEND
  0
POLYLINE
  8
‰şŠG
  6
CONTINUOUS
 62
7
 10
0.0
 20
0.0
 30
0.0
 66
     1
  0
VERTEX
  8
‰şŠG
 10
-148.623799
 20
7.072673
 30
0.000000
  0
VERTEX
  8
‰şŠG
 10
-233.053801
 20
-34.433365
 30
0.000000
  0
VERTEX
  8
‰şŠG
 10
-239.548805
 20
-28.016810
 30
0.000000
  0
VERTEX
  8
‰şŠG
 10
-257.619642
 20
-32.194587
 30
0.000000
  0
VERTEX
  8
‰şŠG
 10
-279.949320
 20
-55.130939
 30
0.000000
  0
VERTEX
  8
‰şŠG
 10
-288.322876
 20
-71.868291
 30
0.000000
  0
VERTEX
  8
‰şŠG
 10
-281.500001
 20
-102.553455
 30
0.000000
  0
VERTEX
  8
‰şŠG
 10
-261.341275
 20
-124.559981
 30
0.000000
  0
VERTEX
  8
‰şŠG
 10
-257.619642
 20
-111.542055
 30
0.000000
  0
VERTEX
  8
‰şŠG
 10
-264.752771
 20
-97.594242
 30
0.000000
  0
VERTEX
  8
‰şŠG
 10
-239.631986
 20
-99.763916
 30
0.000000
  0
VERTEX
  8
‰şŠG
 10
-234.979945
 20
-93.564915
 30
0.000000
  0
VERTEX
  8
‰şŠG
 10
-242.112957
 20
-88.295740
 30
0.000000
  0
VERTEX
  8
‰şŠG
 10
-254.208263
 20
-86.126066
 30
0.000000
  0
VERTEX
  8
‰şŠG
 10
-257.619642
 20
-77.447428
 30
0.000000
  0
VERTEX
  8
‰şŠG
 10
-252.347447
 20
-73.108139
 30
0.000000
  0
VERTEX
  8
‰şŠG
 10
-243.663637
 20
-83.646429
 30
0.000000
  0
VERTEX
  8
‰şŠG
 10
-232.543330
 20
-86.919414
 30
0.000000
  0
VERTEX
  8
‰şŠG
 10
-224.928643
 20
-80.679113
 30
0.000000
  0
VERTEX
  8
‰şŠG
 10
-240.767112
 20
-64.697740
 30
0.000000
  0
VERTEX
  8
‰şŠG
 10
-233.761637
 20
-50.238484
 30
0.000000
  0
VERTEX
  8
‰şŠG
 10
-226.147068
 20
-48.259830
 30
0.000000
  0
VERTEX
  8
‰şŠG
 10
-226.299312
 20
-41.106271
 30
0.000000
  0
VERTEX
  8
‰şŠG
 10
-144.666696
 20
-0.975437
 30
0.000000
  0
VERTEX
  8
‰şŠG
 10
-142.732215
 20
4.658985
 30
0.000000
  0
VERTEX
  8
‰şŠG
 10
-148.623799
 20
7.072673
 30
0.000000
  0
SEQEND
  0
POLYLINE
  8
‰şŠG
  6
CONTINUOUS
 62
7
 10
0.0
 20
0.0
 30
0.0
 66
     1
  0
VERTEX
  8
‰şŠG
 10
104.290543
 20
7.953581
 30
0.000000
  0
VERTEX
  8
‰şŠG
 10
102.398902
 20
3.170513
 30
0.000000
  0
VERTEX
  8
‰şŠG
 10
104.290543
 20
-1.524029
 30
0.000000
  0
VERTEX
  8
‰şŠG
 10
203.064313
 20
-1.524029
 30
0.000000
  0
VERTEX
  8
‰şŠG
 10
202.858273
 20
-9.005086
 30
0.000000
  0
VERTEX
  8
‰şŠG
 10
216.673093
 20
-8.537059
 30
0.000000
  0
VERTEX
  8
‰şŠG
 10
213.395016
 20
-19.769649
 30
0.000000
  0
VERTEX
  8
‰şŠG
 10
218.780512
 20
-27.258023
 30
0.000000
  0
VERTEX
  8
‰şŠG
 10
227.443968
 20
-26.555982
 30
0.000000
  0
VERTEX
  8
‰şŠG
 10
235.170897
 20
-14.855364
 30
0.000000
  0
VERTEX
  8
‰şŠG
 10
234.936765
 20
-5.026855
 30
0.000000
  0
VERTEX
  8
‰şŠG
 10
243.131958
 20
-4.558889
 30
0.000000
  0
VERTEX
  8
‰şŠG
 10
245.239377
 20
-13.919310
 30
0.000000
  0
VERTEX
  8
‰şŠG
 10
240.790525
 20
-27.024009
 30
0.000000
  0
VERTEX
  8
‰şŠG
 10
243.834470
 20
-35.214423
 30
0.000000
  0
VERTEX
  8
‰şŠG
 10
250.624755
 20
-34.512383
 30
0.000000
  0
VERTEX
  8
‰şŠG
 10
260.693236
 20
-22.577751
 30
0.000000
  0
VERTEX
  8
‰şŠG
 10
261.863893
 20
-12.749242
 30
0.000000
  0
VERTEX
  8
‰şŠG
 10
282.000853
 20
-41.766742
 30
0.000000
  0
VERTEX
  8
‰şŠG
 10
288.322876
 20
-38.724566
 30
0.000000
  0
VERTEX
  8
‰şŠG
 10
285.044799
 20
-8.303045
 30
0.000000
  0
VERTEX
  8
‰şŠG
 10
274.273924
 20
10.417919
 30
0.000000
  0
VERTEX
  8
‰şŠG
 10
248.049191
 20
20.948408
 30
0.000000
  0
VERTEX
  8
‰şŠG
 10
224.868403
 20
15.800170
 30
0.000000
  0
VERTEX
  8
‰şŠG
 10
203.560785
 20
16.502211
 30
0.000000
  0
VERTEX
  8
‰şŠG
 10
203.325342
 20
7.953581
 30
0.000000
  0
VERTEX
  8
‰şŠG
 10
104.290543
 20
7.953581
 30
0.000000
  0
SEQEND
  0
LINE
  8
‰şŠG
  6
CONTINUOUS
 62
7
 10
-226.299312
 20
-41.106271
 30
0.000000
 11
-233.053801
 21
-34.433365
 31
0.000000
  0
LINE
  8
‰şŠG
  6
CONTINUOUS
 62
7
 10
203.064313
 20
-1.524029
 30
0.000000
 11
203.325342
 21
7.953581
 31
0.000000
  0
ENDSEC
  0
EOF
