  0
SECTION
  2
HEADER
  9
$ACADVER
  1
AC1015
  9
$ACADMAINTVER
 70
     6
  9
$DWGCODEPAGE
  3
ANSI_932
  9
$INSBASE
 10
0.0
 20
0.0
 30
0.0
  9
$EXTMIN
 10
1.000000000000000E+20
 20
1.000000000000000E+20
 30
1.000000000000000E+20
  9
$EXTMAX
 10
-1.000000000000000E+20
 20
-1.000000000000000E+20
 30
-1.000000000000000E+20
  9
$LIMMIN
 10
0.0
 20
0.0
  9
$LIMMAX
 10
500.0
 20
353.6585388183594
  9
$ORTHOMODE
 70
     0
  9
$REGENMODE
 70
     1
  9
$FILLMODE
 70
     1
  9
$QTEXTMODE
 70
     0
  9
$MIRRTEXT
 70
     1
  9
$LTSCALE
 40
11.0
  9
$ATTMODE
 70
     1
  9
$TEXTSIZE
 40
1.5
  9
$TRACEWID
 40
0.05
  9
$TEXTSTYLE
  7
Standard
  9
$CLAYER
  8
0
  9
$CELTYPE
  6
ByLayer
  9
$CECOLOR
 62
   256
  9
$CELTSCALE
 40
1.0
  9
$DISPSILH
 70
     0
  9
$DIMSCALE
 40
1.0
  9
$DIMASZ
 40
0.18
  9
$DIMEXO
 40
0.0625
  9
$DIMDLI
 40
0.38
  9
$DIMRND
 40
0.0
  9
$DIMDLE
 40
0.0
  9
$DIMEXE
 40
0.18
  9
$DIMTP
 40
0.0
  9
$DIMTM
 40
0.0
  9
$DIMTXT
 40
0.18
  9
$DIMCEN
 40
0.09
  9
$DIMTSZ
 40
0.0
  9
$DIMTOL
 70
     0
  9
$DIMLIM
 70
     0
  9
$DIMTIH
 70
     1
  9
$DIMTOH
 70
     1
  9
$DIMSE1
 70
     0
  9
$DIMSE2
 70
     0
  9
$DIMTAD
 70
     0
  9
$DIMZIN
 70
     0
  9
$DIMBLK
  1

  9
$DIMASO
 70
     1
  9
$DIMSHO
 70
     1
  9
$DIMPOST
  1

  9
$DIMAPOST
  1

  9
$DIMALT
 70
     0
  9
$DIMALTD
 70
     2
  9
$DIMALTF
 40
25.4
  9
$DIMLFAC
 40
1.0
  9
$DIMTOFL
 70
     0
  9
$DIMTVP
 40
0.0
  9
$DIMTIX
 70
     0
  9
$DIMSOXD
 70
     0
  9
$DIMSAH
 70
     0
  9
$DIMBLK1
  1

  9
$DIMBLK2
  1

  9
$DIMSTYLE
  2
Standard
  9
$DIMCLRD
 70
     0
  9
$DIMCLRE
 70
     0
  9
$DIMCLRT
 70
     0
  9
$DIMTFAC
 40
1.0
  9
$DIMGAP
 40
0.09
  9
$DIMJUST
 70
     0
  9
$DIMSD1
 70
     0
  9
$DIMSD2
 70
     0
  9
$DIMTOLJ
 70
     1
  9
$DIMTZIN
 70
     0
  9
$DIMALTZ
 70
     0
  9
$DIMALTTZ
 70
     0
  9
$DIMUPT
 70
     0
  9
$DIMDEC
 70
     4
  9
$DIMTDEC
 70
     4
  9
$DIMALTU
 70
     2
  9
$DIMALTTD
 70
     2
  9
$DIMTXSTY
  7
Standard
  9
$DIMAUNIT
 70
     0
  9
$DIMADEC
 70
     0
  9
$DIMALTRND
 40
0.0
  9
$DIMAZIN
 70
     0
  9
$DIMDSEP
 70
    46
  9
$DIMATFIT
 70
     3
  9
$DIMFRAC
 70
     0
  9
$DIMLDRBLK
  1

  9
$DIMLUNIT
 70
     2
  9
$DIMLWD
 70
    -2
  9
$DIMLWE
 70
    -2
  9
$DIMTMOVE
 70
     0
  9
$LUNITS
 70
     2
  9
$LUPREC
 70
     4
  9
$SKETCHINC
 40
0.1
  9
$FILLETRAD
 40
0.5
  9
$AUNITS
 70
     0
  9
$AUPREC
 70
     0
  9
$MENU
  1
.
  9
$ELEVATION
 40
0.0
  9
$PELEVATION
 40
0.0
  9
$THICKNESS
 40
0.0
  9
$LIMCHECK
 70
     0
  9
$CHAMFERA
 40
0.5
  9
$CHAMFERB
 40
0.5
  9
$CHAMFERC
 40
1.0
  9
$CHAMFERD
 40
0.0
  9
$SKPOLY
 70
     0
  9
$TDCREATE
 40
2457291.246346007
  9
$TDUCREATE
 40
2457290.871346007
  9
$TDUPDATE
 40
2457291.246346019
  9
$TDUUPDATE
 40
2457290.871346019
  9
$TDINDWG
 40
0.0000000116
  9
$TDUSRTIMER
 40
0.0000000116
  9
$USRTIMER
 70
     1
  9
$ANGBASE
 50
0.0
  9
$ANGDIR
 70
     0
  9
$PDMODE
 70
     0
  9
$PDSIZE
 40
0.0
  9
$PLINEWID
 40
0.0
  9
$SPLFRAME
 70
     0
  9
$SPLINETYPE
 70
     6
  9
$SPLINESEGS
 70
     8
  9
$HANDSEED
  5
2D8
  9
$SURFTAB1
 70
     6
  9
$SURFTAB2
 70
     6
  9
$SURFTYPE
 70
     6
  9
$SURFU
 70
     6
  9
$SURFV
 70
     6
  9
$UCSBASE
  2

  9
$UCSNAME
  2

  9
$UCSORG
 10
0.0
 20
0.0
 30
0.0
  9
$UCSXDIR
 10
1.0
 20
0.0
 30
0.0
  9
$UCSYDIR
 10
0.0
 20
1.0
 30
0.0
  9
$UCSORTHOREF
  2

  9
$UCSORTHOVIEW
 70
     0
  9
$UCSORGTOP
 10
0.0
 20
0.0
 30
0.0
  9
$UCSORGBOTTOM
 10
0.0
 20
0.0
 30
0.0
  9
$UCSORGLEFT
 10
0.0
 20
0.0
 30
0.0
  9
$UCSORGRIGHT
 10
0.0
 20
0.0
 30
0.0
  9
$UCSORGFRONT
 10
0.0
 20
0.0
 30
0.0
  9
$UCSORGBACK
 10
0.0
 20
0.0
 30
0.0
  9
$PUCSBASE
  2

  9
$PUCSNAME
  2

  9
$PUCSORG
 10
0.0
 20
0.0
 30
0.0
  9
$PUCSXDIR
 10
1.0
 20
0.0
 30
0.0
  9
$PUCSYDIR
 10
0.0
 20
1.0
 30
0.0
  9
$PUCSORTHOREF
  2

  9
$PUCSORTHOVIEW
 70
     0
  9
$PUCSORGTOP
 10
0.0
 20
0.0
 30
0.0
  9
$PUCSORGBOTTOM
 10
0.0
 20
0.0
 30
0.0
  9
$PUCSORGLEFT
 10
0.0
 20
0.0
 30
0.0
  9
$PUCSORGRIGHT
 10
0.0
 20
0.0
 30
0.0
  9
$PUCSORGFRONT
 10
0.0
 20
0.0
 30
0.0
  9
$PUCSORGBACK
 10
0.0
 20
0.0
 30
0.0
  9
$USERI1
 70
     0
  9
$USERI2
 70
     0
  9
$USERI3
 70
     0
  9
$USERI4
 70
     0
  9
$USERI5
 70
     0
  9
$USERR1
 40
0.0
  9
$USERR2
 40
0.0
  9
$USERR3
 40
0.0
  9
$USERR4
 40
0.0
  9
$USERR5
 40
0.0
  9
$WORLDVIEW
 70
     1
  9
$SHADEDGE
 70
     3
  9
$SHADEDIF
 70
    70
  9
$TILEMODE
 70
     1
  9
$MAXACTVP
 70
    64
  9
$PINSBASE
 10
0.0
 20
0.0
 30
0.0
  9
$PLIMCHECK
 70
     0
  9
$PEXTMIN
 10
1.000000000000000E+20
 20
1.000000000000000E+20
 30
1.000000000000000E+20
  9
$PEXTMAX
 10
-1.000000000000000E+20
 20
-1.000000000000000E+20
 30
-1.000000000000000E+20
  9
$PLIMMIN
 10
0.0
 20
0.0
  9
$PLIMMAX
 10
12.0
 20
9.0
  9
$UNITMODE
 70
     0
  9
$VISRETAIN
 70
     1
  9
$PLINEGEN
 70
     0
  9
$PSLTSCALE
 70
     1
  9
$TREEDEPTH
 70
  3020
  9
$CMLSTYLE
  2
Standard
  9
$CMLJUST
 70
     0
  9
$CMLSCALE
 40
1.0
  9
$PROXYGRAPHICS
 70
     1
  9
$MEASUREMENT
 70
     0
  9
$CELWEIGHT
370
    -1
  9
$ENDCAPS
280
     0
  9
$JOINSTYLE
280
     0
  9
$LWDISPLAY
290
     0
  9
$INSUNITS
 70
     1
  9
$HYPERLINKBASE
  1

  9
$STYLESHEET
  1

  9
$XEDIT
290
     1
  9
$CEPSNTYPE
380
     0
  9
$PSTYLEMODE
290
     1
  9
$FINGERPRINTGUID
  2
{4A4655B4-D829-431E-8E79-A1B89CDECD61}
  9
$VERSIONGUID
  2
{FAEB1C32-E019-11D5-929B-00C0DF256EC4}
  9
$EXTNAMES
290
     1
  9
$PSVPSCALE
 40
0.0
  9
$OLESTARTUP
290
     0
  0
ENDSEC
  0
SECTION
  2
CLASSES
  0
CLASS
  1
ACDBDICTIONARYWDFLT
  2
AcDbDictionaryWithDefault
  3
ObjectDBX Classes
 90
        0
280
     0
281
     0
  0
CLASS
  1
VISUALSTYLE
  2
AcDbVisualStyle
  3
ObjectDBX Classes
 90
     4095
280
     0
281
     0
  0
CLASS
  1
MATERIAL
  2
AcDbMaterial
  3
ObjectDBX Classes
 90
     1153
280
     0
281
     0
  0
CLASS
  1
SCALE
  2
AcDbScale
  3
ObjectDBX Classes
 90
     1153
280
     0
281
     0
  0
CLASS
  1
DICTIONARYVAR
  2
AcDbDictionaryVar
  3
ObjectDBX Classes
 90
        0
280
     0
281
     0
  0
CLASS
  1
ACDBPLACEHOLDER
  2
AcDbPlaceHolder
  3
ObjectDBX Classes
 90
        0
280
     0
281
     0
  0
CLASS
  1
LAYOUT
  2
AcDbLayout
  3
ObjectDBX Classes
 90
        0
280
     0
281
     0
  0
ENDSEC
  0
SECTION
  2
TABLES
  0
TABLE
  2
VPORT
  5
8
330
0
100
AcDbSymbolTable
 70
     1
  0
VPORT
  5
29
330
8
100
AcDbSymbolTableRecord
100
AcDbViewportTableRecord
  2
*Active
 70
     0
 10
0.0
 20
0.0
 11
1.0
 21
1.0
 12
10.42990654205607
 22
4.5
 13
0.0
 23
0.0
 14
0.5
 24
0.5
 15
0.5
 25
0.5
 16
0.0
 26
0.0
 36
1.0
 17
0.0
 27
0.0
 37
0.0
 40
9.0
 41
1.972972972850329
 42
50.0
 43
0.0
 44
0.0
 50
0.0
 51
0.0
 71
     0
 72
   100
 73
     1
 74
     3
 75
     0
 76
     0
 77
     0
 78
     0
281
     0
 65
     1
110
0.0
120
0.0
130
0.0
111
1.0
121
0.0
131
0.0
112
0.0
122
1.0
132
0.0
 79
     0
146
0.0
  0
ENDTAB
  0
TABLE
  2
LTYPE
  5
5
330
0
100
AcDbSymbolTable
 70
    37
  0
LTYPE
  5
14
330
5
100
AcDbSymbolTableRecord
100
AcDbLinetypeTableRecord
  2
ByBlock
 70
     0
  3

 72
    65
 73
     0
 40
0.0
  0
LTYPE
  5
15
330
5
100
AcDbSymbolTableRecord
100
AcDbLinetypeTableRecord
  2
ByLayer
 70
     0
  3

 72
    65
 73
     0
 40
0.0
  0
LTYPE
  5
16
330
5
100
AcDbSymbolTableRecord
100
AcDbLinetypeTableRecord
  2
Continuous
 70
     0
  3
Solid line
 72
    65
 73
     0
 40
0.0
  0
LTYPE
  5
3F
330
5
100
AcDbSymbolTableRecord
100
AcDbLinetypeTableRecord
  2
dashed
 70
     0
  3
破線
 72
    65
 73
     2
 40
1.875
 49
1.5
 74
     0
 49
-0.375
 74
     0
  0
LTYPE
  5
40
330
5
100
AcDbSymbolTableRecord
100
AcDbLinetypeTableRecord
  2
dashed_spaced
 70
     0
  3
跳び破線
 72
    65
 73
     2
 40
3.0
 49
1.5
 74
     0
 49
-1.5
 74
     0
  0
LTYPE
  5
41
330
5
100
AcDbSymbolTableRecord
100
AcDbLinetypeTableRecord
  2
long_dashed_dotted
 70
     0
  3
一点長鎖線
 72
    65
 73
     4
 40
3.8125
 49
3.0
 74
     0
 49
-0.375
 74
     0
 49
0.0625
 74
     0
 49
-0.375
 74
     0
  0
LTYPE
  5
42
330
5
100
AcDbSymbolTableRecord
100
AcDbLinetypeTableRecord
  2
long_dashed_double-dotted
 70
     0
  3
二点長鎖線
 72
    65
 73
     6
 40
4.25
 49
3.0
 74
     0
 49
-0.375
 74
     0
 49
0.0625
 74
     0
 49
-0.375
 74
     0
 49
0.0625
 74
     0
 49
-0.375
 74
     0
  0
LTYPE
  5
43
330
5
100
AcDbSymbolTableRecord
100
AcDbLinetypeTableRecord
  2
long_dashed_triplicate-dotted
 70
     0
  3
三点長鎖線
 72
    65
 73
     8
 40
4.6875
 49
3.0
 74
     0
 49
-0.375
 74
     0
 49
0.0625
 74
     0
 49
-0.375
 74
     0
 49
0.0625
 74
     0
 49
-0.375
 74
     0
 49
0.0625
 74
     0
 49
-0.375
 74
     0
  0
LTYPE
  5
44
330
5
100
AcDbSymbolTableRecord
100
AcDbLinetypeTableRecord
  2
dotted
 70
     0
  3
点線
 72
    65
 73
     2
 40
0.4375
 49
0.0625
 74
     0
 49
-0.375
 74
     0
  0
LTYPE
  5
45
330
5
100
AcDbSymbolTableRecord
100
AcDbLinetypeTableRecord
  2
chain
 70
     0
  3
一点鎖線
 72
    65
 73
     4
 40
4.625
 49
3.0
 74
     0
 49
-0.375
 74
     0
 49
0.875
 74
     0
 49
-0.375
 74
     0
  0
LTYPE
  5
46
330
5
100
AcDbSymbolTableRecord
100
AcDbLinetypeTableRecord
  2
chain_double_dash
 70
     0
  3
二点鎖線
 72
    65
 73
     6
 40
5.875
 49
3.0
 74
     0
 49
-0.375
 74
     0
 49
0.875
 74
     0
 49
-0.375
 74
     0
 49
0.875
 74
     0
 49
-0.375
 74
     0
  0
LTYPE
  5
47
330
5
100
AcDbSymbolTableRecord
100
AcDbLinetypeTableRecord
  2
dashed_dotted
 70
     0
  3
一点短鎖線
 72
    65
 73
     4
 40
2.3125
 49
1.5
 74
     0
 49
-0.375
 74
     0
 49
0.0625
 74
     0
 49
-0.375
 74
     0
  0
LTYPE
  5
48
330
5
100
AcDbSymbolTableRecord
100
AcDbLinetypeTableRecord
  2
double-dashed_dotted
 70
     0
  3
一点二短鎖線
 72
    65
 73
     6
 40
4.1875
 49
1.5
 74
     0
 49
-0.375
 74
     0
 49
1.5
 74
     0
 49
-0.375
 74
     0
 49
0.0625
 74
     0
 49
-0.375
 74
     0
  0
LTYPE
  5
49
330
5
100
AcDbSymbolTableRecord
100
AcDbLinetypeTableRecord
  2
dashed_double-dotted
 70
     0
  3
二点短鎖線
 72
    65
 73
     6
 40
2.75
 49
1.5
 74
     0
 49
-0.375
 74
     0
 49
0.0625
 74
     0
 49
-0.375
 74
     0
 49
0.0625
 74
     0
 49
-0.375
 74
     0
  0
LTYPE
  5
4A
330
5
100
AcDbSymbolTableRecord
100
AcDbLinetypeTableRecord
  2
double-dashed_double-dotted
 70
     0
  3
二点二短鎖線
 72
    65
 73
     8
 40
4.625
 49
1.5
 74
     0
 49
-0.375
 74
     0
 49
1.5
 74
     0
 49
-0.375
 74
     0
 49
0.0625
 74
     0
 49
-0.375
 74
     0
 49
0.0625
 74
     0
 49
-0.375
 74
     0
  0
LTYPE
  5
4B
330
5
100
AcDbSymbolTableRecord
100
AcDbLinetypeTableRecord
  2
dashed_triplicate-dotted
 70
     0
  3
三点短鎖線
 72
    65
 73
     8
 40
3.1875
 49
1.5
 74
     0
 49
-0.375
 74
     0
 49
0.0625
 74
     0
 49
-0.375
 74
     0
 49
0.0625
 74
     0
 49
-0.375
 74
     0
 49
0.0625
 74
     0
 49
-0.375
 74
     0
  0
LTYPE
  5
4C
330
5
100
AcDbSymbolTableRecord
100
AcDbLinetypeTableRecord
  2
double-dashed_triplicate-dotted
 70
     0
  3
三点二短鎖線
 72
    65
 73
    10
 40
5.0625
 49
1.5
 74
     0
 49
-0.375
 74
     0
 49
1.5
 74
     0
 49
-0.375
 74
     0
 49
0.0625
 74
     0
 49
-0.375
 74
     0
 49
0.0625
 74
     0
 49
-0.375
 74
     0
 49
0.0625
 74
     0
 49
-0.375
 74
     0
  0
LTYPE
  5
4D
330
5
100
AcDbSymbolTableRecord
100
AcDbLinetypeTableRecord
  2
line_font16
 70
     0
  3
dashed
 72
    65
 73
     2
 40
1.03125
 49
0.8250000000000001
 74
     0
 49
-0.20625
 74
     0
  0
LTYPE
  5
4E
330
5
100
AcDbSymbolTableRecord
100
AcDbLinetypeTableRecord
  2
dashed_spaced1
 70
     0
  3
dashed_spaced
 72
    65
 73
     2
 40
1.65
 49
0.8250000000000001
 74
     0
 49
-0.8250000000000001
 74
     0
  0
LTYPE
  5
4F
330
5
100
AcDbSymbolTableRecord
100
AcDbLinetypeTableRecord
  2
long_dashed_dotted1
 70
     0
  3
long_dashed_dotted
 72
    65
 73
     4
 40
2.096875
 49
1.65
 74
     0
 49
-0.20625
 74
     0
 49
0.034375
 74
     0
 49
-0.20625
 74
     0
  0
LTYPE
  5
50
330
5
100
AcDbSymbolTableRecord
100
AcDbLinetypeTableRecord
  2
long_dashed_double-dotted1
 70
     0
  3
long_dashed_double-dotted
 72
    65
 73
     6
 40
2.3375
 49
1.65
 74
     0
 49
-0.20625
 74
     0
 49
0.034375
 74
     0
 49
-0.20625
 74
     0
 49
0.034375
 74
     0
 49
-0.20625
 74
     0
  0
LTYPE
  5
51
330
5
100
AcDbSymbolTableRecord
100
AcDbLinetypeTableRecord
  2
long_dashed_triplicate-dotted1
 70
     0
  3
long_dashed_triplicate-dotted
 72
    65
 73
     8
 40
2.578125
 49
1.65
 74
     0
 49
-0.20625
 74
     0
 49
0.034375
 74
     0
 49
-0.20625
 74
     0
 49
0.034375
 74
     0
 49
-0.20625
 74
     0
 49
0.034375
 74
     0
 49
-0.20625
 74
     0
  0
LTYPE
  5
52
330
5
100
AcDbSymbolTableRecord
100
AcDbLinetypeTableRecord
  2
line_font21
 70
     0
  3
dotted
 72
    65
 73
     2
 40
0.240625
 49
0.034375
 74
     0
 49
-0.20625
 74
     0
  0
LTYPE
  5
53
330
5
100
AcDbSymbolTableRecord
100
AcDbLinetypeTableRecord
  2
line_font22
 70
     0
  3
chain
 72
    65
 73
     4
 40
2.54375
 49
1.65
 74
     0
 49
-0.20625
 74
     0
 49
0.4812500000000001
 74
     0
 49
-0.20625
 74
     0
  0
LTYPE
  5
54
330
5
100
AcDbSymbolTableRecord
100
AcDbLinetypeTableRecord
  2
chain_double_dash1
 70
     0
  3
chain_double_dash
 72
    65
 73
     6
 40
3.23125
 49
1.65
 74
     0
 49
-0.20625
 74
     0
 49
0.4812500000000001
 74
     0
 49
-0.20625
 74
     0
 49
0.4812500000000001
 74
     0
 49
-0.20625
 74
     0
  0
LTYPE
  5
55
330
5
100
AcDbSymbolTableRecord
100
AcDbLinetypeTableRecord
  2
dashed_dotted1
 70
     0
  3
dashed_dotted
 72
    65
 73
     4
 40
1.271875
 49
0.8250000000000001
 74
     0
 49
-0.20625
 74
     0
 49
0.034375
 74
     0
 49
-0.20625
 74
     0
  0
LTYPE
  5
56
330
5
100
AcDbSymbolTableRecord
100
AcDbLinetypeTableRecord
  2
double-dashed_dotted1
 70
     0
  3
double-dashed_dotted
 72
    65
 73
     6
 40
2.303125
 49
0.8250000000000001
 74
     0
 49
-0.20625
 74
     0
 49
0.8250000000000001
 74
     0
 49
-0.20625
 74
     0
 49
0.034375
 74
     0
 49
-0.20625
 74
     0
  0
LTYPE
  5
57
330
5
100
AcDbSymbolTableRecord
100
AcDbLinetypeTableRecord
  2
dashed_double-dotted1
 70
     0
  3
dashed_double-dotted
 72
    65
 73
     6
 40
1.5125
 49
0.8250000000000001
 74
     0
 49
-0.20625
 74
     0
 49
0.034375
 74
     0
 49
-0.20625
 74
     0
 49
0.034375
 74
     0
 49
-0.20625
 74
     0
  0
LTYPE
  5
58
330
5
100
AcDbSymbolTableRecord
100
AcDbLinetypeTableRecord
  2
double-dashed_double-dotted1
 70
     0
  3
double-dashed_double-dotted
 72
    65
 73
     8
 40
2.543749999999999
 49
0.8250000000000001
 74
     0
 49
-0.20625
 74
     0
 49
0.8250000000000001
 74
     0
 49
-0.20625
 74
     0
 49
0.034375
 74
     0
 49
-0.20625
 74
     0
 49
0.034375
 74
     0
 49
-0.20625
 74
     0
  0
LTYPE
  5
59
330
5
100
AcDbSymbolTableRecord
100
AcDbLinetypeTableRecord
  2
dashed_triplicate-dotted1
 70
     0
  3
dashed_triplicate-dotted
 72
    65
 73
     8
 40
1.753125
 49
0.8250000000000001
 74
     0
 49
-0.20625
 74
     0
 49
0.034375
 74
     0
 49
-0.20625
 74
     0
 49
0.034375
 74
     0
 49
-0.20625
 74
     0
 49
0.034375
 74
     0
 49
-0.20625
 74
     0
  0
LTYPE
  5
5A
330
5
100
AcDbSymbolTableRecord
100
AcDbLinetypeTableRecord
  2
double-dashed_triplicate-dotte1
 70
     0
  3
double-dashed_triplicate-dotted
 72
    65
 73
    10
 40
2.784374999999999
 49
0.8250000000000001
 74
     0
 49
-0.20625
 74
     0
 49
0.8250000000000001
 74
     0
 49
-0.20625
 74
     0
 49
0.034375
 74
     0
 49
-0.20625
 74
     0
 49
0.034375
 74
     0
 49
-0.20625
 74
     0
 49
0.034375
 74
     0
 49
-0.20625
 74
     0
  0
LTYPE
  5
5B
330
5
100
AcDbSymbolTableRecord
100
AcDbLinetypeTableRecord
  2
C_CENTER_L
 70
     0
  3
C_CENTER_L
 72
    65
 73
     4
 40
0.3018750000000001
 49
0.226875
 74
     0
 49
-0.025
 74
     0
 49
0.025
 74
     0
 49
-0.025
 74
     0
  0
LTYPE
  5
5C
330
5
100
AcDbSymbolTableRecord
100
AcDbLinetypeTableRecord
  2
line_font199
 70
     0
  3
line_font199
 72
    65
 73
     4
 40
3.629999999999999
 49
1.815
 74
     0
 49
-0.45375
 74
     0
 49
0.9075
 74
     0
 49
-0.45375
 74
     0
  0
LTYPE
  5
5D
330
5
100
AcDbSymbolTableRecord
100
AcDbLinetypeTableRecord
  2
LTYPE1
 70
     0
  3
LTYPE1
 72
    65
 73
     4
 40
13.75
 49
9.625
 74
     0
 49
-1.375
 74
     0
 49
1.375
 74
     0
 49
-1.375
 74
     0
  0
LTYPE
  5
5E
330
5
100
AcDbSymbolTableRecord
100
AcDbLinetypeTableRecord
  2
LTYPE3
 70
     0
  3
LTYPE3
 72
    65
 73
     4
 40
20.625
 49
14.4375
 74
     0
 49
-2.0625
 74
     0
 49
2.0625
 74
     0
 49
-2.0625
 74
     0
  0
LTYPE
  5
5F
330
5
100
AcDbSymbolTableRecord
100
AcDbLinetypeTableRecord
  2
LTYPE31
 70
     0
  3
LTYPE31
 72
    65
 73
     4
 40
0.61875
 49
0.433125
 74
     0
 49
-0.061875
 74
     0
 49
0.061875
 74
     0
 49
-0.061875
 74
     0
  0
LTYPE
  5
60
330
5
100
AcDbSymbolTableRecord
100
AcDbLinetypeTableRecord
  2
LTYPE0
 70
     0
  3
LTYPE0
 72
    65
 73
     4
 40
0.3300000000000001
 49
0.231
 74
     0
 49
-0.033
 74
     0
 49
0.033
 74
     0
 49
-0.033
 74
     0
  0
LTYPE
  5
61
330
5
100
AcDbSymbolTableRecord
100
AcDbLinetypeTableRecord
  2
LTYPE11
 70
     0
  3
LTYPE11
 72
    65
 73
     4
 40
0.4125000000000001
 49
0.2887500000000001
 74
     0
 49
-0.04125
 74
     0
 49
0.04125
 74
     0
 49
-0.04125
 74
     0
  0
LTYPE
  5
62
330
5
100
AcDbSymbolTableRecord
100
AcDbLinetypeTableRecord
  2
line_font212
 70
     0
  3
line_font212
 72
    65
 73
     2
 40
1.5125
 49
0.7562500000000001
 74
     0
 49
-0.7562500000000001
 74
     0
  0
ENDTAB
  0
TABLE
  2
LAYER
  5
2
330
0
100
AcDbSymbolTable
 70
    18
  0
LAYER
  5
10
330
2
100
AcDbSymbolTableRecord
100
AcDbLayerTableRecord
  2
0
 70
     0
 62
     7
  6
Continuous
370
    -3
390
F
  0
LAYER
  5
63
330
2
100
AcDbSymbolTableRecord
100
AcDbLayerTableRecord
  2
作業レイヤ
 70
     0
 62
     7
  6
Continuous
370
    -3
390
F
  0
LAYER
  5
64
330
2
100
AcDbSymbolTableRecord
100
AcDbLayerTableRecord
  2
図形
 70
     0
 62
     7
  6
Continuous
370
    -3
390
F
  0
LAYER
  5
65
330
2
100
AcDbSymbolTableRecord
100
AcDbLayerTableRecord
  2
2
 70
     0
 62
     7
  6
Continuous
370
    -3
390
F
  0
LAYER
  5
66
330
2
100
AcDbSymbolTableRecord
100
AcDbLayerTableRecord
  2
3
 70
     0
 62
     7
  6
Continuous
370
    -3
390
F
  0
LAYER
  5
67
330
2
100
AcDbSymbolTableRecord
100
AcDbLayerTableRecord
  2
4
 70
     0
 62
     7
  6
Continuous
370
    -3
390
F
  0
LAYER
  5
68
330
2
100
AcDbSymbolTableRecord
100
AcDbLayerTableRecord
  2
5
 70
     0
 62
     7
  6
Continuous
370
    -3
390
F
  0
LAYER
  5
69
330
2
100
AcDbSymbolTableRecord
100
AcDbLayerTableRecord
  2
6
 70
     0
 62
     7
  6
Continuous
370
    -3
390
F
  0
LAYER
  5
6A
330
2
100
AcDbSymbolTableRecord
100
AcDbLayerTableRecord
  2
7
 70
     0
 62
     7
  6
Continuous
370
    -3
390
F
  0
LAYER
  5
6B
330
2
100
AcDbSymbolTableRecord
100
AcDbLayerTableRecord
  2
8
 70
     0
 62
     7
  6
Continuous
370
    -3
390
F
  0
LAYER
  5
6C
330
2
100
AcDbSymbolTableRecord
100
AcDbLayerTableRecord
  2
9
 70
     0
 62
     7
  6
Continuous
370
    -3
390
F
  0
LAYER
  5
6D
330
2
100
AcDbSymbolTableRecord
100
AcDbLayerTableRecord
  2
寸法
 70
     0
 62
     7
  6
Continuous
370
    -3
390
F
  0
LAYER
  5
6E
330
2
100
AcDbSymbolTableRecord
100
AcDbLayerTableRecord
  2
11
 70
     0
 62
     7
  6
Continuous
370
    -3
390
F
  0
LAYER
  5
6F
330
2
100
AcDbSymbolTableRecord
100
AcDbLayerTableRecord
  2
図枠外コメント
 70
     0
 62
     7
  6
Continuous
370
    -3
390
F
  0
LAYER
  5
70
330
2
100
AcDbSymbolTableRecord
100
AcDbLayerTableRecord
  2
13
 70
     0
 62
     7
  6
Continuous
370
    -3
390
F
  0
LAYER
  5
71
330
2
100
AcDbSymbolTableRecord
100
AcDbLayerTableRecord
  2
図枠コメント
 70
     0
 62
     7
  6
Continuous
370
    -3
390
F
  0
LAYER
  5
72
330
2
100
AcDbSymbolTableRecord
100
AcDbLayerTableRecord
  2
図枠
 70
     0
 62
     7
  6
Continuous
370
    -3
390
F
  0
LAYER
  5
177
330
2
100
AcDbSymbolTableRecord
100
AcDbLayerTableRecord
  2
Defpoints
 70
     0
 62
     7
  6
Continuous
290
     0
370
    -3
390
F
  0
ENDTAB
  0
TABLE
  2
STYLE
  5
3
330
0
100
AcDbSymbolTable
 70
     2
  0
STYLE
  5
11
330
3
100
AcDbSymbolTableRecord
100
AcDbTextStyleTableRecord
  2
Standard
 70
     0
 40
0.0
 41
1.0
 50
0.0
 71
     0
 42
0.2
  3
txt
  4

  0
STYLE
  5
73
330
3
100
AcDbSymbolTableRecord
100
AcDbTextStyleTableRecord
  2
TextStyle1
 70
     0
 40
0.0
 41
1.0
 50
0.0
 71
     0
 42
0.2
  3
txt
  4
extfont2
  0
ENDTAB
  0
TABLE
  2
VIEW
  5
6
330
0
100
AcDbSymbolTable
 70
     0
  0
ENDTAB
  0
TABLE
  2
UCS
  5
7
330
0
100
AcDbSymbolTable
 70
     0
  0
ENDTAB
  0
TABLE
  2
APPID
  5
9
330
0
100
AcDbSymbolTable
 70
     6
  0
APPID
  5
12
330
9
100
AcDbSymbolTableRecord
100
AcDbRegAppTableRecord
  2
ACAD
 70
     0
  0
APPID
  5
2AD
330
9
100
AcDbSymbolTableRecord
100
AcDbRegAppTableRecord
  2
ACAD_DSTYLE_DIM_LINETYPE
 70
     0
  0
APPID
  5
2AE
330
9
100
AcDbSymbolTableRecord
100
AcDbRegAppTableRecord
  2
ACAD_DSTYLE_DIM_EXT1_LINETYPE
 70
     0
  0
APPID
  5
2AF
330
9
100
AcDbSymbolTableRecord
100
AcDbRegAppTableRecord
  2
ACAD_DSTYLE_DIM_EXT2_LINETYPE
 70
     0
  0
APPID
  5
2B0
330
9
100
AcDbSymbolTableRecord
100
AcDbRegAppTableRecord
  2
ACAD_DSTYLE_DIMFLIPARROW_SYMBOL
 70
     0
  0
APPID
  5
2B1
330
9
100
AcDbSymbolTableRecord
100
AcDbRegAppTableRecord
  2
ACAD_DSTYLE_DIMFLIPARROW_WHICH_SYMBOL
 70
     0
  0
ENDTAB
  0
TABLE
  2
DIMSTYLE
  5
A
330
0
100
AcDbSymbolTable
 70
     2
100
AcDbDimStyleTable
  0
DIMSTYLE
105
27
330
A
100
AcDbSymbolTableRecord
100
AcDbDimStyleTableRecord
  2
Standard
 70
     0
340
11
  0
DIMSTYLE
105
74
102
{ACAD_REACTORS
330
170
330
184
330
190
330
19D
330
1A9
330
1B5
330
1C2
330
1CF
330
1DE
330
1EB
330
1F8
330
204
330
211
330
21D
330
229
330
234
330
241
330
253
330
25F
330
26B
330
278
102
}
330
A
100
AcDbSymbolTableRecord
100
AcDbDimStyleTableRecord
  2
DimTextStyle1
 70
     0
 77
     2
173
     1
279
     2
340
11
  0
ENDTAB
  0
TABLE
  2
BLOCK_RECORD
  5
1
330
0
100
AcDbSymbolTable
 70
    28
  0
BLOCK_RECORD
  5
1F
330
1
100
AcDbSymbolTableRecord
100
AcDbBlockTableRecord
  2
*Model_Space
340
22
  0
BLOCK_RECORD
  5
1B
330
1
100
AcDbSymbolTableRecord
100
AcDbBlockTableRecord
  2
*Paper_Space
340
1E
  0
BLOCK_RECORD
  5
23
330
1
100
AcDbSymbolTableRecord
100
AcDbBlockTableRecord
  2
*Paper_Space0
340
26
  0
BLOCK_RECORD
  5
171
330
1
100
AcDbSymbolTableRecord
100
AcDbBlockTableRecord
  2
_OPEN
340
0
102
{BLKREFS
331
17D
331
17C
331
189
331
188
331
196
331
195
331
1A2
331
1A1
331
1AE
331
1AD
331
1BB
331
1BA
331
1C8
331
1C7
331
1D7
331
1D6
331
1E4
331
1E3
331
1F1
331
1F0
331
1FD
331
1FC
331
20A
331
209
331
216
331
215
331
222
331
221
331
22D
331
22C
331
23A
331
239
331
24C
331
258
331
264
331
271
331
270
331
27E
331
27D
102
}
  0
BLOCK_RECORD
  5
178
330
1
100
AcDbSymbolTableRecord
100
AcDbBlockTableRecord
  2
*D2
340
0
  0
BLOCK_RECORD
  5
185
330
1
100
AcDbSymbolTableRecord
100
AcDbBlockTableRecord
  2
*D3
340
0
  0
BLOCK_RECORD
  5
191
330
1
100
AcDbSymbolTableRecord
100
AcDbBlockTableRecord
  2
*D4
340
0
  0
BLOCK_RECORD
  5
19E
330
1
100
AcDbSymbolTableRecord
100
AcDbBlockTableRecord
  2
*D5
340
0
  0
BLOCK_RECORD
  5
1AA
330
1
100
AcDbSymbolTableRecord
100
AcDbBlockTableRecord
  2
*D6
340
0
  0
BLOCK_RECORD
  5
1B6
330
1
100
AcDbSymbolTableRecord
100
AcDbBlockTableRecord
  2
*D7
340
0
  0
BLOCK_RECORD
  5
1C3
330
1
100
AcDbSymbolTableRecord
100
AcDbBlockTableRecord
  2
*D8
340
0
  0
BLOCK_RECORD
  5
1D0
330
1
100
AcDbSymbolTableRecord
100
AcDbBlockTableRecord
  2
*D9
340
0
  0
BLOCK_RECORD
  5
1DF
330
1
100
AcDbSymbolTableRecord
100
AcDbBlockTableRecord
  2
*D10
340
0
  0
BLOCK_RECORD
  5
1EC
330
1
100
AcDbSymbolTableRecord
100
AcDbBlockTableRecord
  2
*D11
340
0
  0
BLOCK_RECORD
  5
1F9
330
1
100
AcDbSymbolTableRecord
100
AcDbBlockTableRecord
  2
*D12
340
0
  0
BLOCK_RECORD
  5
205
330
1
100
AcDbSymbolTableRecord
100
AcDbBlockTableRecord
  2
*D13
340
0
  0
BLOCK_RECORD
  5
212
330
1
100
AcDbSymbolTableRecord
100
AcDbBlockTableRecord
  2
*D14
340
0
  0
BLOCK_RECORD
  5
21E
330
1
100
AcDbSymbolTableRecord
100
AcDbBlockTableRecord
  2
*D15
340
0
  0
BLOCK_RECORD
  5
22A
330
1
100
AcDbSymbolTableRecord
100
AcDbBlockTableRecord
  2
*D16
340
0
  0
BLOCK_RECORD
  5
235
330
1
100
AcDbSymbolTableRecord
100
AcDbBlockTableRecord
  2
*D17
340
0
  0
BLOCK_RECORD
  5
242
330
1
100
AcDbSymbolTableRecord
100
AcDbBlockTableRecord
  2
_ORIGIN
340
0
102
{BLKREFS
331
24B
331
257
331
263
102
}
  0
BLOCK_RECORD
  5
247
330
1
100
AcDbSymbolTableRecord
100
AcDbBlockTableRecord
  2
*D19
340
0
  0
BLOCK_RECORD
  5
254
330
1
100
AcDbSymbolTableRecord
100
AcDbBlockTableRecord
  2
*D20
340
0
  0
BLOCK_RECORD
  5
260
330
1
100
AcDbSymbolTableRecord
100
AcDbBlockTableRecord
  2
*D21
340
0
  0
BLOCK_RECORD
  5
26C
330
1
100
AcDbSymbolTableRecord
100
AcDbBlockTableRecord
  2
*D22
340
0
  0
BLOCK_RECORD
  5
279
330
1
100
AcDbSymbolTableRecord
100
AcDbBlockTableRecord
  2
*D23
340
0
  0
BLOCK_RECORD
  5
285
330
1
100
AcDbSymbolTableRecord
100
AcDbBlockTableRecord
  2
BV_ATTRIBUTE1
340
0
102
{BLKREFS
331
28C
102
}
  0
BLOCK_RECORD
  5
28D
330
1
100
AcDbSymbolTableRecord
100
AcDbBlockTableRecord
  2
BV_ATTRIBUTE2
340
0
102
{BLKREFS
331
294
102
}
  0
BLOCK_RECORD
  5
295
330
1
100
AcDbSymbolTableRecord
100
AcDbBlockTableRecord
  2
BV_ATTRIBUTE3
340
0
102
{BLKREFS
331
29D
102
}
  0
BLOCK_RECORD
  5
29E
330
1
100
AcDbSymbolTableRecord
100
AcDbBlockTableRecord
  2
BV_ATTRIBUTE4
340
0
102
{BLKREFS
331
2A6
102
}
  0
ENDTAB
  0
ENDSEC
  0
SECTION
  2
BLOCKS
  0
BLOCK
  5
20
330
1F
100
AcDbEntity
  8
0
100
AcDbBlockBegin
  2
*Model_Space
 70
     0
 10
0.0
 20
0.0
 30
0.0
  3
*Model_Space
  1

  0
ENDBLK
  5
21
330
1F
100
AcDbEntity
  8
0
100
AcDbBlockEnd
  0
BLOCK
  5
1C
330
1B
100
AcDbEntity
 67
     1
  8
0
100
AcDbBlockBegin
  2
*Paper_Space
 70
     0
 10
0.0
 20
0.0
 30
0.0
  3
*Paper_Space
  1

  0
ENDBLK
  5
1D
330
1B
100
AcDbEntity
 67
     1
  8
0
100
AcDbBlockEnd
  0
BLOCK
  5
24
330
23
100
AcDbEntity
  8
0
100
AcDbBlockBegin
  2
*Paper_Space0
 70
     0
 10
0.0
 20
0.0
 30
0.0
  3
*Paper_Space0
  1

  0
ENDBLK
  5
25
330
23
100
AcDbEntity
  8
0
100
AcDbBlockEnd
  0
BLOCK
  5
172
330
171
100
AcDbEntity
  8
0
100
AcDbBlockBegin
  2
_OPEN
 70
     0
 10
0.0
 20
0.0
 30
0.0
  3
_OPEN
  1

  0
LINE
  5
174
330
171
100
AcDbEntity
  8
0
  6
ByBlock
 62
     0
370
    -2
100
AcDbLine
 10
-1.0
 20
0.166667
 30
0.0
 11
0.0
 21
0.0
 31
0.0
  0
LINE
  5
175
330
171
100
AcDbEntity
  8
0
  6
ByBlock
 62
     0
370
    -2
100
AcDbLine
 10
-1.0
 20
-0.166667
 30
0.0
 11
0.0
 21
0.0
 31
0.0
  0
LINE
  5
176
330
171
100
AcDbEntity
  8
0
  6
ByBlock
 62
     0
370
    -2
100
AcDbLine
 10
0.0
 20
0.0
 30
0.0
 11
-1.0
 21
0.0
 31
0.0
  0
ENDBLK
  5
173
330
171
100
AcDbEntity
  8
0
100
AcDbBlockEnd
  0
BLOCK
  5
182
330
178
100
AcDbEntity
  8
0
100
AcDbBlockBegin
  2
*D2
 70
     1
 10
0.0
 20
0.0
 30
0.0
  3
*D2
  1

  0
LINE
  5
179
330
178
100
AcDbEntity
  8
寸法
  6
Continuous
 62
     4
370
    13
100
AcDbLine
 10
201.4379709062201
 20
113.0106123401924
 30
0.0
 11
201.4379709062201
 21
139.893338429461
 31
0.0
  0
LINE
  5
17A
330
178
100
AcDbEntity
  8
寸法
  6
Continuous
 62
     4
370
    13
100
AcDbLine
 10
181.4379709062201
 20
113.0106123401924
 30
0.0
 11
181.4379709062201
 21
139.893338429461
 31
0.0
  0
LINE
  5
17B
330
178
100
AcDbEntity
  8
寸法
  6
Continuous
 62
     4
370
    13
100
AcDbLine
 10
198.5129709062201
 20
138.893338429461
 30
0.0
 11
184.3629709062201
 21
138.893338429461
 31
0.0
  0
INSERT
  5
17C
330
178
100
AcDbEntity
  8
寸法
 62
     4
370
    13
100
AcDbBlockReference
  2
_OPEN
 10
201.4379709062201
 20
138.893338429461
 30
0.0
 41
2.925
 42
2.925
 43
2.925
  0
INSERT
  5
17D
330
178
100
AcDbEntity
  8
寸法
 62
     4
370
    13
100
AcDbBlockReference
  2
_OPEN
 10
181.4379709062201
 20
138.893338429461
 30
0.0
 41
2.925
 42
2.925
 43
2.925
 50
180.0
  0
MTEXT
  5
17E
330
178
100
AcDbEntity
  8
寸法
 62
     7
100
AcDbMText
 10
191.4379709062201
 20
142.168338429461
 30
0.0
 40
3.5
 41
0.0
 71
     5
 72
     1
  1
\A1;20
  7
TextStyle1
 73
     1
 44
1.0
  0
POINT
  5
17F
330
178
100
AcDbEntity
  8
Defpoints
 62
     0
100
AcDbPoint
 10
201.4379709062201
 20
112.0106123401924
 30
0.0
  0
POINT
  5
180
330
178
100
AcDbEntity
  8
Defpoints
 62
     0
100
AcDbPoint
 10
181.4379709062201
 20
112.0106123401924
 30
0.0
  0
POINT
  5
181
330
178
100
AcDbEntity
  8
Defpoints
 62
     0
100
AcDbPoint
 10
181.4379709062201
 20
138.893338429461
 30
0.0
  0
ENDBLK
  5
183
330
178
100
AcDbEntity
  8
0
100
AcDbBlockEnd
  0
BLOCK
  5
18E
330
185
100
AcDbEntity
  8
0
100
AcDbBlockBegin
  2
*D3
 70
     1
 10
0.0
 20
0.0
 30
0.0
  3
*D3
  1

  0
LINE
  5
186
330
185
100
AcDbEntity
  8
寸法
  6
Continuous
 62
     4
370
    13
100
AcDbLine
 10
191.4379709062201
 20
123.0106123401924
 30
0.0
 11
191.4379709062201
 21
132.7035544365984
 31
0.0
  0
LINE
  5
187
330
185
100
AcDbEntity
  8
寸法
  6
Continuous
 62
     4
370
    13
100
AcDbLine
 10
184.3629709062201
 20
131.7035544365984
 30
0.0
 11
188.5129709062201
 21
131.7035544365984
 31
0.0
  0
INSERT
  5
188
330
185
100
AcDbEntity
  8
寸法
 62
     4
370
    13
100
AcDbBlockReference
  2
_OPEN
 10
181.4379709062201
 20
131.7035544365984
 30
0.0
 41
2.925
 42
2.925
 43
2.925
 50
180.0
  0
INSERT
  5
189
330
185
100
AcDbEntity
  8
寸法
 62
     4
370
    13
100
AcDbBlockReference
  2
_OPEN
 10
191.4379709062201
 20
131.7035544365984
 30
0.0
 41
2.925
 42
2.925
 43
2.925
  0
MTEXT
  5
18A
330
185
100
AcDbEntity
  8
寸法
 62
     7
100
AcDbMText
 10
186.4379709062201
 20
134.9785544365984
 30
0.0
 40
3.5
 41
0.0
 71
     5
 72
     1
  1
\A1;10
  7
TextStyle1
 73
     1
 44
1.0
  0
POINT
  5
18B
330
185
100
AcDbEntity
  8
Defpoints
 62
     0
100
AcDbPoint
 10
181.4379709062201
 20
112.0106123401924
 30
0.0
  0
POINT
  5
18C
330
185
100
AcDbEntity
  8
Defpoints
 62
     0
100
AcDbPoint
 10
191.4379709062201
 20
122.0106123401924
 30
0.0
  0
POINT
  5
18D
330
185
100
AcDbEntity
  8
Defpoints
 62
     0
100
AcDbPoint
 10
191.4379709062201
 20
131.7035544365984
 30
0.0
  0
ENDBLK
  5
18F
330
185
100
AcDbEntity
  8
0
100
AcDbBlockEnd
  0
BLOCK
  5
19B
330
191
100
AcDbEntity
  8
0
100
AcDbBlockBegin
  2
*D4
 70
     1
 10
0.0
 20
0.0
 30
0.0
  3
*D4
  1

  0
LINE
  5
192
330
191
100
AcDbEntity
  8
寸法
  6
Continuous
 62
     4
370
    13
100
AcDbLine
 10
197.4379709062201
 20
117.0106123401924
 30
0.0
 11
216.2393463315537
 21
117.0106123401924
 31
0.0
  0
LINE
  5
193
330
191
100
AcDbEntity
  8
寸法
  6
Continuous
 62
     4
370
    13
100
AcDbLine
 10
207.4379709062201
 20
107.0106123401924
 30
0.0
 11
216.2393463315537
 21
107.0106123401924
 31
0.0
  0
LINE
  5
194
330
191
100
AcDbEntity
  8
寸法
  6
Continuous
 62
     4
370
    13
100
AcDbLine
 10
215.2393463315537
 20
114.0856123401924
 30
0.0
 11
215.2393463315537
 21
109.9356123401924
 31
0.0
  0
INSERT
  5
195
330
191
100
AcDbEntity
  8
寸法
 62
     4
370
    13
100
AcDbBlockReference
  2
_OPEN
 10
215.2393463315537
 20
117.0106123401924
 30
0.0
 41
2.925
 42
2.925
 43
2.925
 50
90.0
  0
INSERT
  5
196
330
191
100
AcDbEntity
  8
寸法
 62
     4
370
    13
100
AcDbBlockReference
  2
_OPEN
 10
215.2393463315537
 20
107.0106123401924
 30
0.0
 41
2.925
 42
2.925
 43
2.925
 50
270.0
  0
MTEXT
  5
197
330
191
100
AcDbEntity
  8
寸法
 62
     7
100
AcDbMText
 10
211.9643463315537
 20
112.0106123401924
 30
0.0
 40
3.5
 41
0.0
 71
     5
 72
     1
  1
\A1;10
  7
TextStyle1
 11
6.123031769111886E-17
 21
1.0
 31
0.0
 73
     1
 44
1.0
  0
POINT
  5
198
330
191
100
AcDbEntity
  8
Defpoints
 62
     0
100
AcDbPoint
 10
196.4379709062201
 20
117.0106123401924
 30
0.0
  0
POINT
  5
199
330
191
100
AcDbEntity
  8
Defpoints
 62
     0
100
AcDbPoint
 10
206.4379709062201
 20
107.0106123401924
 30
0.0
  0
POINT
  5
19A
330
191
100
AcDbEntity
  8
Defpoints
 62
     0
100
AcDbPoint
 10
215.2393463315537
 20
107.0106123401924
 30
0.0
  0
ENDBLK
  5
19C
330
191
100
AcDbEntity
  8
0
100
AcDbBlockEnd
  0
BLOCK
  5
1A7
330
19E
100
AcDbEntity
  8
0
100
AcDbBlockBegin
  2
*D5
 70
     1
 10
0.0
 20
0.0
 30
0.0
  3
*D5
  1

  0
LINE
  5
19F
330
19E
100
AcDbEntity
  8
寸法
  6
Continuous
 62
     4
370
    13
100
AcDbLine
 10
251.4443190014216
 20
89.51061234019242
 30
0.0
 11
251.4443190014216
 21
68.89445562838424
 31
0.0
  0
LINE
  5
1A0
330
19E
100
AcDbEntity
  8
寸法
  6
Continuous
 62
     4
370
    13
100
AcDbLine
 10
238.3693190014216
 20
69.89445562838424
 30
0.0
 11
248.5193190014216
 21
69.89445562838424
 31
0.0
  0
INSERT
  5
1A1
330
19E
100
AcDbEntity
  8
寸法
 62
     4
370
    13
100
AcDbBlockReference
  2
_OPEN
 10
235.4443190014215
 20
69.89445562838424
 30
0.0
 41
2.925
 42
2.925
 43
2.925
 50
180.0
  0
INSERT
  5
1A2
330
19E
100
AcDbEntity
  8
寸法
 62
     4
370
    13
100
AcDbBlockReference
  2
_OPEN
 10
251.4443190014216
 20
69.89445562838424
 30
0.0
 41
2.925
 42
2.925
 43
2.925
  0
MTEXT
  5
1A3
330
19E
100
AcDbEntity
  8
寸法
 62
     7
100
AcDbMText
 10
243.4443190014215
 20
73.16945562838424
 30
0.0
 40
3.5
 41
0.0
 71
     5
 72
     1
  1
\A1;16
  7
TextStyle1
 73
     1
 44
1.0
  0
POINT
  5
1A4
330
19E
100
AcDbEntity
  8
Defpoints
 62
     0
100
AcDbPoint
 10
235.4443190014215
 20
90.51061234019242
 30
0.0
  0
POINT
  5
1A5
330
19E
100
AcDbEntity
  8
Defpoints
 62
     0
100
AcDbPoint
 10
251.4443190014216
 20
90.51061234019242
 30
0.0
  0
POINT
  5
1A6
330
19E
100
AcDbEntity
  8
Defpoints
 62
     0
100
AcDbPoint
 10
251.4443190014216
 20
69.89445562838424
 30
0.0
  0
ENDBLK
  5
1A8
330
19E
100
AcDbEntity
  8
0
100
AcDbBlockEnd
  0
BLOCK
  5
1B3
330
1AA
100
AcDbEntity
  8
0
100
AcDbBlockBegin
  2
*D6
 70
     1
 10
0.0
 20
0.0
 30
0.0
  3
*D6
  1

  0
LINE
  5
1AB
330
1AA
100
AcDbEntity
  8
寸法
  6
Continuous
 62
     4
370
    13
100
AcDbLine
 10
257.4443190014216
 20
95.51061234019242
 30
0.0
 11
276.3160096766406
 21
95.51061234019241
 31
0.0
  0
LINE
  5
1AC
330
1AA
100
AcDbEntity
  8
寸法
  6
Continuous
 62
     4
370
    13
100
AcDbLine
 10
275.3160096766406
 20
114.0856123401924
 30
0.0
 11
275.3160096766406
 21
98.4356123401924
 31
0.0
  0
INSERT
  5
1AD
330
1AA
100
AcDbEntity
  8
寸法
 62
     4
370
    13
100
AcDbBlockReference
  2
_OPEN
 10
275.3160096766406
 20
117.0106123401924
 30
0.0
 41
2.925
 42
2.925
 43
2.925
 50
90.0
  0
INSERT
  5
1AE
330
1AA
100
AcDbEntity
  8
寸法
 62
     4
370
    13
100
AcDbBlockReference
  2
_OPEN
 10
275.3160096766406
 20
95.51061234019241
 30
0.0
 41
2.925
 42
2.925
 43
2.925
 50
270.0
  0
MTEXT
  5
1AF
330
1AA
100
AcDbEntity
  8
寸法
 62
     7
100
AcDbMText
 10
272.0410096766406
 20
106.2606123401924
 30
0.0
 40
3.5
 41
0.0
 71
     5
 72
     1
  1
\A1;21.5
  7
TextStyle1
 11
6.123031769111886E-17
 21
1.0
 31
0.0
 73
     1
 44
1.0
  0
POINT
  5
1B0
330
1AA
100
AcDbEntity
  8
Defpoints
 62
     0
100
AcDbPoint
 10
258.4443190014216
 20
117.0106123401924
 30
0.0
  0
POINT
  5
1B1
330
1AA
100
AcDbEntity
  8
Defpoints
 62
     0
100
AcDbPoint
 10
256.4443190014216
 20
95.51061234019242
 30
0.0
  0
POINT
  5
1B2
330
1AA
100
AcDbEntity
  8
Defpoints
 62
     0
100
AcDbPoint
 10
275.3160096766406
 20
95.51061234019241
 30
0.0
  0
ENDBLK
  5
1B4
330
1AA
100
AcDbEntity
  8
0
100
AcDbBlockEnd
  0
BLOCK
  5
1C0
330
1B6
100
AcDbEntity
  8
0
100
AcDbBlockBegin
  2
*D7
 70
     1
 10
0.0
 20
0.0
 30
0.0
  3
*D7
  1

  0
LINE
  5
1B7
330
1B6
100
AcDbEntity
  8
寸法
  6
Continuous
 62
     4
370
    13
100
AcDbLine
 10
259.4443190014216
 20
82.01061234019242
 30
0.0
 11
284.5812663670062
 21
82.01061234019242
 31
0.0
  0
LINE
  5
1B8
330
1B6
100
AcDbEntity
  8
寸法
  6
Continuous
 62
     4
370
    13
100
AcDbLine
 10
259.4443190014216
 20
117.0106123401924
 30
0.0
 11
284.5812663670062
 21
117.0106123401924
 31
0.0
  0
LINE
  5
1B9
330
1B6
100
AcDbEntity
  8
寸法
  6
Continuous
 62
     4
370
    13
100
AcDbLine
 10
283.5812663670062
 20
84.93561234019242
 30
0.0
 11
283.5812663670062
 21
114.0856123401924
 31
0.0
  0
INSERT
  5
1BA
330
1B6
100
AcDbEntity
  8
寸法
 62
     4
370
    13
100
AcDbBlockReference
  2
_OPEN
 10
283.5812663670062
 20
82.01061234019242
 30
0.0
 41
2.925
 42
2.925
 43
2.925
 50
270.0
  0
INSERT
  5
1BB
330
1B6
100
AcDbEntity
  8
寸法
 62
     4
370
    13
100
AcDbBlockReference
  2
_OPEN
 10
283.5812663670062
 20
117.0106123401924
 30
0.0
 41
2.925
 42
2.925
 43
2.925
 50
90.0
  0
MTEXT
  5
1BC
330
1B6
100
AcDbEntity
  8
寸法
 62
     7
100
AcDbMText
 10
280.3062663670062
 20
99.51061234019244
 30
0.0
 40
3.5
 41
0.0
 71
     5
 72
     1
  1
\A1;35
  7
TextStyle1
 11
6.123031769111886E-17
 21
1.0
 31
0.0
 73
     1
 44
1.0
  0
POINT
  5
1BD
330
1B6
100
AcDbEntity
  8
Defpoints
 62
     0
100
AcDbPoint
 10
258.4443190014216
 20
82.01061234019242
 30
0.0
  0
POINT
  5
1BE
330
1B6
100
AcDbEntity
  8
Defpoints
 62
     0
100
AcDbPoint
 10
258.4443190014216
 20
117.0106123401924
 30
0.0
  0
POINT
  5
1BF
330
1B6
100
AcDbEntity
  8
Defpoints
 62
     0
100
AcDbPoint
 10
283.5812663670062
 20
117.0106123401924
 30
0.0
  0
ENDBLK
  5
1C1
330
1B6
100
AcDbEntity
  8
0
100
AcDbBlockEnd
  0
BLOCK
  5
1CD
330
1C3
100
AcDbEntity
  8
0
100
AcDbBlockBegin
  2
*D8
 70
     1
 10
0.0
 20
0.0
 30
0.0
  3
*D8
  1

  0
LINE
  5
1C4
330
1C3
100
AcDbEntity
  8
寸法
  6
Continuous
 62
     4
370
    13
100
AcDbLine
 10
228.4443190014215
 20
118.0106123401924
 30
0.0
 11
228.4443190014215
 21
139.893338429461
 31
0.0
  0
LINE
  5
1C5
330
1C3
100
AcDbEntity
  8
寸法
  6
Continuous
 62
     4
370
    13
100
AcDbLine
 10
258.4443190014216
 20
118.0106123401924
 30
0.0
 11
258.4443190014216
 21
139.893338429461
 31
0.0
  0
LINE
  5
1C6
330
1C3
100
AcDbEntity
  8
寸法
  6
Continuous
 62
     4
370
    13
100
AcDbLine
 10
231.3693190014216
 20
138.893338429461
 30
0.0
 11
255.5193190014216
 21
138.893338429461
 31
0.0
  0
INSERT
  5
1C7
330
1C3
100
AcDbEntity
  8
寸法
 62
     4
370
    13
100
AcDbBlockReference
  2
_OPEN
 10
228.4443190014215
 20
138.893338429461
 30
0.0
 41
2.925
 42
2.925
 43
2.925
 50
180.0
  0
INSERT
  5
1C8
330
1C3
100
AcDbEntity
  8
寸法
 62
     4
370
    13
100
AcDbBlockReference
  2
_OPEN
 10
258.4443190014216
 20
138.893338429461
 30
0.0
 41
2.925
 42
2.925
 43
2.925
  0
MTEXT
  5
1C9
330
1C3
100
AcDbEntity
  8
寸法
 62
     7
100
AcDbMText
 10
243.4443190014216
 20
142.168338429461
 30
0.0
 40
3.5
 41
0.0
 71
     5
 72
     1
  1
\A1;30
  7
TextStyle1
 73
     1
 44
1.0
  0
POINT
  5
1CA
330
1C3
100
AcDbEntity
  8
Defpoints
 62
     0
100
AcDbPoint
 10
228.4443190014215
 20
117.0106123401924
 30
0.0
  0
POINT
  5
1CB
330
1C3
100
AcDbEntity
  8
Defpoints
 62
     0
100
AcDbPoint
 10
258.4443190014216
 20
117.0106123401924
 30
0.0
  0
POINT
  5
1CC
330
1C3
100
AcDbEntity
  8
Defpoints
 62
     0
100
AcDbPoint
 10
258.4443190014216
 20
138.893338429461
 30
0.0
  0
ENDBLK
  5
1CE
330
1C3
100
AcDbEntity
  8
0
100
AcDbBlockEnd
  0
BLOCK
  5
1DC
330
1D0
100
AcDbEntity
  8
0
100
AcDbBlockBegin
  2
*D9
 70
     1
 10
0.0
 20
0.0
 30
0.0
  3
*D9
  1

  0
LINE
  5
1D1
330
1D0
100
AcDbEntity
  8
寸法
  6
Continuous
 62
     4
370
    13
100
AcDbLine
 10
228.4443190014215
 20
81.01061234019242
 30
0.0
 11
228.4443190014215
 21
68.89445562838424
 31
0.0
  0
LINE
  5
1D2
330
1D0
100
AcDbEntity
  8
寸法
  6
Continuous
 62
     4
370
    13
100
AcDbLine
 10
235.4443190014215
 20
89.51061234019242
 30
0.0
 11
235.4443190014215
 21
68.89445562838424
 31
0.0
  0
LINE
  5
1D3
330
1D0
100
AcDbEntity
  8
寸法
  6
Continuous
 62
     4
370
    13
100
AcDbLine
 10
228.4443190014215
 20
69.89445562838424
 30
0.0
 11
235.4443190014215
 21
69.89445562838424
 31
0.0
  0
LINE
  5
1D4
330
1D0
100
AcDbEntity
  8
寸法
  6
Continuous
 62
     4
370
    13
100
AcDbLine
 10
225.5193190014215
 20
69.89445562838424
 30
0.0
 11
222.5943190014215
 21
69.89445562838424
 31
0.0
  0
LINE
  5
1D5
330
1D0
100
AcDbEntity
  8
寸法
  6
Continuous
 62
     4
370
    13
100
AcDbLine
 10
238.3693190014216
 20
69.89445562838424
 30
0.0
 11
241.2943190014216
 21
69.89445562838424
 31
0.0
  0
INSERT
  5
1D6
330
1D0
100
AcDbEntity
  8
寸法
 62
     4
370
    13
100
AcDbBlockReference
  2
_OPEN
 10
228.4443190014215
 20
69.89445562838424
 30
0.0
 41
2.925
 42
2.925
 43
2.925
  0
INSERT
  5
1D7
330
1D0
100
AcDbEntity
  8
寸法
 62
     4
370
    13
100
AcDbBlockReference
  2
_OPEN
 10
235.4443190014215
 20
69.89445562838424
 30
0.0
 41
2.925
 42
2.925
 43
2.925
 50
180.0
  0
MTEXT
  5
1D8
330
1D0
100
AcDbEntity
  8
寸法
 62
     7
100
AcDbMText
 10
231.8631281057114
 20
73.16945562838424
 30
0.0
 40
3.5
 41
0.0
 71
     5
 72
     1
  1
\A1;7
  7
TextStyle1
 73
     1
 44
1.0
  0
POINT
  5
1D9
330
1D0
100
AcDbEntity
  8
Defpoints
 62
     0
100
AcDbPoint
 10
228.4443190014215
 20
82.01061234019242
 30
0.0
  0
POINT
  5
1DA
330
1D0
100
AcDbEntity
  8
Defpoints
 62
     0
100
AcDbPoint
 10
235.4443190014215
 20
90.51061234019242
 30
0.0
  0
POINT
  5
1DB
330
1D0
100
AcDbEntity
  8
Defpoints
 62
     0
100
AcDbPoint
 10
235.4443190014215
 20
69.89445562838424
 30
0.0
  0
ENDBLK
  5
1DD
330
1D0
100
AcDbEntity
  8
0
100
AcDbBlockEnd
  0
BLOCK
  5
1E9
330
1DF
100
AcDbEntity
  8
0
100
AcDbBlockBegin
  2
*D10
 70
     1
 10
0.0
 20
0.0
 30
0.0
  3
*D10
  1

  0
LINE
  5
1E0
330
1DF
100
AcDbEntity
  8
寸法
  6
Continuous
 62
     4
370
    13
100
AcDbLine
 10
282.673262889787
 20
200.6820944515206
 30
0.0
 11
302.2914847699793
 21
200.6820944515206
 31
0.0
  0
LINE
  5
1E1
330
1DF
100
AcDbEntity
  8
寸法
  6
Continuous
 62
     4
370
    13
100
AcDbLine
 10
282.673262889787
 20
165.6820944515205
 30
0.0
 11
302.2914847699793
 21
165.6820944515205
 31
0.0
  0
LINE
  5
1E2
330
1DF
100
AcDbEntity
  8
寸法
  6
Continuous
 62
     4
370
    13
100
AcDbLine
 10
301.2914847699793
 20
197.7570944515206
 30
0.0
 11
301.2914847699793
 21
168.6070944515205
 31
0.0
  0
INSERT
  5
1E3
330
1DF
100
AcDbEntity
  8
寸法
 62
     4
370
    13
100
AcDbBlockReference
  2
_OPEN
 10
301.2914847699793
 20
200.6820944515206
 30
0.0
 41
2.925
 42
2.925
 43
2.925
 50
90.0
  0
INSERT
  5
1E4
330
1DF
100
AcDbEntity
  8
寸法
 62
     4
370
    13
100
AcDbBlockReference
  2
_OPEN
 10
301.2914847699793
 20
165.6820944515205
 30
0.0
 41
2.925
 42
2.925
 43
2.925
 50
270.0
  0
MTEXT
  5
1E5
330
1DF
100
AcDbEntity
  8
寸法
 62
     7
100
AcDbMText
 10
298.0164847699793
 20
183.1820944515206
 30
0.0
 40
3.5
 41
0.0
 71
     5
 72
     1
  1
\A1;35
  7
TextStyle1
 11
6.123031769111886E-17
 21
1.0
 31
0.0
 73
     1
 44
1.0
  0
POINT
  5
1E6
330
1DF
100
AcDbEntity
  8
Defpoints
 62
     0
100
AcDbPoint
 10
281.673262889787
 20
200.6820944515206
 30
0.0
  0
POINT
  5
1E7
330
1DF
100
AcDbEntity
  8
Defpoints
 62
     0
100
AcDbPoint
 10
281.673262889787
 20
165.6820944515205
 30
0.0
  0
POINT
  5
1E8
330
1DF
100
AcDbEntity
  8
Defpoints
 62
     0
100
AcDbPoint
 10
301.2914847699793
 20
165.6820944515205
 30
0.0
  0
ENDBLK
  5
1EA
330
1DF
100
AcDbEntity
  8
0
100
AcDbBlockEnd
  0
BLOCK
  5
1F6
330
1EC
100
AcDbEntity
  8
0
100
AcDbBlockBegin
  2
*D11
 70
     1
 10
0.0
 20
0.0
 30
0.0
  3
*D11
  1

  0
LINE
  5
1ED
330
1EC
100
AcDbEntity
  8
寸法
  6
Continuous
 62
     4
370
    13
100
AcDbLine
 10
281.673262889787
 20
201.6820944515206
 30
0.0
 11
281.673262889787
 21
212.84804172977
 31
0.0
  0
LINE
  5
1EE
330
1EC
100
AcDbEntity
  8
寸法
  6
Continuous
 62
     4
370
    13
100
AcDbLine
 10
266.673262889787
 20
201.6820944515206
 30
0.0
 11
266.673262889787
 21
212.84804172977
 31
0.0
  0
LINE
  5
1EF
330
1EC
100
AcDbEntity
  8
寸法
  6
Continuous
 62
     4
370
    13
100
AcDbLine
 10
278.748262889787
 20
211.84804172977
 30
0.0
 11
269.598262889787
 21
211.84804172977
 31
0.0
  0
INSERT
  5
1F0
330
1EC
100
AcDbEntity
  8
寸法
 62
     4
370
    13
100
AcDbBlockReference
  2
_OPEN
 10
281.673262889787
 20
211.84804172977
 30
0.0
 41
2.925
 42
2.925
 43
2.925
  0
INSERT
  5
1F1
330
1EC
100
AcDbEntity
  8
寸法
 62
     4
370
    13
100
AcDbBlockReference
  2
_OPEN
 10
266.673262889787
 20
211.84804172977
 30
0.0
 41
2.925
 42
2.925
 43
2.925
 50
180.0
  0
MTEXT
  5
1F2
330
1EC
100
AcDbEntity
  8
寸法
 62
     7
100
AcDbMText
 10
274.173262889787
 20
215.1230417297701
 30
0.0
 40
3.5
 41
0.0
 71
     5
 72
     1
  1
\A1;15
  7
TextStyle1
 73
     1
 44
1.0
  0
POINT
  5
1F3
330
1EC
100
AcDbEntity
  8
Defpoints
 62
     0
100
AcDbPoint
 10
281.673262889787
 20
200.6820944515206
 30
0.0
  0
POINT
  5
1F4
330
1EC
100
AcDbEntity
  8
Defpoints
 62
     0
100
AcDbPoint
 10
266.673262889787
 20
200.6820944515206
 30
0.0
  0
POINT
  5
1F5
330
1EC
100
AcDbEntity
  8
Defpoints
 62
     0
100
AcDbPoint
 10
266.673262889787
 20
211.84804172977
 30
0.0
  0
ENDBLK
  5
1F7
330
1EC
100
AcDbEntity
  8
0
100
AcDbBlockEnd
  0
BLOCK
  5
202
330
1F9
100
AcDbEntity
  8
0
100
AcDbBlockBegin
  2
*D12
 70
     1
 10
0.0
 20
0.0
 30
0.0
  3
*D12
  1

  0
LINE
  5
1FA
330
1F9
100
AcDbEntity
  8
寸法
  6
Continuous
 62
     4
370
    13
100
AcDbLine
 10
256.673262889787
 20
191.6820944515206
 30
0.0
 11
256.673262889787
 21
212.84804172977
 31
0.0
  0
LINE
  5
1FB
330
1F9
100
AcDbEntity
  8
寸法
  6
Continuous
 62
     4
370
    13
100
AcDbLine
 10
263.748262889787
 20
211.84804172977
 30
0.0
 11
259.598262889787
 21
211.84804172977
 31
0.0
  0
INSERT
  5
1FC
330
1F9
100
AcDbEntity
  8
寸法
 62
     4
370
    13
100
AcDbBlockReference
  2
_OPEN
 10
266.673262889787
 20
211.84804172977
 30
0.0
 41
2.925
 42
2.925
 43
2.925
  0
INSERT
  5
1FD
330
1F9
100
AcDbEntity
  8
寸法
 62
     4
370
    13
100
AcDbBlockReference
  2
_OPEN
 10
256.673262889787
 20
211.84804172977
 30
0.0
 41
2.925
 42
2.925
 43
2.925
 50
180.0
  0
MTEXT
  5
1FE
330
1F9
100
AcDbEntity
  8
寸法
 62
     7
100
AcDbMText
 10
261.673262889787
 20
215.1230417297701
 30
0.0
 40
3.5
 41
0.0
 71
     5
 72
     1
  1
\A1;10
  7
TextStyle1
 73
     1
 44
1.0
  0
POINT
  5
1FF
330
1F9
100
AcDbEntity
  8
Defpoints
 62
     0
100
AcDbPoint
 10
266.673262889787
 20
200.6820944515206
 30
0.0
  0
POINT
  5
200
330
1F9
100
AcDbEntity
  8
Defpoints
 62
     0
100
AcDbPoint
 10
256.673262889787
 20
190.6820944515206
 30
0.0
  0
POINT
  5
201
330
1F9
100
AcDbEntity
  8
Defpoints
 62
     0
100
AcDbPoint
 10
256.673262889787
 20
211.84804172977
 30
0.0
  0
ENDBLK
  5
203
330
1F9
100
AcDbEntity
  8
0
100
AcDbBlockEnd
  0
BLOCK
  5
20F
330
205
100
AcDbEntity
  8
0
100
AcDbBlockBegin
  2
*D13
 70
     1
 10
0.0
 20
0.0
 30
0.0
  3
*D13
  1

  0
LINE
  5
206
330
205
100
AcDbEntity
  8
寸法
  6
Continuous
 62
     4
370
    13
100
AcDbLine
 10
265.673262889787
 20
200.6820944515206
 30
0.0
 11
238.388004296702
 21
200.6820944515206
 31
0.0
  0
LINE
  5
207
330
205
100
AcDbEntity
  8
寸法
  6
Continuous
 62
     4
370
    13
100
AcDbLine
 10
255.673262889787
 20
190.6820944515206
 30
0.0
 11
238.388004296702
 21
190.6820944515206
 31
0.0
  0
LINE
  5
208
330
205
100
AcDbEntity
  8
寸法
  6
Continuous
 62
     4
370
    13
100
AcDbLine
 10
239.388004296702
 20
197.7570944515206
 30
0.0
 11
239.388004296702
 21
193.6070944515206
 31
0.0
  0
INSERT
  5
209
330
205
100
AcDbEntity
  8
寸法
 62
     4
370
    13
100
AcDbBlockReference
  2
_OPEN
 10
239.388004296702
 20
200.6820944515206
 30
0.0
 41
2.925
 42
2.925
 43
2.925
 50
90.0
  0
INSERT
  5
20A
330
205
100
AcDbEntity
  8
寸法
 62
     4
370
    13
100
AcDbBlockReference
  2
_OPEN
 10
239.388004296702
 20
190.6820944515206
 30
0.0
 41
2.925
 42
2.925
 43
2.925
 50
270.0
  0
MTEXT
  5
20B
330
205
100
AcDbEntity
  8
寸法
 62
     7
100
AcDbMText
 10
236.113004296702
 20
195.6820944515206
 30
0.0
 40
3.5
 41
0.0
 71
     5
 72
     1
  1
\A1;10
  7
TextStyle1
 11
6.123031769111886E-17
 21
1.0
 31
0.0
 73
     1
 44
1.0
  0
POINT
  5
20C
330
205
100
AcDbEntity
  8
Defpoints
 62
     0
100
AcDbPoint
 10
266.673262889787
 20
200.6820944515206
 30
0.0
  0
POINT
  5
20D
330
205
100
AcDbEntity
  8
Defpoints
 62
     0
100
AcDbPoint
 10
256.673262889787
 20
190.6820944515206
 30
0.0
  0
POINT
  5
20E
330
205
100
AcDbEntity
  8
Defpoints
 62
     0
100
AcDbPoint
 10
239.388004296702
 20
190.6820944515206
 30
0.0
  0
ENDBLK
  5
210
330
205
100
AcDbEntity
  8
0
100
AcDbBlockEnd
  0
BLOCK
  5
21B
330
212
100
AcDbEntity
  8
0
100
AcDbBlockBegin
  2
*D14
 70
     1
 10
0.0
 20
0.0
 30
0.0
  3
*D14
  1

  0
LINE
  5
213
330
212
100
AcDbEntity
  8
寸法
  6
Continuous
 62
     4
370
    13
100
AcDbLine
 10
250.673262889787
 20
175.6820944515206
 30
0.0
 11
238.388004296702
 21
175.6820944515206
 31
0.0
  0
LINE
  5
214
330
212
100
AcDbEntity
  8
寸法
  6
Continuous
 62
     4
370
    13
100
AcDbLine
 10
239.388004296702
 20
187.7570944515206
 30
0.0
 11
239.388004296702
 21
178.6070944515206
 31
0.0
  0
INSERT
  5
215
330
212
100
AcDbEntity
  8
寸法
 62
     4
370
    13
100
AcDbBlockReference
  2
_OPEN
 10
239.388004296702
 20
190.6820944515206
 30
0.0
 41
2.925
 42
2.925
 43
2.925
 50
90.0
  0
INSERT
  5
216
330
212
100
AcDbEntity
  8
寸法
 62
     4
370
    13
100
AcDbBlockReference
  2
_OPEN
 10
239.388004296702
 20
175.6820944515206
 30
0.0
 41
2.925
 42
2.925
 43
2.925
 50
270.0
  0
MTEXT
  5
217
330
212
100
AcDbEntity
  8
寸法
 62
     7
100
AcDbMText
 10
236.113004296702
 20
183.1820944515206
 30
0.0
 40
3.5
 41
0.0
 71
     5
 72
     1
  1
\A1;15
  7
TextStyle1
 11
6.123031769111886E-17
 21
1.0
 31
0.0
 73
     1
 44
1.0
  0
POINT
  5
218
330
212
100
AcDbEntity
  8
Defpoints
 62
     0
100
AcDbPoint
 10
256.673262889787
 20
190.6820944515206
 30
0.0
  0
POINT
  5
219
330
212
100
AcDbEntity
  8
Defpoints
 62
     0
100
AcDbPoint
 10
251.673262889787
 20
175.6820944515206
 30
0.0
  0
POINT
  5
21A
330
212
100
AcDbEntity
  8
Defpoints
 62
     0
100
AcDbPoint
 10
239.388004296702
 20
175.6820944515206
 30
0.0
  0
ENDBLK
  5
21C
330
212
100
AcDbEntity
  8
0
100
AcDbBlockEnd
  0
BLOCK
  5
227
330
21E
100
AcDbEntity
  8
0
100
AcDbBlockBegin
  2
*D15
 70
     1
 10
0.0
 20
0.0
 30
0.0
  3
*D15
  1

  0
LINE
  5
21F
330
21E
100
AcDbEntity
  8
寸法
  6
Continuous
 62
     4
370
    13
100
AcDbLine
 10
250.673262889787
 20
165.6820944515206
 30
0.0
 11
238.388004296702
 21
165.6820944515206
 31
0.0
  0
LINE
  5
220
330
21E
100
AcDbEntity
  8
寸法
  6
Continuous
 62
     4
370
    13
100
AcDbLine
 10
239.388004296702
 20
172.7570944515206
 30
0.0
 11
239.388004296702
 21
168.6070944515206
 31
0.0
  0
INSERT
  5
221
330
21E
100
AcDbEntity
  8
寸法
 62
     4
370
    13
100
AcDbBlockReference
  2
_OPEN
 10
239.388004296702
 20
175.6820944515206
 30
0.0
 41
2.925
 42
2.925
 43
2.925
 50
90.0
  0
INSERT
  5
222
330
21E
100
AcDbEntity
  8
寸法
 62
     4
370
    13
100
AcDbBlockReference
  2
_OPEN
 10
239.388004296702
 20
165.6820944515206
 30
0.0
 41
2.925
 42
2.925
 43
2.925
 50
270.0
  0
MTEXT
  5
223
330
21E
100
AcDbEntity
  8
寸法
 62
     7
100
AcDbMText
 10
236.113004296702
 20
170.6820944515206
 30
0.0
 40
3.5
 41
0.0
 71
     5
 72
     1
  1
\A1;10
  7
TextStyle1
 11
6.123031769111886E-17
 21
1.0
 31
0.0
 73
     1
 44
1.0
  0
POINT
  5
224
330
21E
100
AcDbEntity
  8
Defpoints
 62
     0
100
AcDbPoint
 10
251.673262889787
 20
175.6820944515206
 30
0.0
  0
POINT
  5
225
330
21E
100
AcDbEntity
  8
Defpoints
 62
     0
100
AcDbPoint
 10
251.673262889787
 20
165.6820944515206
 30
0.0
  0
POINT
  5
226
330
21E
100
AcDbEntity
  8
Defpoints
 62
     0
100
AcDbPoint
 10
239.388004296702
 20
165.6820944515206
 30
0.0
  0
ENDBLK
  5
228
330
21E
100
AcDbEntity
  8
0
100
AcDbBlockEnd
  0
BLOCK
  5
232
330
22A
100
AcDbEntity
  8
0
100
AcDbBlockBegin
  2
*D16
 70
     1
 10
0.0
 20
0.0
 30
0.0
  3
*D16
  1

  0
LINE
  5
22B
330
22A
100
AcDbEntity
  8
寸法
  6
Continuous
 62
     4
370
    13
100
AcDbLine
 10
239.388004296702
 20
168.6070944515206
 30
0.0
 11
239.388004296702
 21
172.7570944515206
 31
0.0
  0
INSERT
  5
22C
330
22A
100
AcDbEntity
  8
寸法
 62
     4
370
    13
100
AcDbBlockReference
  2
_OPEN
 10
239.388004296702
 20
165.6820944515206
 30
0.0
 41
2.925
 42
2.925
 43
2.925
 50
270.0
  0
INSERT
  5
22D
330
22A
100
AcDbEntity
  8
寸法
 62
     4
370
    13
100
AcDbBlockReference
  2
_OPEN
 10
239.388004296702
 20
175.6820944515206
 30
0.0
 41
2.925
 42
2.925
 43
2.925
 50
90.0
  0
MTEXT
  5
22E
330
22A
100
AcDbEntity
  8
寸法
 62
     7
100
AcDbMText
 10
236.113004296702
 20
170.6820944515206
 30
0.0
 40
3.5
 41
0.0
 71
     5
 72
     1
  1
\A1;10
  7
TextStyle1
 11
6.123031769111886E-17
 21
1.0
 31
0.0
 73
     1
 44
1.0
  0
POINT
  5
22F
330
22A
100
AcDbEntity
  8
Defpoints
 62
     0
100
AcDbPoint
 10
251.673262889787
 20
165.6820944515206
 30
0.0
  0
POINT
  5
230
330
22A
100
AcDbEntity
  8
Defpoints
 62
     0
100
AcDbPoint
 10
251.673262889787
 20
175.6820944515206
 30
0.0
  0
POINT
  5
231
330
22A
100
AcDbEntity
  8
Defpoints
 62
     0
100
AcDbPoint
 10
239.388004296702
 20
175.6820944515206
 30
0.0
  0
ENDBLK
  5
233
330
22A
100
AcDbEntity
  8
0
100
AcDbBlockEnd
  0
BLOCK
  5
23F
330
235
100
AcDbEntity
  8
0
100
AcDbBlockBegin
  2
*D17
 70
     1
 10
0.0
 20
0.0
 30
0.0
  3
*D17
  1

  0
LINE
  5
236
330
235
100
AcDbEntity
  8
寸法
  6
Continuous
 62
     4
370
    13
100
AcDbLine
 10
251.673262889787
 20
164.6820944515206
 30
0.0
 11
251.673262889787
 21
151.7563741670097
 31
0.0
  0
LINE
  5
237
330
235
100
AcDbEntity
  8
寸法
  6
Continuous
 62
     4
370
    13
100
AcDbLine
 10
281.673262889787
 20
164.6820944515205
 30
0.0
 11
281.673262889787
 21
151.7563741670097
 31
0.0
  0
LINE
  5
238
330
235
100
AcDbEntity
  8
寸法
  6
Continuous
 62
     4
370
    13
100
AcDbLine
 10
254.598262889787
 20
152.7563741670097
 30
0.0
 11
278.748262889787
 21
152.7563741670097
 31
0.0
  0
INSERT
  5
239
330
235
100
AcDbEntity
  8
寸法
 62
     4
370
    13
100
AcDbBlockReference
  2
_OPEN
 10
251.673262889787
 20
152.7563741670097
 30
0.0
 41
2.925
 42
2.925
 43
2.925
 50
180.0
  0
INSERT
  5
23A
330
235
100
AcDbEntity
  8
寸法
 62
     4
370
    13
100
AcDbBlockReference
  2
_OPEN
 10
281.673262889787
 20
152.7563741670097
 30
0.0
 41
2.925
 42
2.925
 43
2.925
  0
MTEXT
  5
23B
330
235
100
AcDbEntity
  8
寸法
 62
     7
100
AcDbMText
 10
266.673262889787
 20
156.0313741670097
 30
0.0
 40
3.5
 41
0.0
 71
     5
 72
     1
  1
\A1;30
  7
TextStyle1
 73
     1
 44
1.0
  0
POINT
  5
23C
330
235
100
AcDbEntity
  8
Defpoints
 62
     0
100
AcDbPoint
 10
251.673262889787
 20
165.6820944515206
 30
0.0
  0
POINT
  5
23D
330
235
100
AcDbEntity
  8
Defpoints
 62
     0
100
AcDbPoint
 10
281.673262889787
 20
165.6820944515205
 30
0.0
  0
POINT
  5
23E
330
235
100
AcDbEntity
  8
Defpoints
 62
     0
100
AcDbPoint
 10
281.673262889787
 20
152.7563741670097
 30
0.0
  0
ENDBLK
  5
240
330
235
100
AcDbEntity
  8
0
100
AcDbBlockEnd
  0
BLOCK
  5
243
330
242
100
AcDbEntity
  8
0
100
AcDbBlockBegin
  2
_ORIGIN
 70
     0
 10
0.0
 20
0.0
 30
0.0
  3
_ORIGIN
  1

  0
CIRCLE
  5
245
330
242
100
AcDbEntity
  8
0
  6
ByBlock
 62
     0
370
    -2
100
AcDbCircle
 10
0.0
 20
0.0
 30
0.0
 40
0.5
  0
LINE
  5
246
330
242
100
AcDbEntity
  8
0
  6
ByBlock
 62
     0
370
    -2
100
AcDbLine
 10
0.0
 20
0.0
 30
0.0
 11
-1.0
 21
0.0
 31
0.0
  0
ENDBLK
  5
244
330
242
100
AcDbEntity
  8
0
100
AcDbBlockEnd
  0
BLOCK
  5
251
330
247
100
AcDbEntity
  8
0
100
AcDbBlockBegin
  2
*D19
 70
     1
 10
0.0
 20
0.0
 30
0.0
  3
*D19
  1

  0
LINE
  5
248
330
247
100
AcDbEntity
  8
寸法
  6
Continuous
 62
     4
370
    13
100
AcDbLine
 10
223.4001564871444
 20
200.682442617477
 30
0.0
 11
207.7076370460379
 21
200.682442617477
 31
0.0
  0
LINE
  5
249
330
247
100
AcDbEntity
  8
寸法
  6
Continuous
 62
     4
370
    13
100
AcDbLine
 10
220.4001564871444
 20
190.682442617477
 30
0.0
 11
207.7076370460379
 21
190.682442617477
 31
0.0
  0
LINE
  5
24A
330
247
100
AcDbEntity
  8
寸法
  6
Continuous
 62
     4
370
    13
100
AcDbLine
 10
208.7076370460379
 20
198.682442617477
 30
0.0
 11
208.7076370460379
 21
192.682442617477
 31
0.0
  0
INSERT
  5
24B
330
247
100
AcDbEntity
  8
寸法
 62
     4
370
    13
100
AcDbBlockReference
  2
_ORIGIN
 10
208.7076370460379
 20
200.682442617477
 30
0.0
 41
2.0
 42
2.0
 43
2.0
 50
90.0
  0
INSERT
  5
24C
330
247
100
AcDbEntity
  8
寸法
 62
     4
370
    13
100
AcDbBlockReference
  2
_OPEN
 10
208.7076370460379
 20
190.682442617477
 30
0.0
 41
2.0
 42
2.0
 43
2.0
 50
270.0
  0
MTEXT
  5
24D
330
247
100
AcDbEntity
  8
寸法
 62
     7
100
AcDbMText
 10
204.8411661442443
 20
190.682442617477
 30
0.0
 40
3.5
 41
0.0
 71
     5
 72
     1
  1
\A1;10
  7
TextStyle1
 73
     1
 44
1.0
  0
POINT
  5
24E
330
247
100
AcDbEntity
  8
Defpoints
 62
     0
100
AcDbPoint
 10
224.4001564871444
 20
200.682442617477
 30
0.0
  0
POINT
  5
24F
330
247
100
AcDbEntity
  8
Defpoints
 62
     0
100
AcDbPoint
 10
221.4001564871444
 20
190.682442617477
 30
0.0
  0
POINT
  5
250
330
247
100
AcDbEntity
  8
Defpoints
 62
     0
100
AcDbPoint
 10
208.7076370460379
 20
190.682442617477
 30
0.0
  0
ENDBLK
  5
252
330
247
100
AcDbEntity
  8
0
100
AcDbBlockEnd
  0
BLOCK
  5
25D
330
254
100
AcDbEntity
  8
0
100
AcDbBlockBegin
  2
*D20
 70
     1
 10
0.0
 20
0.0
 30
0.0
  3
*D20
  1

  0
LINE
  5
255
330
254
100
AcDbEntity
  8
寸法
  6
Continuous
 62
     4
370
    13
100
AcDbLine
 10
217.4001564871444
 20
175.682442617477
 30
0.0
 11
207.7076370460379
 21
175.682442617477
 31
0.0
  0
LINE
  5
256
330
254
100
AcDbEntity
  8
寸法
  6
Continuous
 62
     4
370
    13
100
AcDbLine
 10
208.7076370460379
 20
198.682442617477
 30
0.0
 11
208.7076370460379
 21
177.682442617477
 31
0.0
  0
INSERT
  5
257
330
254
100
AcDbEntity
  8
寸法
 62
     4
370
    13
100
AcDbBlockReference
  2
_ORIGIN
 10
208.7076370460379
 20
200.682442617477
 30
0.0
 41
2.0
 42
2.0
 43
2.0
 50
90.0
  0
INSERT
  5
258
330
254
100
AcDbEntity
  8
寸法
 62
     4
370
    13
100
AcDbBlockReference
  2
_OPEN
 10
208.7076370460379
 20
175.682442617477
 30
0.0
 41
2.0
 42
2.0
 43
2.0
 50
270.0
  0
MTEXT
  5
259
330
254
100
AcDbEntity
  8
寸法
 62
     7
100
AcDbMText
 10
204.8411661442443
 20
175.682442617477
 30
0.0
 40
3.5
 41
0.0
 71
     5
 72
     1
  1
\A1;25
  7
TextStyle1
 73
     1
 44
1.0
  0
POINT
  5
25A
330
254
100
AcDbEntity
  8
Defpoints
 62
     0
100
AcDbPoint
 10
224.4001564871444
 20
200.682442617477
 30
0.0
  0
POINT
  5
25B
330
254
100
AcDbEntity
  8
Defpoints
 62
     0
100
AcDbPoint
 10
218.4001564871444
 20
175.682442617477
 30
0.0
  0
POINT
  5
25C
330
254
100
AcDbEntity
  8
Defpoints
 62
     0
100
AcDbPoint
 10
208.7076370460379
 20
175.682442617477
 30
0.0
  0
ENDBLK
  5
25E
330
254
100
AcDbEntity
  8
0
100
AcDbBlockEnd
  0
BLOCK
  5
269
330
260
100
AcDbEntity
  8
0
100
AcDbBlockBegin
  2
*D21
 70
     1
 10
0.0
 20
0.0
 30
0.0
  3
*D21
  1

  0
LINE
  5
261
330
260
100
AcDbEntity
  8
寸法
  6
Continuous
 62
     4
370
    13
100
AcDbLine
 10
217.4001564871444
 20
165.682442617477
 30
0.0
 11
207.7076370460379
 21
165.682442617477
 31
0.0
  0
LINE
  5
262
330
260
100
AcDbEntity
  8
寸法
  6
Continuous
 62
     4
370
    13
100
AcDbLine
 10
208.7076370460379
 20
198.682442617477
 30
0.0
 11
208.7076370460379
 21
167.682442617477
 31
0.0
  0
INSERT
  5
263
330
260
100
AcDbEntity
  8
寸法
 62
     4
370
    13
100
AcDbBlockReference
  2
_ORIGIN
 10
208.7076370460379
 20
200.682442617477
 30
0.0
 41
2.0
 42
2.0
 43
2.0
 50
90.0
  0
INSERT
  5
264
330
260
100
AcDbEntity
  8
寸法
 62
     4
370
    13
100
AcDbBlockReference
  2
_OPEN
 10
208.7076370460379
 20
165.682442617477
 30
0.0
 41
2.0
 42
2.0
 43
2.0
 50
270.0
  0
MTEXT
  5
265
330
260
100
AcDbEntity
  8
寸法
 62
     7
100
AcDbMText
 10
204.8411661442443
 20
165.682442617477
 30
0.0
 40
3.5
 41
0.0
 71
     5
 72
     1
  1
\A1;35
  7
TextStyle1
 73
     1
 44
1.0
  0
POINT
  5
266
330
260
100
AcDbEntity
  8
Defpoints
 62
     0
100
AcDbPoint
 10
224.4001564871444
 20
200.682442617477
 30
0.0
  0
POINT
  5
267
330
260
100
AcDbEntity
  8
Defpoints
 62
     0
100
AcDbPoint
 10
218.4001564871444
 20
165.682442617477
 30
0.0
  0
POINT
  5
268
330
260
100
AcDbEntity
  8
Defpoints
 62
     0
100
AcDbPoint
 10
208.7076370460379
 20
165.682442617477
 30
0.0
  0
ENDBLK
  5
26A
330
260
100
AcDbEntity
  8
0
100
AcDbBlockEnd
  0
BLOCK
  5
276
330
26C
100
AcDbEntity
  8
0
100
AcDbBlockBegin
  2
*D22
 70
     1
 10
0.0
 20
0.0
 30
0.0
  3
*D22
  1

  0
LINE
  5
26D
330
26C
100
AcDbEntity
  8
寸法
  6
Continuous
 62
     4
370
    13
100
AcDbLine
 10
178.4713893903047
 20
199.6076026222254
 30
0.0
 11
166.9150635890062
 21
206.2796504344481
 31
0.0
  0
LINE
  5
26E
330
26C
100
AcDbEntity
  8
寸法
  6
Continuous
 62
     4
370
    13
100
AcDbLine
 10
162.4713893903046
 20
171.8947897011233
 30
0.0
 11
150.9150635890062
 21
178.566837513346
 31
0.0
  0
LINE
  5
26F
330
26C
100
AcDbEntity
  8
寸法
  6
Continuous
 62
     4
370
    13
100
AcDbLine
 10
166.3185889927907
 20
203.2465261283786
 30
0.0
 11
153.2435889927906
 21
180.5999618194155
 31
0.0
  0
INSERT
  5
270
330
26C
100
AcDbEntity
  8
寸法
 62
     4
370
    13
100
AcDbBlockReference
  2
_OPEN
 10
167.7810889927907
 20
205.7796504344481
 30
0.0
 41
2.925
 42
2.925
 43
2.925
 50
60.0
  0
INSERT
  5
271
330
26C
100
AcDbEntity
  8
寸法
 62
     4
370
    13
100
AcDbBlockReference
  2
_OPEN
 10
151.7810889927906
 20
178.066837513346
 30
0.0
 41
2.925
 42
2.925
 43
2.925
 50
240.0
  0
MTEXT
  5
272
330
26C
100
AcDbEntity
  8
寸法
 62
     7
100
AcDbMText
 10
156.9448557953966
 20
193.560743973897
 30
0.0
 40
3.5
 41
0.0
 71
     5
 72
     1
  1
\A1;32
  7
TextStyle1
 11
0.5000000000000001
 21
0.8660254037844386
 31
0.0
 73
     1
 44
1.0
  0
POINT
  5
273
330
26C
100
AcDbEntity
  8
Defpoints
 62
     0
100
AcDbPoint
 10
179.3374147940891
 20
199.1076026222254
 30
0.0
  0
POINT
  5
274
330
26C
100
AcDbEntity
  8
Defpoints
 62
     0
100
AcDbPoint
 10
163.3374147940891
 20
171.3947897011233
 30
0.0
  0
POINT
  5
275
330
26C
100
AcDbEntity
  8
Defpoints
 62
     0
100
AcDbPoint
 10
151.7810889927906
 20
178.066837513346
 30
0.0
  0
ENDBLK
  5
277
330
26C
100
AcDbEntity
  8
0
100
AcDbBlockEnd
  0
BLOCK
  5
283
330
279
100
AcDbEntity
  8
0
100
AcDbBlockBegin
  2
*D23
 70
     1
 10
0.0
 20
0.0
 30
0.0
  3
*D23
  1

  0
LINE
  5
27A
330
279
100
AcDbEntity
  8
寸法
  6
Continuous
 62
     4
370
    13
100
AcDbLine
 10
251.673262889787
 20
176.6820944515206
 30
0.0
 11
251.673262889787
 21
212.84804172977
 31
0.0
  0
LINE
  5
27B
330
279
100
AcDbEntity
  8
寸法
  6
Continuous
 62
     4
370
    13
100
AcDbLine
 10
259.598262889787
 20
211.84804172977
 30
0.0
 11
262.523262889787
 21
211.84804172977
 31
0.0
  0
LINE
  5
27C
330
279
100
AcDbEntity
  8
寸法
  6
Continuous
 62
     4
370
    13
100
AcDbLine
 10
248.748262889787
 20
211.84804172977
 30
0.0
 11
245.823262889787
 21
211.84804172977
 31
0.0
  0
INSERT
  5
27D
330
279
100
AcDbEntity
  8
寸法
 62
     4
370
    13
100
AcDbBlockReference
  2
_OPEN
 10
256.673262889787
 20
211.84804172977
 30
0.0
 41
2.925
 42
2.925
 43
2.925
  0
INSERT
  5
27E
330
279
100
AcDbEntity
  8
寸法
 62
     4
370
    13
100
AcDbBlockReference
  2
_OPEN
 10
251.673262889787
 20
211.84804172977
 30
0.0
 41
2.925
 42
2.925
 43
2.925
 50
180.0
  0
MTEXT
  5
27F
330
279
100
AcDbEntity
  8
寸法
 62
     7
100
AcDbMText
 10
254.3875627015
 20
215.1230417297701
 30
0.0
 40
3.5
 41
0.0
 71
     5
 72
     1
  1
\A1;5
  7
TextStyle1
 73
     1
 44
1.0
  0
POINT
  5
280
330
279
100
AcDbEntity
  8
Defpoints
 62
     0
100
AcDbPoint
 10
256.673262889787
 20
190.6820944515206
 30
0.0
  0
POINT
  5
281
330
279
100
AcDbEntity
  8
Defpoints
 62
     0
100
AcDbPoint
 10
251.673262889787
 20
175.6820944515206
 30
0.0
  0
POINT
  5
282
330
279
100
AcDbEntity
  8
Defpoints
 62
     0
100
AcDbPoint
 10
251.673262889787
 20
211.84804172977
 30
0.0
  0
ENDBLK
  5
284
330
279
100
AcDbEntity
  8
0
100
AcDbBlockEnd
  0
BLOCK
  5
286
330
285
100
AcDbEntity
  8
0
100
AcDbBlockBegin
  2
BV_ATTRIBUTE1
 70
     0
 10
0.0
 20
0.0
 30
0.0
  3
BV_ATTRIBUTE1
  1

  0
LINE
  5
288
330
285
100
AcDbEntity
  8
寸法
  6
Continuous
 62
     4
370
    13
100
AcDbLine
 10
0.0
 20
0.0
 30
0.0
 11
-1.706623131207067
 21
-2.432835277619304
 31
0.0
  0
LINE
  5
289
330
285
100
AcDbEntity
  8
寸法
  6
Continuous
 62
     4
370
    13
100
AcDbLine
 10
0.0
 20
0.0
 30
0.0
 11
-2.446163892176401
 21
-1.687463247781253
 31
0.0
  0
LINE
  5
28A
330
285
100
AcDbEntity
  8
寸法
  6
Continuous
 62
     4
370
    13
100
AcDbLine
 10
-3.549390618276448
 20
-3.521622671282529
 30
0.0
 11
12.16527964590742
 21
12.07010701581302
 31
0.0
  0
TEXT
  5
28B
330
285
100
AcDbEntity
  8
寸法
 62
     7
100
AcDbText
 10
5.738316607249516
 20
7.102116551862636
 30
0.0
 40
3.5
  1
2-R5
 50
44.77500000000006
 41
0.4999999999999995
  7
TextStyle1
 72
     5
 11
10.70746347283654
 21
12.03238829165818
 31
0.0
100
AcDbText
  0
ENDBLK
  5
287
330
285
100
AcDbEntity
  8
0
100
AcDbBlockEnd
  0
BLOCK
  5
28E
330
28D
100
AcDbEntity
  8
0
100
AcDbBlockBegin
  2
BV_ATTRIBUTE2
 70
     0
 10
0.0
 20
0.0
 30
0.0
  3
BV_ATTRIBUTE2
  1

  0
LINE
  5
290
330
28D
100
AcDbEntity
  8
寸法
  6
Continuous
 62
     4
370
    13
100
AcDbLine
 10
0.0
 20
0.0
 30
0.0
 11
2.439518395093586
 21
-1.697056274847696
 31
0.0
  0
LINE
  5
291
330
28D
100
AcDbEntity
  8
寸法
  6
Continuous
 62
     4
370
    13
100
AcDbLine
 10
0.0
 20
0.0
 30
0.0
 11
1.697056274847739
 21
-2.439518395093586
 31
0.0
  0
LINE
  5
292
330
28D
100
AcDbEntity
  8
寸法
  6
Continuous
 62
     4
370
    13
100
AcDbLine
 10
0.0
 20
0.0
 30
0.0
 11
8.79474046850919
 21
-8.794740468509062
 31
0.0
  0
TEXT
  5
293
330
28D
100
AcDbEntity
  8
寸法
 62
     7
100
AcDbText
 10
3.617177297953873
 20
-2.202963735580667
 30
0.0
 40
3.5
  1
2-C3
 50
315.0000000000002
 41
0.499999999999999
  7
TextStyle1
 72
     5
 11
8.566924766259717
 21
-7.152711203886469
 31
0.0
100
AcDbText
  0
ENDBLK
  5
28F
330
28D
100
AcDbEntity
  8
0
100
AcDbBlockEnd
  0
BLOCK
  5
296
330
295
100
AcDbEntity
  8
0
100
AcDbBlockBegin
  2
BV_ATTRIBUTE3
 70
     0
 10
0.0
 20
0.0
 30
0.0
  3
BV_ATTRIBUTE3
  1

  0
LINE
  5
298
330
295
100
AcDbEntity
  8
寸法
  6
Continuous
 62
     4
370
    13
100
AcDbLine
 10
0.0
 20
0.0
 30
0.0
 11
-2.545735284534743
 21
1.664100916733958
 31
0.0
  0
LINE
  5
299
330
295
100
AcDbEntity
  8
寸法
  6
Continuous
 62
     4
370
    13
100
AcDbLine
 10
0.0
 20
0.0
 30
0.0
 11
-1.868419566429964
 21
2.399793391894747
 31
0.0
  0
LINE
  5
29A
330
295
100
AcDbEntity
  8
寸法
  6
Continuous
 62
     4
370
    13
100
AcDbLine
 10
0.0
 20
0.0
 30
0.0
 11
-20.92910626612945
 21
19.2683942252321
 31
0.0
  0
LINE
  5
29B
330
295
100
AcDbEntity
  8
寸法
  6
Continuous
 62
     4
370
    13
100
AcDbLine
 10
-20.92910626612945
 20
19.2683942252321
 30
0.0
 11
-33.16277520716289
 21
19.2683942252321
 31
0.0
  0
TEXT
  5
29C
330
295
100
AcDbEntity
  8
寸法
 62
     7
100
AcDbText
 10
-32.16277520716289
 20
20.2683942252321
 30
0.0
 40
3.5
  1
10キリ
 41
1.038421599169263
  7
TextStyle1
 72
     5
 11
-21.66277520716289
 21
20.2683942252321
 31
0.0
100
AcDbText
  0
ENDBLK
  5
297
330
295
100
AcDbEntity
  8
0
100
AcDbBlockEnd
  0
BLOCK
  5
29F
330
29E
100
AcDbEntity
  8
0
100
AcDbBlockBegin
  2
BV_ATTRIBUTE4
 70
     0
 10
0.0
 20
0.0
 30
0.0
  3
BV_ATTRIBUTE4
  1

  0
LINE
  5
2A1
330
29E
100
AcDbEntity
  8
寸法
  6
Continuous
 62
     4
370
    13
100
AcDbLine
 10
0.0
 20
0.0
 30
0.0
 11
2.26690849008304
 21
-2.027591156419234
 31
0.0
  0
LINE
  5
2A2
330
29E
100
AcDbEntity
  8
寸法
  6
Continuous
 62
     4
370
    13
100
AcDbLine
 10
0.0
 20
0.0
 30
0.0
 11
1.486775764212837
 21
-2.653205198801871
 31
0.0
  0
LINE
  5
2A3
330
29E
100
AcDbEntity
  8
寸法
  6
Continuous
 62
     4
370
    13
100
AcDbLine
 10
0.0
 20
0.0
 30
0.0
 11
19.2905153770237
 21
-24.05502646200783
 31
0.0
  0
LINE
  5
2A4
330
29E
100
AcDbEntity
  8
寸法
  6
Continuous
 62
     4
370
    13
100
AcDbLine
 10
19.2905153770237
 20
-24.05502646200783
 30
0.0
 11
34.61659046192747
 21
-24.05502646200783
 31
0.0
  0
TEXT
  5
2A5
330
29E
100
AcDbEntity
  8
寸法
 62
     7
100
AcDbText
 10
19.61659046192747
 20
-23.05502646200783
 30
0.0
 40
3.5
  1
2-M5深10
 41
0.645682001614205
  7
TextStyle1
 72
     5
 11
33.61659046192747
 21
-23.05502646200783
 31
0.0
100
AcDbText
  0
ENDBLK
  5
2A0
330
29E
100
AcDbEntity
  8
0
100
AcDbBlockEnd
  0
ENDSEC
  0
SECTION
  2
ENTITIES
  0
LINE
  5
75
330
1F
100
AcDbEntity
  8
図枠
  6
Continuous
 62
     6
370
    13
100
AcDbLine
 10
319.1845886393068
 20
297.0493726533517
 30
0.0
 11
319.1845886393068
 21
18.04937265335165
 31
0.0
  0
LINE
  5
76
330
1F
100
AcDbEntity
  8
図枠
  6
Continuous
 62
     6
370
    13
100
AcDbLine
 10
319.1845886393068
 20
297.0493726533517
 30
0.0
 11
139.684487203306
 21
297.0493726533517
 31
0.0
  0
LINE
  5
77
330
1F
100
AcDbEntity
  8
図枠
  6
Continuous
 62
     6
370
    13
100
AcDbLine
 10
139.684487203306
 20
18.04937265335165
 30
0.0
 11
319.1845886393068
 21
18.04937265335165
 31
0.0
  0
LINE
  5
78
330
1F
100
AcDbEntity
  8
図枠
  6
Continuous
 62
     4
370
    13
100
AcDbLine
 10
206.1061390015032
 20
48.0481686736697
 30
0.0
 11
301.903075128682
 21
48.04825696569535
 31
0.0
  0
LINE
  5
79
330
1F
100
AcDbEntity
  8
図枠
  6
Continuous
 62
     4
370
    13
100
AcDbLine
 10
230.9660418767799
 20
38.04857281334529
 30
0.0
 11
319.1845886393068
 21
38.04857281334529
 31
0.0
  0
LINE
  5
7A
330
1F
100
AcDbEntity
  8
図枠
  6
Continuous
 62
     4
370
    13
100
AcDbLine
 10
230.9660418767799
 20
28.04897273334848
 30
0.0
 11
319.1845886393068
 21
28.04897273334848
 31
0.0
  0
LINE
  5
7B
330
1F
100
AcDbEntity
  8
図枠
  6
Continuous
 62
     6
370
    13
100
AcDbLine
 10
206.1061390015032
 20
28.04901142361977
 30
0.0
 11
139.684487203306
 21
28.04957273335328
 31
0.0
  0
LINE
  5
7C
330
1F
100
AcDbEntity
  8
図枠
  6
Continuous
 62
     4
370
    13
100
AcDbLine
 10
139.684487203306
 20
50.54937291335169
 30
0.0
 11
206.1061390015032
 21
50.54825029388468
 31
0.0
  0
LINE
  5
7D
330
1F
100
AcDbEntity
  8
図枠
  6
Continuous
 62
     6
370
    13
100
AcDbLine
 10
139.684487203306
 20
43.04947285335249
 30
0.0
 11
206.1061390015032
 21
43.04844378550774
 31
0.0
  0
LINE
  5
7E
330
1F
100
AcDbEntity
  8
図枠
  6
Continuous
 62
     4
370
    13
100
AcDbLine
 10
244.9232113787529
 20
58.04851101055566
 30
0.0
 11
244.9232113787529
 21
38.04854232641578
 31
0.0
  0
LINE
  5
7F
330
1F
100
AcDbEntity
  8
図枠
  6
Continuous
 62
     4
370
    13
100
AcDbLine
 10
251.1845880953068
 20
297.0493726533517
 30
0.0
 11
251.1845880953068
 21
287.0497725733549
 31
0.0
  0
LINE
  5
80
330
1F
100
AcDbEntity
  8
図枠
  6
Continuous
 62
     4
370
    13
100
AcDbLine
 10
251.1845880953068
 20
287.0497725733549
 30
0.0
 11
319.1845886393068
 21
287.0497725733549
 31
0.0
  0
LINE
  5
81
330
1F
100
AcDbEntity
  8
図枠
  6
Continuous
 62
     4
370
    13
100
AcDbLine
 10
261.1845881753068
 20
297.0493726533517
 30
0.0
 11
261.1845881753068
 21
287.0497725733549
 31
0.0
  0
LINE
  5
82
330
1F
100
AcDbEntity
  8
図枠
  6
Continuous
 62
     4
370
    13
100
AcDbLine
 10
279.1845883193068
 20
297.0493726533517
 30
0.0
 11
279.1845883193068
 21
287.0497725733549
 31
0.0
  0
LINE
  5
83
330
1F
100
AcDbEntity
  8
図枠
  6
Continuous
 62
     4
370
    13
100
AcDbLine
 10
251.1845880953068
 20
292.0495726133533
 30
0.0
 11
319.1845886393068
 21
292.0495726133533
 31
0.0
  0
LINE
  5
84
330
1F
100
AcDbEntity
  8
図枠
  6
Continuous
 62
     6
370
    13
100
AcDbLine
 10
319.1845886393068
 20
58.04787297333973
 30
0.0
 11
139.684487203306
 21
58.04937297335172
 31
0.0
  0
LINE
  5
85
330
1F
100
AcDbEntity
  8
図枠
  6
Continuous
 62
     6
370
    13
100
AcDbLine
 10
139.684487203306
 20
297.0493726533517
 30
0.0
 11
139.684487203306
 21
18.04937265335165
 31
0.0
  0
LINE
  5
86
330
1F
100
AcDbEntity
  8
図枠
  6
Continuous
 62
     4
370
    13
100
AcDbLine
 10
301.903075128682
 20
38.04857281334529
 30
0.0
 11
301.903075128682
 21
58.04787297333973
 31
0.0
  0
LINE
  5
87
330
1F
100
AcDbEntity
  8
図枠
  6
Continuous
 62
     6
370
    13
100
AcDbLine
 10
206.1061390015032
 20
18.04937265335165
 30
0.0
 11
206.1061390015032
 21
58.04787297333973
 31
0.0
  0
LINE
  5
88
330
1F
100
AcDbEntity
  8
図枠
  6
Continuous
 62
     4
370
    13
100
AcDbLine
 10
183.9655884021041
 20
43.04878680812266
 30
0.0
 11
183.9655884021041
 21
28.04917132489937
 31
0.0
  0
LINE
  5
89
330
1F
100
AcDbEntity
  8
図枠
  6
Continuous
 62
     4
370
    13
100
AcDbLine
 10
161.825037802705
 20
43.04912983073758
 30
0.0
 11
161.825037802705
 21
28.05017273335808
 31
0.0
  0
LINE
  5
8A
330
1F
100
AcDbEntity
  8
図枠
  6
Continuous
 62
     4
370
    13
100
AcDbLine
 10
206.1061390015032
 20
28.04897273334848
 30
0.0
 11
230.9660418767799
 21
28.04897273334848
 31
0.0
  0
LINE
  5
8B
330
1F
100
AcDbEntity
  8
図枠
  6
Continuous
 62
     4
370
    13
100
AcDbLine
 10
206.1061390015032
 20
38.04857281334529
 30
0.0
 11
230.9660418767799
 21
38.04857281334529
 31
0.0
  0
LINE
  5
8C
330
1F
100
AcDbEntity
  8
図枠
  6
Continuous
 62
     4
370
    13
100
AcDbLine
 10
230.9660418767799
 20
38.04857281334529
 30
0.0
 11
230.9660418767799
 21
18.04937265335165
 31
0.0
  0
LINE
  5
8D
330
1F
100
AcDbEntity
  8
図枠外コメント
  6
Continuous
 62
     2
370
    13
100
AcDbLine
 10
329.6775831039637
 20
105.3708660177989
 30
0.0
 11
446.1911154132999
 21
105.3708660177989
 31
0.0
  0
LINE
  5
8E
330
1F
100
AcDbEntity
  8
図枠外コメント
  6
Continuous
 62
     2
370
    13
100
AcDbLine
 10
446.1911154132999
 20
105.3708660177989
 30
0.0
 11
446.1911154132999
 21
59.83127334803751
 31
0.0
  0
LINE
  5
8F
330
1F
100
AcDbEntity
  8
図枠外コメント
  6
Continuous
 62
     2
370
    13
100
AcDbLine
 10
446.1911154132999
 20
59.83127334803751
 30
0.0
 11
329.6775831039637
 21
59.83127334803751
 31
0.0
  0
LINE
  5
90
330
1F
100
AcDbEntity
  8
図枠外コメント
  6
Continuous
 62
     2
370
    13
100
AcDbLine
 10
329.6775831039637
 20
59.83127334803751
 30
0.0
 11
329.6775831039637
 21
105.3708660177989
 31
0.0
  0
LINE
  5
91
330
1F
100
AcDbEntity
  8
図形
  6
Continuous
 62
     4
370
    13
100
AcDbLine
 10
238.2008034065978
 20
279.3802223101054
 30
0.0
 11
243.2008034065978
 21
279.3802223101054
 31
0.0
  0
LINE
  5
92
330
1F
100
AcDbEntity
  8
図形
  6
Continuous
 62
     4
370
    13
100
AcDbLine
 10
238.2008034065978
 20
249.3802223101054
 30
0.0
 11
243.2008034065978
 21
249.3802223101054
 31
0.0
  0
LINE
  5
93
330
1F
100
AcDbEntity
  8
図形
  6
Continuous
 62
     4
370
    13
100
AcDbLine
 10
238.2008034065978
 20
259.3802223101054
 30
0.0
 11
243.2008034065978
 21
259.3802223101054
 31
0.0
  0
LINE
  5
94
330
1F
100
AcDbEntity
  8
図形
  6
Continuous
 62
     4
370
    13
100
AcDbLine
 10
238.2008034065978
 20
269.3802223101054
 30
0.0
 11
243.2008034065978
 21
269.3802223101054
 31
0.0
  0
LINE
  5
95
330
1F
100
AcDbEntity
  8
図形
  6
Continuous
 62
     4
370
    13
100
AcDbLine
 10
238.2008034065978
 20
234.3802223101054
 30
0.0
 11
243.2008034065978
 21
234.3802223101054
 31
0.0
  0
LINE
  5
96
330
1F
100
AcDbEntity
  8
図形
  6
Continuous
 62
     4
370
    13
100
AcDbLine
 10
243.2008034065978
 20
284.3802223101054
 30
0.0
 11
243.2008034065978
 21
229.3802223101054
 31
0.0
  0
LINE
  5
97
330
1F
100
AcDbEntity
  8
図形
  6
chain_double_dash
 62
     7
370
    13
100
AcDbLine
 10
151.1913486639845
 20
219.9445804079685
 30
0.0
 11
209.4003023654571
 21
219.9445804079685
 31
0.0
  0
LINE
  5
98
330
1F
100
AcDbEntity
  8
図形
  6
chain
 62
     7
370
    13
100
AcDbLine
 10
151.1913486639845
 20
226.9445804079685
 30
0.0
 11
209.4003023654571
 21
226.9445804079685
 31
0.0
  0
LINE
  5
99
330
1F
100
AcDbEntity
  8
図形
  6
dashed
 62
     7
370
    13
100
AcDbLine
 10
151.1913486639845
 20
233.9445804079685
 30
0.0
 11
209.4003023654571
 21
233.9445804079685
 31
0.0
  0
LINE
  5
9A
330
1F
100
AcDbEntity
  8
図形
  6
Continuous
 62
     7
370
    13
100
AcDbLine
 10
151.1913486639845
 20
240.9445804079686
 30
0.0
 11
209.4003023654571
 21
240.9445804079686
 31
0.0
  0
LINE
  5
9B
330
1F
100
AcDbEntity
  8
図形
  6
Continuous
 62
     7
370
    13
100
AcDbLine
 10
201.4379709062201
 20
85.01061234019242
 30
0.0
 11
201.4379709062201
 21
112.0106123401924
 31
0.0
  0
LINE
  5
9C
330
1F
100
AcDbEntity
  8
図形
  6
Continuous
 62
     7
370
    13
100
AcDbLine
 10
181.4379709062201
 20
85.01061234019242
 30
0.0
 11
181.4379709062201
 21
112.0106123401924
 31
0.0
  0
LINE
  5
9D
330
1F
100
AcDbEntity
  8
図形
  6
Continuous
 62
     7
370
    13
100
AcDbLine
 10
228.4443190014215
 20
117.0106123401924
 30
0.0
 11
258.4443190014216
 21
117.0106123401924
 31
0.0
  0
LINE
  5
9E
330
1F
100
AcDbEntity
  8
図形
  6
Continuous
 62
     7
370
    13
100
AcDbLine
 10
228.4443190014215
 20
82.01061234019242
 30
0.0
 11
258.4443190014216
 21
82.01061234019242
 31
0.0
  0
LINE
  5
9F
330
1F
100
AcDbEntity
  8
図形
  6
Continuous
 62
     7
370
    13
100
AcDbLine
 10
228.4443190014215
 20
82.01061234019242
 30
0.0
 11
228.4443190014215
 21
117.0106123401924
 31
0.0
  0
LINE
  5
A0
330
1F
100
AcDbEntity
  8
図形
  6
Continuous
 62
     7
370
    13
100
AcDbLine
 10
258.4443190014216
 20
82.01061234019242
 30
0.0
 11
258.4443190014216
 21
117.0106123401924
 31
0.0
  0
LINE
  5
A1
330
1F
100
AcDbEntity
  8
図形
  6
Continuous
 62
     7
370
    13
100
AcDbLine
 10
186.4379709062201
 20
117.0106123401924
 30
0.0
 11
196.4379709062201
 21
117.0106123401924
 31
0.0
  0
LINE
  5
A2
330
1F
100
AcDbEntity
  8
図形
  6
Continuous
 62
     7
370
    13
100
AcDbLine
 10
184.4379709062201
 20
82.01061234019242
 30
0.0
 11
198.4379709062201
 21
82.01061234019242
 31
0.0
  0
LINE
  5
A3
330
1F
100
AcDbEntity
  8
図形
  6
Continuous
 62
     7
370
    13
100
AcDbLine
 10
201.4379709062201
 20
85.01061234019242
 30
0.0
 11
198.4379709062201
 21
82.01061234019242
 31
0.0
  0
LINE
  5
A4
330
1F
100
AcDbEntity
  8
図形
  6
Continuous
 62
     7
370
    13
100
AcDbLine
 10
184.4379709062201
 20
82.01061234019242
 30
0.0
 11
181.4379709062201
 21
85.01061234019242
 31
0.0
  0
LINE
  5
A5
330
1F
100
AcDbEntity
  8
図形
  6
Continuous
 62
     7
370
    13
100
AcDbLine
 10
228.4443190014215
 20
85.01061234019242
 30
0.0
 11
258.4443190014216
 21
85.01061234019242
 31
0.0
  0
LINE
  5
A6
330
1F
100
AcDbEntity
  8
図形
  6
chain
 62
     2
370
    18
100
AcDbLine
 10
251.4443190014216
 20
100.5106123401924
 30
0.0
 11
251.4443190014216
 21
90.51061234019242
 31
0.0
  0
LINE
  5
A7
330
1F
100
AcDbEntity
  8
図形
  6
chain
 62
     2
370
    18
100
AcDbLine
 10
246.4443190014216
 20
95.51061234019242
 30
0.0
 11
256.4443190014216
 21
95.51061234019242
 31
0.0
  0
LINE
  5
A8
330
1F
100
AcDbEntity
  8
図形
  6
chain
 62
     2
370
    18
100
AcDbLine
 10
235.4443190014215
 20
100.5106123401924
 30
0.0
 11
235.4443190014215
 21
90.51061234019242
 31
0.0
  0
LINE
  5
A9
330
1F
100
AcDbEntity
  8
図形
  6
chain
 62
     2
370
    18
100
AcDbLine
 10
240.4443190014215
 20
95.51061234019242
 30
0.0
 11
230.4443190014215
 21
95.51061234019242
 31
0.0
  0
LINE
  5
AA
330
1F
100
AcDbEntity
  8
図形
  6
chain
 62
     2
370
    18
100
AcDbLine
 10
204.3343122300726
 20
95.51061234019242
 30
0.0
 11
184.9939762613234
 21
95.51061234019242
 31
0.0
  0
LINE
  5
AB
330
1F
100
AcDbEntity
  8
図形
  6
chain
 62
     2
370
    18
100
AcDbLine
 10
191.4379709062201
 20
122.0106123401924
 30
0.0
 11
191.4379709062201
 21
91.9003545042817
 31
0.0
  0
LINE
  5
AC
330
1F
100
AcDbEntity
  8
図形
  6
chain
 62
     2
370
    18
100
AcDbLine
 10
176.4379709062201
 20
107.0106123401924
 30
0.0
 11
206.4379709062201
 21
107.0106123401924
 31
0.0
  0
LINE
  5
AD
330
1F
100
AcDbEntity
  8
図形
  6
chain
 62
     2
370
    18
100
AcDbLine
 10
224.4053113860316
 20
107.0106123401924
 30
0.0
 11
262.6595714727183
 21
107.0106123401924
 31
0.0
  0
LINE
  5
AE
330
1F
100
AcDbEntity
  8
図形
  6
dashed
 62
     9
370
    18
100
AcDbLine
 10
228.4443190014215
 20
102.0106123401924
 30
0.0
 11
258.4443190014216
 21
102.0106123401924
 31
0.0
  0
LINE
  5
AF
330
1F
100
AcDbEntity
  8
図形
  6
dashed
 62
     9
370
    18
100
AcDbLine
 10
228.4443190014215
 20
112.0106123401924
 30
0.0
 11
258.4443190014216
 21
112.0106123401924
 31
0.0
  0
LINE
  5
B0
330
1F
100
AcDbEntity
  8
図形
  6
dashed
 62
     9
370
    18
100
AcDbLine
 10
201.4379709062201
 20
98.01061234019242
 30
0.0
 11
191.4379709062201
 21
98.01061234019237
 31
0.0
  0
LINE
  5
B1
330
1F
100
AcDbEntity
  8
図形
  6
dashed
 62
     9
370
    18
100
AcDbLine
 10
201.4379709062201
 20
97.51061234019245
 30
0.0
 11
188.9379709062201
 21
97.5106123401924
 31
0.0
  0
LINE
  5
B2
330
1F
100
AcDbEntity
  8
図形
  6
dashed
 62
     9
370
    18
100
AcDbLine
 10
191.4379709062201
 20
98.01061234019237
 30
0.0
 11
191.4379709062201
 21
93.01061234019237
 31
0.0
  0
LINE
  5
B3
330
1F
100
AcDbEntity
  8
図形
  6
dashed
 62
     9
370
    18
100
AcDbLine
 10
201.4379709062201
 20
93.01061234019242
 30
0.0
 11
191.4379709062201
 21
93.01061234019237
 31
0.0
  0
LINE
  5
B4
330
1F
100
AcDbEntity
  8
図形
  6
dashed
 62
     9
370
    18
100
AcDbLine
 10
201.4379709062201
 20
93.51061234019245
 30
0.0
 11
188.9379709062201
 21
93.5106123401924
 31
0.0
  0
LINE
  5
B5
330
1F
100
AcDbEntity
  8
図形
  6
dashed
 62
     9
370
    18
100
AcDbLine
 10
188.9379709062201
 20
97.5106123401924
 30
0.0
 11
188.9379709062201
 21
93.5106123401924
 31
0.0
  0
LINE
  5
B6
330
1F
100
AcDbEntity
  8
図形
  6
dashed
 62
     9
370
    18
100
AcDbLine
 10
188.9379709062201
 20
97.5106123401924
 30
0.0
 11
187.7832703678408
 21
95.51061234019237
 31
0.0
  0
LINE
  5
B7
330
1F
100
AcDbEntity
  8
図形
  6
dashed
 62
     9
370
    18
100
AcDbLine
 10
188.9379709062201
 20
93.5106123401924
 30
0.0
 11
187.7832703678408
 21
95.51061234019237
 31
0.0
  0
LINE
  5
B8
330
1F
100
AcDbEntity
  8
図形
  6
dashed
 62
     9
370
    18
100
AcDbLine
 10
191.4379709062201
 20
98.01061234019237
 30
0.0
 11
190.5719455024356
 21
97.5106123401924
 31
0.0
  0
LINE
  5
B9
330
1F
100
AcDbEntity
  8
図形
  6
dashed
 62
     9
370
    18
100
AcDbLine
 10
191.4379709062201
 20
93.01061234019237
 30
0.0
 11
190.5719455024356
 21
93.51061234019234
 31
0.0
  0
LINE
  5
BA
330
1F
100
AcDbEntity
  8
図形
  6
Continuous
 62
     2
370
    13
100
AcDbLine
 10
281.673262889787
 20
165.780689906424
 30
0.0
 11
281.5746674348835
 21
165.6820944515205
 31
0.0
  0
LINE
  5
BB
330
1F
100
AcDbEntity
  8
図形
  6
Continuous
 62
     2
370
    13
100
AcDbLine
 10
281.673262889787
 20
167.9020102499836
 30
0.0
 11
279.4533470913238
 21
165.6820944515205
 31
0.0
  0
LINE
  5
BC
330
1F
100
AcDbEntity
  8
図形
  6
Continuous
 62
     2
370
    13
100
AcDbLine
 10
281.673262889787
 20
170.0233305935433
 30
0.0
 11
277.3320267477642
 21
165.6820944515206
 31
0.0
  0
LINE
  5
BD
330
1F
100
AcDbEntity
  8
図形
  6
Continuous
 62
     2
370
    13
100
AcDbLine
 10
281.673262889787
 20
172.1446509371029
 30
0.0
 11
275.2107064042046
 21
165.6820944515206
 31
0.0
  0
LINE
  5
BE
330
1F
100
AcDbEntity
  8
図形
  6
Continuous
 62
     2
370
    13
100
AcDbLine
 10
281.673262889787
 20
174.2659712806626
 30
0.0
 11
273.089386060645
 21
165.6820944515206
 31
0.0
  0
LINE
  5
BF
330
1F
100
AcDbEntity
  8
図形
  6
Continuous
 62
     2
370
    13
100
AcDbLine
 10
281.673262889787
 20
176.3872916242222
 30
0.0
 11
270.9680657170853
 21
165.6820944515206
 31
0.0
  0
LINE
  5
C0
330
1F
100
AcDbEntity
  8
図形
  6
Continuous
 62
     2
370
    13
100
AcDbLine
 10
281.673262889787
 20
178.5086119677819
 30
0.0
 11
268.8467453735257
 21
165.6820944515206
 31
0.0
  0
LINE
  5
C1
330
1F
100
AcDbEntity
  8
図形
  6
Continuous
 62
     2
370
    13
100
AcDbLine
 10
281.673262889787
 20
180.6299323113415
 30
0.0
 11
266.7254250299661
 21
165.6820944515206
 31
0.0
  0
LINE
  5
C2
330
1F
100
AcDbEntity
  8
図形
  6
Continuous
 62
     2
370
    13
100
AcDbLine
 10
281.673262889787
 20
182.7512526549012
 30
0.0
 11
276.673262889787
 21
177.7512526549012
 31
0.0
  0
LINE
  5
C3
330
1F
100
AcDbEntity
  8
図形
  6
Continuous
 62
     2
370
    13
100
AcDbLine
 10
274.6041046864063
 20
175.6820944515205
 30
0.0
 11
264.6041046864064
 21
165.6820944515206
 31
0.0
  0
LINE
  5
C4
330
1F
100
AcDbEntity
  8
図形
  6
Continuous
 62
     2
370
    13
100
AcDbLine
 10
281.673262889787
 20
184.8725729984608
 30
0.0
 11
276.673262889787
 21
179.8725729984608
 31
0.0
  0
LINE
  5
C5
330
1F
100
AcDbEntity
  8
図形
  6
Continuous
 62
     2
370
    13
100
AcDbLine
 10
272.4827843428467
 20
175.6820944515205
 30
0.0
 11
262.4827843428468
 21
165.6820944515206
 31
0.0
  0
LINE
  5
C6
330
1F
100
AcDbEntity
  8
図形
  6
Continuous
 62
     2
370
    13
100
AcDbLine
 10
281.673262889787
 20
186.9938933420204
 30
0.0
 11
276.673262889787
 21
181.9938933420204
 31
0.0
  0
LINE
  5
C7
330
1F
100
AcDbEntity
  8
図形
  6
Continuous
 62
     2
370
    13
100
AcDbLine
 10
270.3614639992871
 20
175.6820944515205
 30
0.0
 11
260.3614639992871
 21
165.6820944515206
 31
0.0
  0
LINE
  5
C8
330
1F
100
AcDbEntity
  8
図形
  6
Continuous
 62
     2
370
    13
100
AcDbLine
 10
281.673262889787
 20
189.1152136855801
 30
0.0
 11
276.673262889787
 21
184.1152136855801
 31
0.0
  0
LINE
  5
C9
330
1F
100
AcDbEntity
  8
図形
  6
Continuous
 62
     2
370
    13
100
AcDbLine
 10
268.2401436557274
 20
175.6820944515205
 30
0.0
 11
258.2401436557275
 21
165.6820944515206
 31
0.0
  0
LINE
  5
CA
330
1F
100
AcDbEntity
  8
図形
  6
Continuous
 62
     2
370
    13
100
AcDbLine
 10
281.673262889787
 20
191.2365340291397
 30
0.0
 11
276.1188233121678
 21
185.6820944515205
 31
0.0
  0
LINE
  5
CB
330
1F
100
AcDbEntity
  8
図形
  6
Continuous
 62
     2
370
    13
100
AcDbLine
 10
266.673262889787
 20
176.2365340291397
 30
0.0
 11
256.1188233121679
 21
165.6820944515206
 31
0.0
  0
LINE
  5
CC
330
1F
100
AcDbEntity
  8
図形
  6
Continuous
 62
     2
370
    13
100
AcDbLine
 10
281.673262889787
 20
193.3578543726994
 30
0.0
 11
273.9975029686082
 21
185.6820944515205
 31
0.0
  0
LINE
  5
CD
330
1F
100
AcDbEntity
  8
図形
  6
Continuous
 62
     2
370
    13
100
AcDbLine
 10
266.673262889787
 20
178.3578543726994
 30
0.0
 11
253.9975029686082
 21
165.6820944515206
 31
0.0
  0
LINE
  5
CE
330
1F
100
AcDbEntity
  8
図形
  6
Continuous
 62
     2
370
    13
100
AcDbLine
 10
281.673262889787
 20
195.479174716259
 30
0.0
 11
271.8761826250485
 21
185.6820944515205
 31
0.0
  0
LINE
  5
CF
330
1F
100
AcDbEntity
  8
図形
  6
Continuous
 62
     2
370
    13
100
AcDbLine
 10
266.673262889787
 20
180.479174716259
 30
0.0
 11
251.8761826250486
 21
165.6820944515206
 31
0.0
  0
LINE
  5
D0
330
1F
100
AcDbEntity
  8
図形
  6
Continuous
 62
     2
370
    13
100
AcDbLine
 10
281.673262889787
 20
197.6004950598187
 30
0.0
 11
269.7548622814888
 21
185.6820944515205
 31
0.0
  0
LINE
  5
D1
330
1F
100
AcDbEntity
  8
図形
  6
Continuous
 62
     2
370
    13
100
AcDbLine
 10
266.673262889787
 20
182.6004950598187
 30
0.0
 11
251.673262889787
 21
167.6004950598187
 31
0.0
  0
LINE
  5
D2
330
1F
100
AcDbEntity
  8
図形
  6
Continuous
 62
     2
370
    13
100
AcDbLine
 10
281.673262889787
 20
199.7218154033783
 30
0.0
 11
267.6335419379292
 21
185.6820944515205
 31
0.0
  0
LINE
  5
D3
330
1F
100
AcDbEntity
  8
図形
  6
Continuous
 62
     2
370
    13
100
AcDbLine
 10
266.673262889787
 20
184.7218154033783
 30
0.0
 11
251.673262889787
 21
169.7218154033783
 31
0.0
  0
LINE
  5
D4
330
1F
100
AcDbEntity
  8
図形
  6
Continuous
 62
     2
370
    13
100
AcDbLine
 10
280.5122215943696
 20
200.6820944515206
 30
0.0
 11
256.673262889787
 21
176.8431357469379
 31
0.0
  0
LINE
  5
D5
330
1F
100
AcDbEntity
  8
図形
  6
Continuous
 62
     2
370
    13
100
AcDbLine
 10
255.5122215943697
 20
175.6820944515206
 30
0.0
 11
251.673262889787
 21
171.8431357469379
 31
0.0
  0
LINE
  5
D6
330
1F
100
AcDbEntity
  8
図形
  6
Continuous
 62
     2
370
    13
100
AcDbLine
 10
278.39090125081
 20
200.6820944515206
 30
0.0
 11
256.673262889787
 21
178.9644560904976
 31
0.0
  0
LINE
  5
D7
330
1F
100
AcDbEntity
  8
図形
  6
Continuous
 62
     2
370
    13
100
AcDbLine
 10
253.39090125081
 20
175.6820944515206
 30
0.0
 11
251.673262889787
 21
173.9644560904976
 31
0.0
  0
LINE
  5
D8
330
1F
100
AcDbEntity
  8
図形
  6
Continuous
 62
     2
370
    13
100
AcDbLine
 10
276.2695809072504
 20
200.6820944515206
 30
0.0
 11
266.673262889787
 21
191.0857764340572
 31
0.0
  0
LINE
  5
D9
330
1F
100
AcDbEntity
  8
図形
  6
Continuous
 62
     2
370
    13
100
AcDbLine
 10
266.2695809072503
 20
190.6820944515206
 30
0.0
 11
256.673262889787
 21
181.0857764340572
 31
0.0
  0
LINE
  5
DA
330
1F
100
AcDbEntity
  8
図形
  6
Continuous
 62
     2
370
    13
100
AcDbLine
 10
274.1482605636907
 20
200.6820944515206
 30
0.0
 11
266.673262889787
 21
193.2070967776169
 31
0.0
  0
LINE
  5
DB
330
1F
100
AcDbEntity
  8
図形
  6
Continuous
 62
     2
370
    13
100
AcDbLine
 10
264.1482605636907
 20
190.6820944515206
 30
0.0
 11
256.673262889787
 21
183.2070967776169
 31
0.0
  0
LINE
  5
DC
330
1F
100
AcDbEntity
  8
図形
  6
Continuous
 62
     2
370
    13
100
AcDbLine
 10
272.0269402201311
 20
200.6820944515206
 30
0.0
 11
266.673262889787
 21
195.3284171211765
 31
0.0
  0
LINE
  5
DD
330
1F
100
AcDbEntity
  8
図形
  6
Continuous
 62
     2
370
    13
100
AcDbLine
 10
262.0269402201311
 20
190.6820944515206
 30
0.0
 11
256.673262889787
 21
185.3284171211765
 31
0.0
  0
LINE
  5
DE
330
1F
100
AcDbEntity
  8
図形
  6
Continuous
 62
     2
370
    13
100
AcDbLine
 10
269.9056198765714
 20
200.6820944515206
 30
0.0
 11
266.673262889787
 21
197.4497374647362
 31
0.0
  0
LINE
  5
DF
330
1F
100
AcDbEntity
  8
図形
  6
Continuous
 62
     2
370
    13
100
AcDbLine
 10
259.9056198765714
 20
190.6820944515206
 30
0.0
 11
256.673262889787
 21
187.4497374647362
 31
0.0
  0
LINE
  5
E0
330
1F
100
AcDbEntity
  8
図形
  6
Continuous
 62
     2
370
    13
100
AcDbLine
 10
267.7842995330118
 20
200.6820944515206
 30
0.0
 11
266.673262889787
 21
199.5710578082958
 31
0.0
  0
LINE
  5
E1
330
1F
100
AcDbEntity
  8
図形
  6
Continuous
 62
     2
370
    13
100
AcDbLine
 10
257.7842995330118
 20
190.6820944515206
 30
0.0
 11
256.673262889787
 21
189.5710578082958
 31
0.0
  0
LINE
  5
E2
330
1F
100
AcDbEntity
  8
図形
  6
Continuous
 62
     7
370
    18
100
AcDbLine
 10
276.673262889787
 20
185.6820944515205
 30
0.0
 11
266.673262889787
 21
185.6820944515205
 31
0.0
  0
LINE
  5
E3
330
1F
100
AcDbEntity
  8
図形
  6
Continuous
 62
     7
370
    18
100
AcDbLine
 10
276.673262889787
 20
175.6820944515205
 30
0.0
 11
276.673262889787
 21
185.6820944515205
 31
0.0
  0
LINE
  5
E4
330
1F
100
AcDbEntity
  8
図形
  6
Continuous
 62
     7
370
    18
100
AcDbLine
 10
266.673262889787
 20
185.6820944515205
 30
0.0
 11
266.673262889787
 21
175.6820944515205
 31
0.0
  0
LINE
  5
E5
330
1F
100
AcDbEntity
  8
図形
  6
Continuous
 62
     7
370
    18
100
AcDbLine
 10
266.673262889787
 20
175.6820944515205
 30
0.0
 11
276.673262889787
 21
175.6820944515205
 31
0.0
  0
LINE
  5
E6
330
1F
100
AcDbEntity
  8
図形
  6
Continuous
 62
     7
370
    18
100
AcDbLine
 10
281.673262889787
 20
165.6820944515205
 30
0.0
 11
281.673262889787
 21
200.6820944515205
 31
0.0
  0
LINE
  5
E7
330
1F
100
AcDbEntity
  8
図形
  6
Continuous
 62
     7
370
    18
100
AcDbLine
 10
251.673262889787
 20
165.6820944515205
 30
0.0
 11
281.673262889787
 21
165.6820944515205
 31
0.0
  0
LINE
  5
E8
330
1F
100
AcDbEntity
  8
図形
  6
Continuous
 62
     7
370
    18
100
AcDbLine
 10
256.673262889787
 20
175.6820944515206
 30
0.0
 11
251.673262889787
 21
175.6820944515206
 31
0.0
  0
LINE
  5
E9
330
1F
100
AcDbEntity
  8
図形
  6
Continuous
 62
     7
370
    18
100
AcDbLine
 10
251.673262889787
 20
175.6820944515206
 30
0.0
 11
251.673262889787
 21
165.6820944515206
 31
0.0
  0
LINE
  5
EA
330
1F
100
AcDbEntity
  8
図形
  6
Continuous
 62
     7
370
    18
100
AcDbLine
 10
256.673262889787
 20
190.6820944515206
 30
0.0
 11
256.673262889787
 21
175.6820944515206
 31
0.0
  0
LINE
  5
EB
330
1F
100
AcDbEntity
  8
図形
  6
Continuous
 62
     7
370
    18
100
AcDbLine
 10
266.673262889787
 20
190.6820944515206
 30
0.0
 11
256.673262889787
 21
190.6820944515206
 31
0.0
  0
LINE
  5
EC
330
1F
100
AcDbEntity
  8
図形
  6
Continuous
 62
     7
370
    18
100
AcDbLine
 10
266.673262889787
 20
200.6820944515206
 30
0.0
 11
266.673262889787
 21
190.6820944515206
 31
0.0
  0
LINE
  5
ED
330
1F
100
AcDbEntity
  8
図形
  6
Continuous
 62
     7
370
    18
100
AcDbLine
 10
281.673262889787
 20
200.6820944515206
 30
0.0
 11
266.673262889787
 21
200.6820944515206
 31
0.0
  0
LINE
  5
EE
330
1F
100
AcDbEntity
  8
図形
  6
Continuous
 62
     7
370
    18
100
AcDbLine
 10
224.4001564871444
 20
200.682442617477
 30
0.0
 11
227.489886095096
 21
200.682442617477
 31
0.0
  0
LINE
  5
EF
330
1F
100
AcDbEntity
  8
図形
  6
Continuous
 62
     7
370
    18
100
AcDbLine
 10
224.4001564871444
 20
200.682442617477
 30
0.0
 11
224.4001564871444
 21
190.682442617477
 31
0.0
  0
LINE
  5
F0
330
1F
100
AcDbEntity
  8
図形
  6
Continuous
 62
     7
370
    18
100
AcDbLine
 10
224.4001564871444
 20
190.682442617477
 30
0.0
 11
221.4001564871444
 21
190.682442617477
 31
0.0
  0
LINE
  5
F1
330
1F
100
AcDbEntity
  8
図形
  6
Continuous
 62
     7
370
    18
100
AcDbLine
 10
221.4001564871444
 20
190.682442617477
 30
0.0
 11
221.4001564871444
 21
175.682442617477
 31
0.0
  0
LINE
  5
F2
330
1F
100
AcDbEntity
  8
図形
  6
Continuous
 62
     7
370
    18
100
AcDbLine
 10
221.4001564871444
 20
175.682442617477
 30
0.0
 11
218.4001564871444
 21
175.682442617477
 31
0.0
  0
LINE
  5
F3
330
1F
100
AcDbEntity
  8
図形
  6
Continuous
 62
     7
370
    18
100
AcDbLine
 10
218.4001564871444
 20
175.682442617477
 30
0.0
 11
218.4001564871444
 21
165.682442617477
 31
0.0
  0
LINE
  5
F4
330
1F
100
AcDbEntity
  8
図形
  6
Continuous
 62
     7
370
    18
100
AcDbLine
 10
218.4001564871444
 20
165.682442617477
 30
0.0
 11
222.6452485770363
 21
165.682442617477
 31
0.0
  0
LINE
  5
F5
330
1F
100
AcDbEntity
  8
図枠
  6
Continuous
 62
     8
370
    18
100
AcDbLine
 10
120.984487203306
 20
13.04937265335165
 30
0.0
 11
115.984487203306
 21
13.04937265335165
 31
0.0
  0
LINE
  5
F6
330
1F
100
AcDbEntity
  8
図枠
  6
Continuous
 62
     8
370
    18
100
AcDbLine
 10
120.984487203306
 20
13.04937265335165
 30
0.0
 11
120.984487203306
 21
8.049372653351654
 31
0.0
  0
CIRCLE
  5
F7
330
1F
100
AcDbEntity
  8
図形
  6
Continuous
 62
     7
370
    13
100
AcDbCircle
 10
191.4379709062201
 20
107.0106123401924
 30
0.0
 40
5.0
  0
CIRCLE
  5
F8
330
1F
100
AcDbEntity
  8
図形
  6
Continuous
 62
     7
370
    13
100
AcDbCircle
 10
235.4443190014215
 20
95.51061234019242
 30
0.0
 40
2.0
  0
CIRCLE
  5
F9
330
1F
100
AcDbEntity
  8
図形
  6
Continuous
 62
     7
370
    13
100
AcDbCircle
 10
251.4443190014216
 20
95.51061234019242
 30
0.0
 40
2.0
  0
CIRCLE
  5
FA
330
1F
100
AcDbEntity
  8
図形
  6
Continuous
 62
     2
370
    18
100
AcDbCircle
 10
251.4443190014216
 20
95.51061234019242
 30
0.0
 40
2.5
  0
CIRCLE
  5
FB
330
1F
100
AcDbEntity
  8
図形
  6
Continuous
 62
     2
370
    18
100
AcDbCircle
 10
235.4443190014215
 20
95.51061234019242
 30
0.0
 40
2.5
  0
ARC
  5
FC
330
1F
100
AcDbEntity
  8
図形
  6
Continuous
 62
     7
370
    13
100
AcDbCircle
 10
196.4379709062201
 20
112.0106123401924
 30
0.0
 40
5.0
100
AcDbArc
 50
0.0
 51
89.99999999999999
  0
ARC
  5
FD
330
1F
100
AcDbEntity
  8
図形
  6
Continuous
 62
     7
370
    13
100
AcDbCircle
 10
186.4379709062201
 20
112.0106123401924
 30
0.0
 40
5.0
100
AcDbArc
 50
89.99999999999999
 51
180.0
  0
TEXT
  5
FE
330
1F
100
AcDbEntity
  8
図枠
 62
     4
100
AcDbText
 10
252.9976806640625
 20
288.052734375
 30
0.0
 40
3.0
  1
△×
 41
1.180637544273908
  7
TextStyle1
 72
     5
 11
258.9976806640625
 21
288.052734375
 31
0.0
100
AcDbText
  0
TEXT
  5
121
330
1F
100
AcDbEntity
  8
図枠
 62
     4
100
AcDbText
 10
262.4744873046875
 20
293.052490234375
 30
0.0
 40
3.0
  1
年　月　日
 41
1.440922190201729
  7
TextStyle1
 72
     5
 11
277.4744873046875
 21
293.052490234375
 31
0.0
100
AcDbText
  0
TEXT
  5
122
330
1F
100
AcDbEntity
  8
図枠
 62
     4
100
AcDbText
 10
253.2734375
 20
293.052490234375
 30
0.0
 40
3.0
  1
訂正
 41
1.440922190201729
  7
TextStyle1
 72
     5
 11
259.2734375
 21
293.052490234375
 31
0.0
100
AcDbText
  0
TEXT
  5
123
330
1F
100
AcDbEntity
  8
図枠
 62
     4
100
AcDbText
 10
287.3620910644531
 20
293.052490234375
 30
0.0
 40
3.0
  1
訂　正　記　事
 41
1.440922190201729
  7
TextStyle1
 72
     5
 11
308.3620910644531
 21
293.052490234375
 31
0.0
100
AcDbText
  0
TEXT
  5
124
330
1F
100
AcDbEntity
  8
図枠
 62
     4
100
AcDbText
 10
266.225830078125
 20
288.13623046875
 30
0.0
 40
3.0
  1
.
 41
1.501501501501501
  7
TextStyle1
 72
     5
 11
267.725830078125
 21
288.13623046875
 31
0.0
100
AcDbText
  0
TEXT
  5
125
330
1F
100
AcDbEntity
  8
図枠
 62
     4
100
AcDbText
 10
272.288818359375
 20
288.1359558105469
 30
0.0
 40
3.0
  1
.
 41
1.501501501501501
  7
TextStyle1
 72
     5
 11
273.788818359375
 21
288.1359558105469
 31
0.0
100
AcDbText
  0
TEXT
  5
126
330
1F
100
AcDbEntity
  8
図枠
 62
     4
100
AcDbText
 10
207.319580078125
 20
34.71746826171875
 30
0.0
 40
3.0
  1
尺度
 41
1.440922190201729
  7
TextStyle1
 72
     5
 11
213.319580078125
 21
34.71746826171875
 31
0.0
100
AcDbText
  0
TEXT
  5
127
330
1F
100
AcDbEntity
  8
図枠
 62
     4
100
AcDbText
 10
246.5670471191406
 20
54.71659088134766
 30
0.0
 40
3.0
  1
熱処理
 41
1.440922190201729
  7
TextStyle1
 72
     5
 11
255.5670471191406
 21
54.71659088134766
 31
0.0
100
AcDbText
  0
TEXT
  5
128
330
1F
100
AcDbEntity
  8
図枠
 62
     4
100
AcDbText
 10
246.5670471191406
 20
44.04996871948242
 30
0.0
 40
3.0
  1
表面処理
 41
1.440922190201729
  7
TextStyle1
 72
     5
 11
258.5670471191406
 21
44.04996871948242
 31
0.0
100
AcDbText
  0
TEXT
  5
129
330
1F
100
AcDbEntity
  8
図枠
 62
     4
100
AcDbText
 10
207.319580078125
 20
44.05004501342773
 30
0.0
 40
3.0
  1
材質
 41
1.440922190201729
  7
TextStyle1
 72
     5
 11
213.319580078125
 21
44.05004501342773
 31
0.0
100
AcDbText
  0
TEXT
  5
12A
330
1F
100
AcDbEntity
  8
図枠
 62
     4
100
AcDbText
 10
232.6101989746094
 20
34.05025100708008
 30
0.0
 40
3.0
  1
品名
 41
1.440922190201729
  7
TextStyle1
 72
     5
 11
238.6101989746094
 21
34.05025100708008
 31
0.0
100
AcDbText
  0
TEXT
  5
12B
330
1F
100
AcDbEntity
  8
図枠
 62
     4
100
AcDbText
 10
232.6101989746094
 20
24.05080223083496
 30
0.0
 40
3.0
  1
図面番号
 41
1.440922190201729
  7
TextStyle1
 72
     5
 11
244.6101989746094
 21
24.05080223083496
 31
0.0
100
AcDbText
  0
TEXT
  5
12C
330
1F
100
AcDbEntity
  8
図枠
 62
     4
100
AcDbText
 10
142.9912567138672
 20
45.30014038085938
 30
0.0
 40
3.0
  1
指示なき稜はＣ　　　　　　　のこと
 41
1.440922190201729
  7
TextStyle1
 72
     5
 11
193.9912567138672
 21
45.30014038085938
 31
0.0
100
AcDbText
  0
TEXT
  5
12D
330
1F
100
AcDbEntity
  8
図枠
 62
     4
100
AcDbText
 10
141.0510406494141
 20
52.22318267822266
 30
0.0
 40
3.0
  1
仕上
 41
1.440922190201729
  7
TextStyle1
 72
     5
 11
147.0510406494141
 21
52.22318267822266
 31
0.0
100
AcDbText
  0
TEXT
  5
12E
330
1F
100
AcDbEntity
  8
図枠
 62
     4
100
AcDbText
 10
144.8020782470703
 20
39.05112457275391
 30
0.0
 40
3.0
  1
承　　認
 41
1.440922190201729
  7
TextStyle1
 72
     5
 11
156.8020782470703
 21
39.05112457275391
 31
0.0
100
AcDbText
  0
TEXT
  5
12F
330
1F
100
AcDbEntity
  8
図枠
 62
     4
100
AcDbText
 10
166.942626953125
 20
39.05195236206055
 30
0.0
 40
3.0
  1
検　　図
 41
1.440922190201729
  7
TextStyle1
 72
     5
 11
178.942626953125
 21
39.05195236206055
 31
0.0
100
AcDbText
  0
TEXT
  5
130
330
1F
100
AcDbEntity
  8
図枠
 62
     4
100
AcDbText
 10
189.0831909179688
 20
39.05019378662109
 30
0.0
 40
3.0
  1
設　　計
 41
1.440922190201729
  7
TextStyle1
 72
     5
 11
201.0831909179688
 21
39.05019378662109
 31
0.0
100
AcDbText
  0
TEXT
  5
131
330
1F
100
AcDbEntity
  8
図枠
 62
     4
100
AcDbText
 10
271.8336486816406
 20
49.14400100708008
 30
0.0
 40
3.0
  1
HV:
 41
0.5626406601650412
  7
TextStyle1
 72
     5
 11
276.3336486816406
 21
49.14400100708008
 31
0.0
100
AcDbText
  0
TEXT
  5
132
330
1F
100
AcDbEntity
  8
図枠
 62
     4
100
AcDbText
 10
207.319580078125
 20
54.71673202514648
 30
0.0
 40
3.0
  1
作成
 41
1.440922190201729
  7
TextStyle1
 72
     5
 11
213.319580078125
 21
54.71673202514648
 31
0.0
100
AcDbText
  0
TEXT
  5
133
330
1F
100
AcDbEntity
  8
図枠
 62
     4
100
AcDbText
 10
207.319580078125
 20
24.05123901367188
 30
0.0
 40
3.0
  1
個数
 41
1.440922190201729
  7
TextStyle1
 72
     5
 11
213.319580078125
 21
24.05123901367188
 31
0.0
100
AcDbText
  0
TEXT
  5
134
330
1F
100
AcDbEntity
  8
図枠
 62
     4
100
AcDbText
 10
303.1030578613281
 20
54.7159423828125
 30
0.0
 40
3.0
  1
原紙サイズ
 41
1.440922190201729
  7
TextStyle1
 72
     5
 11
318.1030578613281
 21
54.7159423828125
 31
0.0
100
AcDbText
  0
TEXT
  5
135
330
1F
100
AcDbEntity
  8
図枠
 62
     4
100
AcDbText
 10
306.4363708496094
 20
43.68915557861328
 30
0.0
 40
4.0
  1
Ａ４
 41
1.440922190201729
  7
TextStyle1
 72
     5
 11
314.4363708496094
 21
43.68915557861328
 31
0.0
100
AcDbText
  0
TEXT
  5
136
330
1F
100
AcDbEntity
  8
図枠
 62
     4
100
AcDbText
 10
142.4425964355469
 20
20.06092643737793
 30
0.0
 40
5.0
  1
ク
 41
1.440922190201729
  7
TextStyle1
 72
     5
 11
147.4425964355469
 21
20.06092643737793
 31
0.0
100
AcDbText
  0
TEXT
  5
137
330
1F
100
AcDbEntity
  8
図枠
 62
     4
100
AcDbText
 10
150.2863006591797
 20
20.06092643737793
 30
0.0
 40
5.0
  1
ワ
 41
1.440922190201729
  7
TextStyle1
 72
     5
 11
155.2863006591797
 21
20.06092643737793
 31
0.0
100
AcDbText
  0
TEXT
  5
138
330
1F
100
AcDbEntity
  8
図枠
 62
     4
100
AcDbText
 10
165.9736938476562
 20
20.06092643737793
 30
0.0
 40
5.0
  1
ラ
 41
1.440922190201729
  7
TextStyle1
 72
     5
 11
170.9736938476562
 21
20.06092643737793
 31
0.0
100
AcDbText
  0
TEXT
  5
139
330
1F
100
AcDbEntity
  8
図枠
 62
     4
100
AcDbText
 10
173.8174438476562
 20
20.06092643737793
 30
0.0
 40
5.0
  1
設
 41
1.440922190201729
  7
TextStyle1
 72
     5
 11
178.8174438476562
 21
20.06092643737793
 31
0.0
100
AcDbText
  0
TEXT
  5
13A
330
1F
100
AcDbEntity
  8
図枠
 62
     4
100
AcDbText
 10
181.6611022949219
 20
20.06092643737793
 30
0.0
 40
5.0
  1
計
 41
1.440922190201729
  7
TextStyle1
 72
     5
 11
186.6611022949219
 21
20.06092643737793
 31
0.0
100
AcDbText
  0
TEXT
  5
13B
330
1F
100
AcDbEntity
  8
図枠
 62
     4
100
AcDbText
 10
189.5048217773438
 20
20.06092643737793
 30
0.0
 40
5.0
  1
企
 41
1.440922190201729
  7
TextStyle1
 72
     5
 11
194.5048217773438
 21
20.06092643737793
 31
0.0
100
AcDbText
  0
TEXT
  5
13C
330
1F
100
AcDbEntity
  8
図枠
 62
     4
100
AcDbText
 10
197.3484802246094
 20
20.06092643737793
 30
0.0
 40
5.0
  1
画
 41
1.440922190201729
  7
TextStyle1
 72
     5
 11
202.3484802246094
 21
20.06092643737793
 31
0.0
100
AcDbText
  0
TEXT
  5
13D
330
1F
100
AcDbEntity
  8
図枠
 62
     4
100
AcDbText
 10
158.1300964355469
 20
20.06092643737793
 30
0.0
 40
5.0
  1
バ
 41
1.440922190201729
  7
TextStyle1
 72
     5
 11
163.1300964355469
 21
20.06092643737793
 31
0.0
100
AcDbText
  0
TEXT
  5
13E
330
1F
100
AcDbEntity
  8
図枠コメント
 62
     4
100
AcDbText
 10
246.7131195068359
 20
20.5216236114502
 30
0.0
 40
5.0
  1
ＡＡＡ－ＢＢＢＢ－００１
 41
1.440922190201729
  7
TextStyle1
 72
     5
 11
306.7131195068359
 21
20.5216236114502
 31
0.0
100
AcDbText
  0
TEXT
  5
13F
330
1F
100
AcDbEntity
  8
図枠コメント
 62
     4
100
AcDbText
 10
216.6766204833984
 20
40.26355743408203
 30
0.0
 40
5.0
  1
XXXX
 41
0.5
  7
TextStyle1
 72
     5
 11
226.6766204833984
 21
40.26355743408203
 31
0.0
100
AcDbText
  0
TEXT
  5
140
330
1F
100
AcDbEntity
  8
図枠コメント
 62
     4
100
AcDbText
 10
217.5577850341797
 20
30.2640438079834
 30
0.0
 40
5.0
  1
1:1
 41
0.8998200359928014
  7
TextStyle1
 72
     5
 11
225.0577850341797
 21
30.2640438079834
 31
0.0
100
AcDbText
  0
TEXT
  5
141
330
1F
100
AcDbEntity
  8
図枠コメント
 62
     4
100
AcDbText
 10
219.7380676269531
 20
20.264404296875
 30
0.0
 40
5.0
  1
1
 41
0.7496251874062969
  7
TextStyle1
 72
     5
 11
222.2380676269531
 21
20.264404296875
 31
0.0
100
AcDbText
  0
TEXT
  5
142
330
1F
100
AcDbEntity
  8
図枠コメント
 62
     4
100
AcDbText
 10
246.7131195068359
 20
30.5212230682373
 30
0.0
 40
5.0
  1
変換率確認用図面
 41
1.440922190201729
  7
TextStyle1
 72
     5
 11
286.7131195068359
 21
30.5212230682373
 31
0.0
100
AcDbText
  0
TEXT
  5
143
330
1F
100
AcDbEntity
  8
図枠コメント
 62
     4
100
AcDbText
 10
216.6769561767578
 20
50.26319885253906
 30
0.0
 40
5.0
  1
20XX/XX/XX
 41
0.508440105755542
  7
TextStyle1
 72
     5
 11
241.6769561767578
 21
50.26319885253906
 31
0.0
100
AcDbText
  0
TEXT
  5
144
330
1F
100
AcDbEntity
  8
図枠コメント
 62
     4
100
AcDbText
 10
190.5153656005859
 20
31.30846977233887
 30
0.0
 40
4.0
  1
桑原
 41
1.440922190201729
  7
TextStyle1
 72
     5
 11
198.5153656005859
 21
31.30846977233887
 31
0.0
100
AcDbText
  0
TEXT
  5
145
330
1F
100
AcDbEntity
  8
図枠外コメント
 62
     4
100
AcDbText
 10
328.9517822265625
 20
44.32858276367188
 30
0.0
 40
4.0
  1
製図データ：　　　　　レイヤ０１
 41
1.440922190201729
  7
TextStyle1
 72
     5
 11
392.9517822265625
 21
44.32858276367188
 31
0.0
100
AcDbText
  0
TEXT
  5
146
330
1F
100
AcDbEntity
  8
図枠外コメント
 62
     4
100
AcDbText
 10
335.9754028320312
 20
85.19715881347656
 30
0.0
 40
6.0
  1
表示色により線太さを分けております。
 41
1.440922190201729
  7
TextStyle1
 72
     5
 11
443.9754028320312
 21
85.19715881347656
 31
0.0
100
AcDbText
  0
TEXT
  5
147
330
1F
100
AcDbEntity
  8
図枠外コメント
 62
     4
100
AcDbText
 10
335.9754028320312
 20
75.19715881347656
 30
0.0
 40
6.0
  1
太線・・・・白、紫
 41
1.440922190201729
  7
TextStyle1
 72
     5
 11
389.9754028320312
 21
75.19715881347656
 31
0.0
100
AcDbText
  0
TEXT
  5
148
330
1F
100
AcDbEntity
  8
図枠外コメント
 62
     4
100
AcDbText
 10
335.9754028320312
 20
65.19715881347656
 30
0.0
 40
6.0
  1
細線・・・・上記以外（水色、黄、緑）
 41
1.440922190201729
  7
TextStyle1
 72
     5
 11
443.9754028320312
 21
65.19715881347656
 31
0.0
100
AcDbText
  0
TEXT
  5
149
330
1F
100
AcDbEntity
  8
図枠外コメント
 62
     4
100
AcDbText
 10
328.9515991210938
 20
34.32858276367188
 30
0.0
 40
4.0
  1
図枠記載文字データ：　レイヤ１４
 41
1.440922190201729
  7
TextStyle1
 72
     5
 11
392.9515991210938
 21
34.32858276367188
 31
0.0
100
AcDbText
  0
TEXT
  5
14A
330
1F
100
AcDbEntity
  8
図枠外コメント
 62
     4
100
AcDbText
 10
328.9517822265625
 20
24.32859039306641
 30
0.0
 40
4.0
  1
図枠データ：　　　　　レイヤ１５
 41
1.440922190201729
  7
TextStyle1
 72
     5
 11
392.9517822265625
 21
24.32859039306641
 31
0.0
100
AcDbText
  0
TEXT
  5
14B
330
1F
100
AcDbEntity
  8
図枠外コメント
 62
     4
100
AcDbText
 10
335.9754028320312
 20
95.19717407226562
 30
0.0
 40
6.0
  1
本図面では
 41
1.440922190201729
  7
TextStyle1
 72
     5
 11
365.9754028320312
 21
95.19717407226562
 31
0.0
100
AcDbText
  0
TEXT
  5
14C
330
1F
100
AcDbEntity
  8
図形
 62
     7
100
AcDbText
 10
244.2238464355469
 20
278.0202331542969
 30
0.0
 40
4.0
  1
４ｍｍ_4mm
 41
0.8220979940808943
  7
TextStyle1
 72
     5
 11
264.2238464355469
 21
278.0202331542969
 31
0.0
100
AcDbText
  0
TEXT
  5
14D
330
1F
100
AcDbEntity
  8
図形
 62
     7
100
AcDbText
 10
244.4738464355469
 20
267.6803894042969
 30
0.0
 40
5.0
  1
５ｍｍ_5mm
 41
0.8220979940808945
  7
TextStyle1
 72
     5
 11
269.4738464355469
 21
267.6803894042969
 31
0.0
100
AcDbText
  0
TEXT
  5
14E
330
1F
100
AcDbEntity
  8
図形
 62
     7
100
AcDbText
 10
245.2394714355469
 20
246.6608428955078
 30
0.0
 40
8.0
  1
８ｍｍ_8mm
 41
0.8220979940808943
  7
TextStyle1
 72
     5
 11
285.2394714355469
 21
246.6608428955078
 31
0.0
100
AcDbText
  0
TEXT
  5
14F
330
1F
100
AcDbEntity
  8
図形
 62
     7
100
AcDbText
 10
244.7316589355469
 20
257.3405456542969
 30
0.0
 40
6.0
  1
６ｍｍ_6mm
 41
0.8220979940808945
  7
TextStyle1
 72
     5
 11
274.7316589355469
 21
257.3405456542969
 31
0.0
100
AcDbText
  0
TEXT
  5
150
330
1F
100
AcDbEntity
  8
図形
 62
     7
100
AcDbText
 10
245.7472839355469
 20
230.9795532226562
 30
0.0
 40
10.0
  1
１０ｍｍ_10mm
 41
0.8932252301772707
  7
TextStyle1
 72
     5
 11
310.7472839355469
 21
230.9795532226562
 31
0.0
100
AcDbText
  0
TEXT
  5
151
330
1F
100
AcDbEntity
  8
図形
 62
     7
100
AcDbText
 10
214.4934675167264
 20
239.9929035611114
 30
0.0
 40
4.0
  1
実線
 41
1.440922190201729
  7
TextStyle1
 72
     5
 11
222.4934675167264
 21
239.9929035611114
 31
0.0
100
AcDbText
  0
TEXT
  5
152
330
1F
100
AcDbEntity
  8
図形
 62
     7
100
AcDbText
 10
214.4930402706326
 20
232.9928730435333
 30
0.0
 40
4.0
  1
破線
 41
1.440922190201729
  7
TextStyle1
 72
     5
 11
222.4930402706326
 21
232.9928730435333
 31
0.0
100
AcDbText
  0
TEXT
  5
153
330
1F
100
AcDbEntity
  8
図形
 62
     7
100
AcDbText
 10
214.4930402706326
 20
225.9928425259552
 30
0.0
 40
4.0
  1
一点鎖線
 41
1.440922190201729
  7
TextStyle1
 72
     5
 11
230.4930402706326
 21
225.9928425259552
 31
0.0
100
AcDbText
  0
TEXT
  5
154
330
1F
100
AcDbEntity
  8
図形
 62
     7
100
AcDbText
 10
214.4930097530545
 20
218.9925678677521
 30
0.0
 40
4.0
  1
二点鎖線
 41
1.440922190201729
  7
TextStyle1
 72
     5
 11
230.4930097530545
 21
218.9925678677521
 31
0.0
100
AcDbText
  0
LINE
  5
155
330
1F
100
AcDbEntity
  8
図形
  6
Continuous
 62
     5
370
    18
100
AcDbLine
 10
209.4003023654571
 20
285.6129603434658
 30
0.0
 11
191.4003023654571
 21
285.6129603434658
 31
0.0
  0
LINE
  5
156
330
1F
100
AcDbEntity
  8
図形
  6
Continuous
 62
     1
370
    18
100
AcDbLine
 10
209.4003023654571
 20
278.6129603434658
 30
0.0
 11
191.4003023654571
 21
278.6129603434658
 31
0.0
  0
LINE
  5
157
330
1F
100
AcDbEntity
  8
図形
  6
Continuous
 62
     8
370
    18
100
AcDbLine
 10
209.4003023654571
 20
250.6129603434656
 30
0.0
 11
191.4003023654571
 21
250.6129603434656
 31
0.0
  0
LINE
  5
158
330
1F
100
AcDbEntity
  8
図形
  6
Continuous
 62
    96
370
    18
100
AcDbLine
 10
209.4003023654571
 20
271.6129603434657
 30
0.0
 11
191.4003023654571
 21
271.6129603434657
 31
0.0
  0
LINE
  5
159
330
1F
100
AcDbEntity
  8
図形
  6
Continuous
 62
   216
370
    18
100
AcDbLine
 10
209.4003023654571
 20
264.6129603434657
 30
0.0
 11
191.4003023654571
 21
264.6129603434657
 31
0.0
  0
LINE
  5
15A
330
1F
100
AcDbEntity
  8
図形
  6
Continuous
 62
    56
370
    18
100
AcDbLine
 10
209.4003023654571
 20
257.6129603434657
 30
0.0
 11
191.4003023654571
 21
257.6129603434657
 31
0.0
  0
LINE
  5
15B
330
1F
100
AcDbEntity
  8
図形
  6
Continuous
 62
     4
370
    13
100
AcDbLine
 10
169.1913486639845
 20
285.6129603434659
 30
0.0
 11
151.1913486639845
 21
285.6129603434659
 31
0.0
  0
LINE
  5
15C
330
1F
100
AcDbEntity
  8
図形
  6
Continuous
 62
     2
370
    13
100
AcDbLine
 10
169.1913486639845
 20
278.6129603434659
 30
0.0
 11
151.1913486639845
 21
278.6129603434659
 31
0.0
  0
LINE
  5
15D
330
1F
100
AcDbEntity
  8
図形
  6
Continuous
 62
     3
370
    13
100
AcDbLine
 10
169.1913486639845
 20
271.6129603434658
 30
0.0
 11
151.1913486639845
 21
271.6129603434658
 31
0.0
  0
LINE
  5
15E
330
1F
100
AcDbEntity
  8
図形
  6
Continuous
 62
     6
370
    13
100
AcDbLine
 10
169.1913486639845
 20
264.6129603434658
 30
0.0
 11
151.1913486639845
 21
264.6129603434658
 31
0.0
  0
LINE
  5
15F
330
1F
100
AcDbEntity
  8
図形
  6
Continuous
 62
     7
370
    13
100
AcDbLine
 10
169.1913486639845
 20
257.6129603434657
 30
0.0
 11
151.1913486639845
 21
257.6129603434657
 31
0.0
  0
LINE
  5
160
330
1F
100
AcDbEntity
  8
図形
  6
Continuous
 62
     9
370
    18
100
AcDbLine
 10
169.1913486639845
 20
250.6129603434657
 30
0.0
 11
151.1913486639845
 21
250.6129603434657
 31
0.0
  0
LINE
  5
161
330
1F
100
AcDbEntity
  8
図形
  6
Continuous
 62
     7
370
    18
100
AcDbLine
 10
179.3374147940891
 20
199.1076026222254
 30
0.0
 11
163.3374147940891
 21
171.3947897011233
 31
0.0
  0
LINE
  5
162
330
1F
100
AcDbEntity
  8
図形
  6
Continuous
 62
     7
370
    18
100
AcDbLine
 10
189.5245243140702
 20
193.2260721986007
 30
0.0
 11
179.3374147940891
 21
199.1076026222254
 31
0.0
  0
LINE
  5
163
330
1F
100
AcDbEntity
  8
図形
  6
Continuous
 62
     7
370
    18
100
AcDbLine
 10
163.3374147940891
 20
171.3947897011233
 30
0.0
 11
173.5245243140697
 21
165.5132592774984
 31
0.0
  0
TEXT
  5
164
330
1F
100
AcDbEntity
  8
図形
 62
     5
100
AcDbText
 10
214.4934980343045
 20
284.6614888631876
 30
0.0
 40
4.0
  1
青色
 41
1.440922190201729
  7
TextStyle1
 72
     5
 11
222.4934980343045
 21
284.6614888631876
 31
0.0
100
AcDbText
  0
TEXT
  5
165
330
1F
100
AcDbEntity
  8
図形
 62
     1
100
AcDbText
 10
214.4936811397732
 20
277.6615041219767
 30
0.0
 40
4.0
  1
赤色
 41
1.440922190201729
  7
TextStyle1
 72
     5
 11
222.4936811397732
 21
277.6615041219767
 31
0.0
100
AcDbText
  0
TEXT
  5
166
330
1F
100
AcDbEntity
  8
図形
 62
     8
100
AcDbText
 10
214.4936811397732
 20
249.661092134672
 30
0.0
 40
4.0
  1
暗灰色
 41
1.440922190201729
  7
TextStyle1
 72
     5
 11
226.4936811397732
 21
249.661092134672
 31
0.0
100
AcDbText
  0
TEXT
  5
167
330
1F
100
AcDbEntity
  8
図形
 62
    96
100
AcDbText
 10
214.4936811397732
 20
270.6614736043986
 30
0.0
 40
4.0
  1
暗緑色
 41
1.440922190201729
  7
TextStyle1
 72
     5
 11
226.4936811397732
 21
270.6614736043986
 31
0.0
100
AcDbText
  0
TEXT
  5
168
330
1F
100
AcDbEntity
  8
図形
 62
   216
100
AcDbText
 10
214.4936811397732
 20
263.661092134672
 30
0.0
 40
4.0
  1
暗紫色
 41
1.440922190201729
  7
TextStyle1
 72
     5
 11
226.4936811397732
 21
263.661092134672
 31
0.0
100
AcDbText
  0
TEXT
  5
169
330
1F
100
AcDbEntity
  8
図形
 62
    56
100
AcDbText
 10
214.4936811397732
 20
256.661092134672
 30
0.0
 40
4.0
  1
暗黄色
 41
1.440922190201729
  7
TextStyle1
 72
     5
 11
226.4936811397732
 21
256.661092134672
 31
0.0
100
AcDbText
  0
TEXT
  5
16A
330
1F
100
AcDbEntity
  8
図形
 62
     4
100
AcDbText
 10
174.2845443328319
 20
284.6614888631877
 30
0.0
 40
4.0
  1
水色
 41
1.440922190201729
  7
TextStyle1
 72
     5
 11
182.2845443328319
 21
284.6614888631877
 31
0.0
100
AcDbText
  0
TEXT
  5
16B
330
1F
100
AcDbEntity
  8
図形
 62
     2
100
AcDbText
 10
174.2847274383007
 20
277.6615041219769
 30
0.0
 40
4.0
  1
黄色
 41
1.440922190201729
  7
TextStyle1
 72
     5
 11
182.2847274383007
 21
277.6615041219769
 31
0.0
100
AcDbText
  0
TEXT
  5
16C
330
1F
100
AcDbEntity
  8
図形
 62
     3
100
AcDbText
 10
174.2847274383007
 20
270.6614736043987
 30
0.0
 40
4.0
  1
緑色
 41
1.440922190201729
  7
TextStyle1
 72
     5
 11
182.2847274383007
 21
270.6614736043987
 31
0.0
100
AcDbText
  0
TEXT
  5
16D
330
1F
100
AcDbEntity
  8
図形
 62
     6
100
AcDbText
 10
174.2847274383007
 20
263.6610921346721
 30
0.0
 40
4.0
  1
紫
 41
1.440922190201729
  7
TextStyle1
 72
     5
 11
178.2847274383007
 21
263.6610921346721
 31
0.0
100
AcDbText
  0
TEXT
  5
16E
330
1F
100
AcDbEntity
  8
図形
 62
     7
100
AcDbText
 10
174.2847274383007
 20
256.6610921346721
 30
0.0
 40
4.0
  1
白
 41
1.440922190201729
  7
TextStyle1
 72
     5
 11
178.2847274383007
 21
256.6610921346721
 31
0.0
100
AcDbText
  0
TEXT
  5
16F
330
1F
100
AcDbEntity
  8
図形
 62
     9
100
AcDbText
 10
174.2847274383007
 20
249.6610921346721
 30
0.0
 40
4.0
  1
灰色
 41
1.440922190201729
  7
TextStyle1
 72
     5
 11
182.2847274383007
 21
249.6610921346721
 31
0.0
100
AcDbText
  0
DIMENSION
  5
170
330
1F
100
AcDbEntity
  8
寸法
100
AcDbDimension
  2
*D2
 10
181.4379709062201
 20
138.893338429461
 30
0.0
 11
191.4379709062201
 21
142.168338429461
 31
0.0
 70
   160
 71
     5
 42
20.0
  3
DimTextStyle1
100
AcDbAlignedDimension
 13
201.4379709062201
 23
112.0106123401924
 33
0.0
 14
181.4379709062201
 24
112.0106123401924
 34
0.0
 50
180.0
100
AcDbRotatedDimension
1001
ACAD
1000
DSTYLE
1002
{
1070
    71
1070
     0
1070
    78
1070
     8
1070
   178
1070
     7
1070
   340
1005
73
1070
   271
1070
     0
1070
   140
1040
3.5
1070
   144
1040
1.0
1070
    42
1040
1.0
1070
    44
1040
1.0
1070
    76
1070
     0
1070
    75
1070
     0
1070
   372
1070
    13
1070
   177
1070
     4
1070
   347
1005
16
1070
   346
1005
16
1070
    41
1040
2.925
1070
   344
1005
171
1070
   343
1005
171
1070
    46
1040
0.0
1070
   282
1070
     0
1070
   281
1070
     0
1070
   371
1070
    13
1070
   176
1070
     4
1070
   345
1005
16
1002
}
1001
ACAD_DSTYLE_DIM_LINETYPE
1070
   380
1005
16
1001
ACAD_DSTYLE_DIM_EXT1_LINETYPE
1070
   381
1005
16
1001
ACAD_DSTYLE_DIM_EXT2_LINETYPE
1070
   382
1005
16
  0
DIMENSION
  5
184
330
1F
100
AcDbEntity
  8
寸法
100
AcDbDimension
  2
*D3
 10
191.4379709062201
 20
131.7035544365984
 30
0.0
 11
186.4379709062201
 21
134.9785544365984
 31
0.0
 70
   160
 71
     5
 42
10.0
  3
DimTextStyle1
100
AcDbAlignedDimension
 13
181.4379709062201
 23
112.0106123401924
 33
0.0
 14
191.4379709062201
 24
122.0106123401924
 34
0.0
100
AcDbRotatedDimension
1001
ACAD
1000
DSTYLE
1002
{
1070
    71
1070
     0
1070
    78
1070
     8
1070
   178
1070
     7
1070
   340
1005
73
1070
   271
1070
     0
1070
   140
1040
3.5
1070
   144
1040
1.0
1070
    42
1040
1.0
1070
    44
1040
1.0
1070
    76
1070
     0
1070
    75
1070
     1
1070
   372
1070
    13
1070
   177
1070
     4
1070
   347
1005
16
1070
   346
1005
16
1070
    41
1040
2.925
1070
   344
1005
171
1070
   343
1005
171
1070
    46
1040
0.0
1070
   282
1070
     0
1070
   281
1070
     0
1070
   371
1070
    13
1070
   176
1070
     4
1070
   345
1005
16
1002
}
1001
ACAD_DSTYLE_DIM_LINETYPE
1070
   380
1005
16
1001
ACAD_DSTYLE_DIM_EXT1_LINETYPE
1070
   381
1005
16
1001
ACAD_DSTYLE_DIM_EXT2_LINETYPE
1070
   382
1005
16
  0
DIMENSION
  5
190
330
1F
100
AcDbEntity
  8
寸法
100
AcDbDimension
  2
*D4
 10
215.2393463315537
 20
107.0106123401924
 30
0.0
 11
211.9643463315537
 21
112.0106123401924
 31
0.0
 70
   160
 71
     5
 42
10.00000000000001
 53
90.0
  3
DimTextStyle1
100
AcDbAlignedDimension
 13
196.4379709062201
 23
117.0106123401924
 33
0.0
 14
206.4379709062201
 24
107.0106123401924
 34
0.0
 50
270.0
100
AcDbRotatedDimension
1001
ACAD
1000
DSTYLE
1002
{
1070
    71
1070
     0
1070
    78
1070
     8
1070
   178
1070
     7
1070
   340
1005
73
1070
   271
1070
     0
1070
   140
1040
3.5
1070
   144
1040
1.0
1070
    42
1040
1.0
1070
    44
1040
1.0
1070
    76
1070
     0
1070
    75
1070
     0
1070
   372
1070
    13
1070
   177
1070
     4
1070
   347
1005
16
1070
   346
1005
16
1070
    41
1040
2.925
1070
   344
1005
171
1070
   343
1005
171
1070
    46
1040
0.0
1070
   282
1070
     0
1070
   281
1070
     0
1070
   371
1070
    13
1070
   176
1070
     4
1070
   345
1005
16
1002
}
1001
ACAD_DSTYLE_DIM_LINETYPE
1070
   380
1005
16
1001
ACAD_DSTYLE_DIM_EXT1_LINETYPE
1070
   381
1005
16
1001
ACAD_DSTYLE_DIM_EXT2_LINETYPE
1070
   382
1005
16
  0
DIMENSION
  5
19D
330
1F
100
AcDbEntity
  8
寸法
100
AcDbDimension
  2
*D5
 10
251.4443190014216
 20
69.89445562838424
 30
0.0
 11
243.4443190014215
 21
73.16945562838424
 31
0.0
 70
   160
 71
     5
 42
16.00000000000003
  3
DimTextStyle1
100
AcDbAlignedDimension
 13
235.4443190014215
 23
90.51061234019242
 33
0.0
 14
251.4443190014216
 24
90.51061234019242
 34
0.0
100
AcDbRotatedDimension
1001
ACAD
1000
DSTYLE
1002
{
1070
    71
1070
     0
1070
    78
1070
     8
1070
   178
1070
     7
1070
   340
1005
73
1070
   271
1070
     0
1070
   140
1040
3.5
1070
   144
1040
1.0
1070
    42
1040
1.0
1070
    44
1040
1.0
1070
    76
1070
     0
1070
    75
1070
     1
1070
   372
1070
    13
1070
   177
1070
     4
1070
   347
1005
16
1070
   346
1005
16
1070
    41
1040
2.925
1070
   344
1005
171
1070
   343
1005
171
1070
    46
1040
0.0
1070
   282
1070
     0
1070
   281
1070
     0
1070
   371
1070
    13
1070
   176
1070
     4
1070
   345
1005
16
1002
}
1001
ACAD_DSTYLE_DIM_LINETYPE
1070
   380
1005
16
1001
ACAD_DSTYLE_DIM_EXT1_LINETYPE
1070
   381
1005
16
1001
ACAD_DSTYLE_DIM_EXT2_LINETYPE
1070
   382
1005
16
  0
DIMENSION
  5
1A9
330
1F
100
AcDbEntity
  8
寸法
100
AcDbDimension
  2
*D6
 10
275.3160096766406
 20
95.51061234019241
 30
0.0
 11
272.0410096766406
 21
106.2606123401924
 31
0.0
 70
   160
 71
     5
 42
21.50000000000002
 53
90.0
  3
DimTextStyle1
100
AcDbAlignedDimension
 13
258.4443190014216
 23
117.0106123401924
 33
0.0
 14
256.4443190014216
 24
95.51061234019242
 34
0.0
 50
270.0
100
AcDbRotatedDimension
1001
ACAD
1000
DSTYLE
1002
{
1070
    71
1070
     0
1070
    78
1070
     8
1070
   178
1070
     7
1070
   340
1005
73
1070
   271
1070
     1
1070
   140
1040
3.5
1070
   144
1040
1.0
1070
    42
1040
1.0
1070
    44
1040
1.0
1070
    76
1070
     0
1070
    75
1070
     1
1070
   372
1070
    13
1070
   177
1070
     4
1070
   347
1005
16
1070
   346
1005
16
1070
    41
1040
2.925
1070
   344
1005
171
1070
   343
1005
171
1070
    46
1040
0.0
1070
   282
1070
     0
1070
   281
1070
     0
1070
   371
1070
    13
1070
   176
1070
     4
1070
   345
1005
16
1002
}
1001
ACAD_DSTYLE_DIM_LINETYPE
1070
   380
1005
16
1001
ACAD_DSTYLE_DIM_EXT1_LINETYPE
1070
   381
1005
16
1001
ACAD_DSTYLE_DIM_EXT2_LINETYPE
1070
   382
1005
16
  0
DIMENSION
  5
1B5
330
1F
100
AcDbEntity
  8
寸法
100
AcDbDimension
  2
*D7
 10
283.5812663670062
 20
117.0106123401924
 30
0.0
 11
280.3062663670062
 21
99.51061234019244
 31
0.0
 70
   160
 71
     5
 42
35.00000000000001
 53
90.0
  3
DimTextStyle1
100
AcDbAlignedDimension
 13
258.4443190014216
 23
82.01061234019242
 33
0.0
 14
258.4443190014216
 24
117.0106123401924
 34
0.0
 50
90.0
100
AcDbRotatedDimension
1001
ACAD
1000
DSTYLE
1002
{
1070
    71
1070
     0
1070
    78
1070
     8
1070
   178
1070
     7
1070
   340
1005
73
1070
   271
1070
     0
1070
   140
1040
3.5
1070
   144
1040
1.0
1070
    42
1040
1.0
1070
    44
1040
1.0
1070
    76
1070
     0
1070
    75
1070
     0
1070
   372
1070
    13
1070
   177
1070
     4
1070
   347
1005
16
1070
   346
1005
16
1070
    41
1040
2.925
1070
   344
1005
171
1070
   343
1005
171
1070
    46
1040
0.0
1070
   282
1070
     0
1070
   281
1070
     0
1070
   371
1070
    13
1070
   176
1070
     4
1070
   345
1005
16
1002
}
1001
ACAD_DSTYLE_DIM_LINETYPE
1070
   380
1005
16
1001
ACAD_DSTYLE_DIM_EXT1_LINETYPE
1070
   381
1005
16
1001
ACAD_DSTYLE_DIM_EXT2_LINETYPE
1070
   382
1005
16
  0
DIMENSION
  5
1C2
330
1F
100
AcDbEntity
  8
寸法
100
AcDbDimension
  2
*D8
 10
258.4443190014216
 20
138.893338429461
 30
0.0
 11
243.4443190014216
 21
142.168338429461
 31
0.0
 70
   160
 71
     5
 42
30.00000000000006
  3
DimTextStyle1
100
AcDbAlignedDimension
 13
228.4443190014215
 23
117.0106123401924
 33
0.0
 14
258.4443190014216
 24
117.0106123401924
 34
0.0
100
AcDbRotatedDimension
1001
ACAD
1000
DSTYLE
1002
{
1070
    71
1070
     0
1070
    78
1070
     8
1070
   178
1070
     7
1070
   340
1005
73
1070
   271
1070
     0
1070
   140
1040
3.5
1070
   144
1040
1.0
1070
    42
1040
1.0
1070
    44
1040
1.0
1070
    76
1070
     0
1070
    75
1070
     0
1070
   372
1070
    13
1070
   177
1070
     4
1070
   347
1005
16
1070
   346
1005
16
1070
    41
1040
2.925
1070
   344
1005
171
1070
   343
1005
171
1070
    46
1040
0.0
1070
   282
1070
     0
1070
   281
1070
     0
1070
   371
1070
    13
1070
   176
1070
     4
1070
   345
1005
16
1002
}
1001
ACAD_DSTYLE_DIM_LINETYPE
1070
   380
1005
16
1001
ACAD_DSTYLE_DIM_EXT1_LINETYPE
1070
   381
1005
16
1001
ACAD_DSTYLE_DIM_EXT2_LINETYPE
1070
   382
1005
16
  0
DIMENSION
  5
1CF
330
1F
100
AcDbEntity
  8
寸法
100
AcDbDimension
  2
*D9
 10
235.4443190014215
 20
69.89445562838424
 30
0.0
 11
231.8631281057114
 21
73.16945562838424
 31
0.0
 70
   160
 71
     5
 42
7.000000000000002
 52
270.0
  3
DimTextStyle1
100
AcDbAlignedDimension
 13
228.4443190014215
 23
82.01061234019242
 33
0.0
 14
235.4443190014215
 24
90.51061234019242
 34
0.0
100
AcDbRotatedDimension
1001
ACAD
1000
DSTYLE
1002
{
1070
    71
1070
     0
1070
    78
1070
     8
1070
   178
1070
     7
1070
   340
1005
73
1070
   271
1070
     0
1070
   140
1040
3.5
1070
   144
1040
1.0
1070
    42
1040
1.0
1070
    44
1040
1.0
1070
    76
1070
     0
1070
    75
1070
     0
1070
   372
1070
    13
1070
   177
1070
     4
1070
   347
1005
16
1070
   346
1005
16
1070
    41
1040
2.925
1070
   344
1005
171
1070
   343
1005
171
1070
    46
1040
2.744949771663215
1070
   282
1070
     0
1070
   281
1070
     0
1070
   371
1070
    13
1070
   176
1070
     4
1070
   345
1005
16
1002
}
1001
ACAD_DSTYLE_DIM_LINETYPE
1070
   380
1005
16
1001
ACAD_DSTYLE_DIM_EXT1_LINETYPE
1070
   381
1005
16
1001
ACAD_DSTYLE_DIM_EXT2_LINETYPE
1070
   382
1005
16
1001
ACAD_DSTYLE_DIMFLIPARROW_SYMBOL
1070
   385
1070
     0
1001
ACAD_DSTYLE_DIMFLIPARROW_WHICH_SYMBOL
1070
   386
1070
     3
  0
DIMENSION
  5
1DE
330
1F
100
AcDbEntity
  8
寸法
100
AcDbDimension
  2
*D10
 10
301.2914847699793
 20
165.6820944515205
 30
0.0
 11
298.0164847699793
 21
183.1820944515206
 31
0.0
 70
   160
 71
     5
 42
35.00000000000006
 53
90.0
  3
DimTextStyle1
100
AcDbAlignedDimension
 13
281.673262889787
 23
200.6820944515206
 33
0.0
 14
281.673262889787
 24
165.6820944515205
 34
0.0
 50
270.0
100
AcDbRotatedDimension
1001
ACAD
1000
DSTYLE
1002
{
1070
    71
1070
     0
1070
    78
1070
     8
1070
   178
1070
     7
1070
   340
1005
73
1070
   271
1070
     0
1070
   140
1040
3.5
1070
   144
1040
1.0
1070
    42
1040
1.0
1070
    44
1040
1.0
1070
    76
1070
     0
1070
    75
1070
     0
1070
   372
1070
    13
1070
   177
1070
     4
1070
   347
1005
16
1070
   346
1005
16
1070
    41
1040
2.925
1070
   344
1005
171
1070
   343
1005
171
1070
    46
1040
0.0
1070
   282
1070
     0
1070
   281
1070
     0
1070
   371
1070
    13
1070
   176
1070
     4
1070
   345
1005
16
1002
}
1001
ACAD_DSTYLE_DIM_LINETYPE
1070
   380
1005
16
1001
ACAD_DSTYLE_DIM_EXT1_LINETYPE
1070
   381
1005
16
1001
ACAD_DSTYLE_DIM_EXT2_LINETYPE
1070
   382
1005
16
  0
DIMENSION
  5
1EB
330
1F
100
AcDbEntity
  8
寸法
100
AcDbDimension
  2
*D11
 10
266.673262889787
 20
211.84804172977
 30
0.0
 11
274.173262889787
 21
215.1230417297701
 31
0.0
 70
   160
 71
     5
 42
15.0
  3
DimTextStyle1
100
AcDbAlignedDimension
 13
281.673262889787
 23
200.6820944515206
 33
0.0
 14
266.673262889787
 24
200.6820944515206
 34
0.0
 50
180.0
100
AcDbRotatedDimension
1001
ACAD
1000
DSTYLE
1002
{
1070
    71
1070
     0
1070
    78
1070
     8
1070
   178
1070
     7
1070
   340
1005
73
1070
   271
1070
     0
1070
   140
1040
3.5
1070
   144
1040
1.0
1070
    42
1040
1.0
1070
    44
1040
1.0
1070
    76
1070
     0
1070
    75
1070
     0
1070
   372
1070
    13
1070
   177
1070
     4
1070
   347
1005
16
1070
   346
1005
16
1070
    41
1040
2.925
1070
   344
1005
171
1070
   343
1005
171
1070
    46
1040
0.0
1070
   282
1070
     0
1070
   281
1070
     0
1070
   371
1070
    13
1070
   176
1070
     4
1070
   345
1005
16
1002
}
1001
ACAD_DSTYLE_DIM_LINETYPE
1070
   380
1005
16
1001
ACAD_DSTYLE_DIM_EXT1_LINETYPE
1070
   381
1005
16
1001
ACAD_DSTYLE_DIM_EXT2_LINETYPE
1070
   382
1005
16
  0
DIMENSION
  5
1F8
330
1F
100
AcDbEntity
  8
寸法
100
AcDbDimension
  2
*D12
 10
256.673262889787
 20
211.84804172977
 30
0.0
 11
261.673262889787
 21
215.1230417297701
 31
0.0
 70
   160
 71
     5
 42
10.0
  3
DimTextStyle1
100
AcDbAlignedDimension
 13
266.673262889787
 23
200.6820944515206
 33
0.0
 14
256.673262889787
 24
190.6820944515206
 34
0.0
 50
180.0
100
AcDbRotatedDimension
1001
ACAD
1000
DSTYLE
1002
{
1070
    71
1070
     0
1070
    78
1070
     8
1070
   178
1070
     7
1070
   340
1005
73
1070
   271
1070
     0
1070
   140
1040
3.5
1070
   144
1040
1.0
1070
    42
1040
1.0
1070
    44
1040
1.0
1070
    76
1070
     0
1070
    75
1070
     1
1070
   372
1070
    13
1070
   177
1070
     4
1070
   347
1005
16
1070
   346
1005
16
1070
    41
1040
2.925
1070
   344
1005
171
1070
   343
1005
171
1070
    46
1040
0.0
1070
   282
1070
     0
1070
   281
1070
     0
1070
   371
1070
    13
1070
   176
1070
     4
1070
   345
1005
16
1002
}
1001
ACAD_DSTYLE_DIM_LINETYPE
1070
   380
1005
16
1001
ACAD_DSTYLE_DIM_EXT1_LINETYPE
1070
   381
1005
16
1001
ACAD_DSTYLE_DIM_EXT2_LINETYPE
1070
   382
1005
16
  0
DIMENSION
  5
204
330
1F
100
AcDbEntity
  8
寸法
100
AcDbDimension
  2
*D13
 10
239.388004296702
 20
190.6820944515206
 30
0.0
 11
236.113004296702
 21
195.6820944515206
 31
0.0
 70
   160
 71
     5
 42
10.0
 53
90.0
  3
DimTextStyle1
100
AcDbAlignedDimension
 13
266.673262889787
 23
200.6820944515206
 33
0.0
 14
256.673262889787
 24
190.6820944515206
 34
0.0
 50
270.0
100
AcDbRotatedDimension
1001
ACAD
1000
DSTYLE
1002
{
1070
    71
1070
     0
1070
    78
1070
     8
1070
   178
1070
     7
1070
   340
1005
73
1070
   271
1070
     0
1070
   140
1040
3.5
1070
   144
1040
1.0
1070
    42
1040
1.0
1070
    44
1040
1.0
1070
    76
1070
     0
1070
    75
1070
     0
1070
   372
1070
    13
1070
   177
1070
     4
1070
   347
1005
16
1070
   346
1005
16
1070
    41
1040
2.925
1070
   344
1005
171
1070
   343
1005
171
1070
    46
1040
0.0
1070
   282
1070
     0
1070
   281
1070
     0
1070
   371
1070
    13
1070
   176
1070
     4
1070
   345
1005
16
1002
}
1001
ACAD_DSTYLE_DIM_LINETYPE
1070
   380
1005
16
1001
ACAD_DSTYLE_DIM_EXT1_LINETYPE
1070
   381
1005
16
1001
ACAD_DSTYLE_DIM_EXT2_LINETYPE
1070
   382
1005
16
  0
DIMENSION
  5
211
330
1F
100
AcDbEntity
  8
寸法
100
AcDbDimension
  2
*D14
 10
239.388004296702
 20
175.6820944515206
 30
0.0
 11
236.113004296702
 21
183.1820944515206
 31
0.0
 70
   160
 71
     5
 42
14.99999999999997
 53
90.0
  3
DimTextStyle1
100
AcDbAlignedDimension
 13
256.673262889787
 23
190.6820944515206
 33
0.0
 14
251.673262889787
 24
175.6820944515206
 34
0.0
 50
270.0
100
AcDbRotatedDimension
1001
ACAD
1000
DSTYLE
1002
{
1070
    71
1070
     0
1070
    78
1070
     8
1070
   178
1070
     7
1070
   340
1005
73
1070
   271
1070
     0
1070
   140
1040
3.5
1070
   144
1040
1.0
1070
    42
1040
1.0
1070
    44
1040
1.0
1070
    76
1070
     0
1070
    75
1070
     1
1070
   372
1070
    13
1070
   177
1070
     4
1070
   347
1005
16
1070
   346
1005
16
1070
    41
1040
2.925
1070
   344
1005
171
1070
   343
1005
171
1070
    46
1040
0.0
1070
   282
1070
     0
1070
   281
1070
     0
1070
   371
1070
    13
1070
   176
1070
     4
1070
   345
1005
16
1002
}
1001
ACAD_DSTYLE_DIM_LINETYPE
1070
   380
1005
16
1001
ACAD_DSTYLE_DIM_EXT1_LINETYPE
1070
   381
1005
16
1001
ACAD_DSTYLE_DIM_EXT2_LINETYPE
1070
   382
1005
16
  0
DIMENSION
  5
21D
330
1F
100
AcDbEntity
  8
寸法
100
AcDbDimension
  2
*D15
 10
239.388004296702
 20
165.6820944515206
 30
0.0
 11
236.113004296702
 21
170.6820944515206
 31
0.0
 70
   160
 71
     5
 42
10.0
 53
90.0
  3
DimTextStyle1
100
AcDbAlignedDimension
 13
251.673262889787
 23
175.6820944515206
 33
0.0
 14
251.673262889787
 24
165.6820944515206
 34
0.0
 50
270.0
100
AcDbRotatedDimension
1001
ACAD
1000
DSTYLE
1002
{
1070
    71
1070
     0
1070
    78
1070
     8
1070
   178
1070
     7
1070
   340
1005
73
1070
   271
1070
     0
1070
   140
1040
3.5
1070
   144
1040
1.0
1070
    42
1040
1.0
1070
    44
1040
1.0
1070
    76
1070
     0
1070
    75
1070
     1
1070
   372
1070
    13
1070
   177
1070
     4
1070
   347
1005
16
1070
   346
1005
16
1070
    41
1040
2.925
1070
   344
1005
171
1070
   343
1005
171
1070
    46
1040
0.0
1070
   282
1070
     0
1070
   281
1070
     0
1070
   371
1070
    13
1070
   176
1070
     4
1070
   345
1005
16
1002
}
1001
ACAD_DSTYLE_DIM_LINETYPE
1070
   380
1005
16
1001
ACAD_DSTYLE_DIM_EXT1_LINETYPE
1070
   381
1005
16
1001
ACAD_DSTYLE_DIM_EXT2_LINETYPE
1070
   382
1005
16
  0
DIMENSION
  5
229
330
1F
100
AcDbEntity
  8
寸法
100
AcDbDimension
  2
*D16
 10
239.388004296702
 20
175.6820944515206
 30
0.0
 11
236.113004296702
 21
170.6820944515206
 31
0.0
 70
   160
 71
     5
 42
10.0
 53
90.0
  3
DimTextStyle1
100
AcDbAlignedDimension
 13
251.673262889787
 23
165.6820944515206
 33
0.0
 14
251.673262889787
 24
175.6820944515206
 34
0.0
 50
90.0
100
AcDbRotatedDimension
1001
ACAD
1000
DSTYLE
1002
{
1070
    71
1070
     0
1070
    78
1070
     8
1070
   178
1070
     7
1070
   340
1005
73
1070
   271
1070
     0
1070
   140
1040
3.5
1070
   144
1040
1.0
1070
    42
1040
1.0
1070
    44
1040
1.0
1070
    76
1070
     1
1070
    75
1070
     1
1070
   372
1070
    13
1070
   177
1070
     4
1070
   347
1005
16
1070
   346
1005
16
1070
    41
1040
2.925
1070
   344
1005
171
1070
   343
1005
171
1070
    46
1040
0.0
1070
   282
1070
     0
1070
   281
1070
     0
1070
   371
1070
    13
1070
   176
1070
     4
1070
   345
1005
16
1002
}
1001
ACAD_DSTYLE_DIM_LINETYPE
1070
   380
1005
16
1001
ACAD_DSTYLE_DIM_EXT1_LINETYPE
1070
   381
1005
16
1001
ACAD_DSTYLE_DIM_EXT2_LINETYPE
1070
   382
1005
16
  0
DIMENSION
  5
234
330
1F
100
AcDbEntity
  8
寸法
100
AcDbDimension
  2
*D17
 10
281.673262889787
 20
152.7563741670097
 30
0.0
 11
266.673262889787
 21
156.0313741670097
 31
0.0
 70
   160
 71
     5
 42
30.0
  3
DimTextStyle1
100
AcDbAlignedDimension
 13
251.673262889787
 23
165.6820944515206
 33
0.0
 14
281.673262889787
 24
165.6820944515205
 34
0.0
100
AcDbRotatedDimension
1001
ACAD
1000
DSTYLE
1002
{
1070
    71
1070
     0
1070
    78
1070
     8
1070
   178
1070
     7
1070
   340
1005
73
1070
   271
1070
     0
1070
   140
1040
3.5
1070
   144
1040
1.0
1070
    42
1040
1.0
1070
    44
1040
1.0
1070
    76
1070
     0
1070
    75
1070
     0
1070
   372
1070
    13
1070
   177
1070
     4
1070
   347
1005
16
1070
   346
1005
16
1070
    41
1040
2.925
1070
   344
1005
171
1070
   343
1005
171
1070
    46
1040
0.0
1070
   282
1070
     0
1070
   281
1070
     0
1070
   371
1070
    13
1070
   176
1070
     4
1070
   345
1005
16
1002
}
1001
ACAD_DSTYLE_DIM_LINETYPE
1070
   380
1005
16
1001
ACAD_DSTYLE_DIM_EXT1_LINETYPE
1070
   381
1005
16
1001
ACAD_DSTYLE_DIM_EXT2_LINETYPE
1070
   382
1005
16
  0
DIMENSION
  5
241
330
1F
100
AcDbEntity
  8
寸法
100
AcDbDimension
  2
*D19
 10
208.7076370460379
 20
190.682442617477
 30
0.0
 11
204.8411661442443
 21
190.682442617477
 31
0.0
 70
   160
 71
     5
 42
10.0
  3
DimTextStyle1
100
AcDbAlignedDimension
 13
224.4001564871444
 23
200.682442617477
 33
0.0
 14
221.4001564871444
 24
190.682442617477
 34
0.0
 50
270.0
100
AcDbRotatedDimension
1001
ACAD
1000
DSTYLE
1002
{
1070
    71
1070
     0
1070
    78
1070
     8
1070
   178
1070
     7
1070
   340
1005
73
1070
   271
1070
     0
1070
   140
1040
3.5
1070
   144
1040
1.0
1070
    42
1040
1.0
1070
    44
1040
1.0
1070
    76
1070
     0
1070
    75
1070
     0
1070
   372
1070
    13
1070
   177
1070
     4
1070
   347
1005
16
1070
   346
1005
16
1070
    41
1040
2.0
1070
   344
1005
171
1070
   343
1005
242
1070
    46
1040
0.0
1070
   282
1070
     0
1070
   281
1070
     0
1070
   371
1070
    13
1070
   176
1070
     4
1070
   345
1005
16
1002
}
1001
ACAD_DSTYLE_DIM_LINETYPE
1070
   380
1005
16
1001
ACAD_DSTYLE_DIM_EXT1_LINETYPE
1070
   381
1005
16
1001
ACAD_DSTYLE_DIM_EXT2_LINETYPE
1070
   382
1005
16
  0
DIMENSION
  5
253
330
1F
100
AcDbEntity
  8
寸法
100
AcDbDimension
  2
*D20
 10
208.7076370460379
 20
175.682442617477
 30
0.0
 11
204.8411661442443
 21
175.682442617477
 31
0.0
 70
   160
 71
     5
 42
25.0
  3
DimTextStyle1
100
AcDbAlignedDimension
 13
224.4001564871444
 23
200.682442617477
 33
0.0
 14
218.4001564871444
 24
175.682442617477
 34
0.0
 50
270.0
100
AcDbRotatedDimension
1001
ACAD
1000
DSTYLE
1002
{
1070
    71
1070
     0
1070
    78
1070
     8
1070
   178
1070
     7
1070
   340
1005
73
1070
   271
1070
     0
1070
   140
1040
3.5
1070
   144
1040
1.0
1070
    42
1040
1.0
1070
    44
1040
1.0
1070
    76
1070
     0
1070
    75
1070
     1
1070
   372
1070
    13
1070
   177
1070
     4
1070
   347
1005
16
1070
   346
1005
16
1070
    41
1040
2.0
1070
   344
1005
171
1070
   343
1005
242
1070
    46
1040
0.0
1070
   282
1070
     0
1070
   281
1070
     0
1070
   371
1070
    13
1070
   176
1070
     4
1070
   345
1005
16
1002
}
1001
ACAD_DSTYLE_DIM_LINETYPE
1070
   380
1005
16
1001
ACAD_DSTYLE_DIM_EXT1_LINETYPE
1070
   381
1005
16
1001
ACAD_DSTYLE_DIM_EXT2_LINETYPE
1070
   382
1005
16
  0
DIMENSION
  5
25F
330
1F
100
AcDbEntity
  8
寸法
100
AcDbDimension
  2
*D21
 10
208.7076370460379
 20
165.682442617477
 30
0.0
 11
204.8411661442443
 21
165.682442617477
 31
0.0
 70
   160
 71
     5
 42
35.0
  3
DimTextStyle1
100
AcDbAlignedDimension
 13
224.4001564871444
 23
200.682442617477
 33
0.0
 14
218.4001564871444
 24
165.682442617477
 34
0.0
 50
270.0
100
AcDbRotatedDimension
1001
ACAD
1000
DSTYLE
1002
{
1070
    71
1070
     0
1070
    78
1070
     8
1070
   178
1070
     7
1070
   340
1005
73
1070
   271
1070
     0
1070
   140
1040
3.5
1070
   144
1040
1.0
1070
    42
1040
1.0
1070
    44
1040
1.0
1070
    76
1070
     0
1070
    75
1070
     1
1070
   372
1070
    13
1070
   177
1070
     4
1070
   347
1005
16
1070
   346
1005
16
1070
    41
1040
2.0
1070
   344
1005
171
1070
   343
1005
242
1070
    46
1040
0.0
1070
   282
1070
     0
1070
   281
1070
     0
1070
   371
1070
    13
1070
   176
1070
     4
1070
   345
1005
16
1002
}
1001
ACAD_DSTYLE_DIM_LINETYPE
1070
   380
1005
16
1001
ACAD_DSTYLE_DIM_EXT1_LINETYPE
1070
   381
1005
16
1001
ACAD_DSTYLE_DIM_EXT2_LINETYPE
1070
   382
1005
16
  0
DIMENSION
  5
26B
330
1F
100
AcDbEntity
  8
寸法
100
AcDbDimension
  2
*D22
 10
151.7810889927906
 20
178.066837513346
 30
0.0
 11
156.9448557953966
 21
193.560743973897
 31
0.0
 70
   160
 71
     5
 42
32.00000000000006
 53
60.0
  3
DimTextStyle1
100
AcDbAlignedDimension
 13
179.3374147940891
 23
199.1076026222254
 33
0.0
 14
163.3374147940891
 24
171.3947897011233
 34
0.0
 50
240.0
100
AcDbRotatedDimension
1001
ACAD
1000
DSTYLE
1002
{
1070
    71
1070
     0
1070
    78
1070
     8
1070
   178
1070
     7
1070
   340
1005
73
1070
   271
1070
     0
1070
   140
1040
3.5
1070
   144
1040
1.0
1070
    42
1040
1.000000000000022
1070
    44
1040
1.000000000000008
1070
    76
1070
     0
1070
    75
1070
     0
1070
   372
1070
    13
1070
   177
1070
     4
1070
   347
1005
16
1070
   346
1005
16
1070
    41
1040
2.925
1070
   344
1005
171
1070
   343
1005
171
1070
    46
1040
0.0
1070
   282
1070
     0
1070
   281
1070
     0
1070
   371
1070
    13
1070
   176
1070
     4
1070
   345
1005
16
1002
}
1001
ACAD_DSTYLE_DIM_LINETYPE
1070
   380
1005
16
1001
ACAD_DSTYLE_DIM_EXT1_LINETYPE
1070
   381
1005
16
1001
ACAD_DSTYLE_DIM_EXT2_LINETYPE
1070
   382
1005
16
  0
DIMENSION
  5
278
330
1F
100
AcDbEntity
  8
寸法
100
AcDbDimension
  2
*D23
 10
251.673262889787
 20
211.84804172977
 30
0.0
 11
254.3875627015
 21
215.1230417297701
 31
0.0
 70
   160
 71
     5
 42
5.000000000000002
 52
270.0
  3
DimTextStyle1
100
AcDbAlignedDimension
 13
256.673262889787
 23
190.6820944515206
 33
0.0
 14
251.673262889787
 24
175.6820944515206
 34
0.0
 50
180.0
100
AcDbRotatedDimension
1001
ACAD
1000
DSTYLE
1002
{
1070
    71
1070
     0
1070
    78
1070
     8
1070
   178
1070
     7
1070
   340
1005
73
1070
   271
1070
     0
1070
   140
1040
3.5
1070
   144
1040
1.0
1070
    42
1040
1.0
1070
    44
1040
1.0
1070
    76
1070
     0
1070
    75
1070
     1
1070
   372
1070
    13
1070
   177
1070
     4
1070
   347
1005
16
1070
   346
1005
16
1070
    41
1040
2.925
1070
   344
1005
171
1070
   343
1005
171
1070
    46
1040
1.193058928082337
1070
   282
1070
     0
1070
   281
1070
     0
1070
   371
1070
    13
1070
   176
1070
     4
1070
   345
1005
16
1002
}
1001
ACAD_DSTYLE_DIM_LINETYPE
1070
   380
1005
16
1001
ACAD_DSTYLE_DIM_EXT1_LINETYPE
1070
   381
1005
16
1001
ACAD_DSTYLE_DIM_EXT2_LINETYPE
1070
   382
1005
16
1001
ACAD_DSTYLE_DIMFLIPARROW_SYMBOL
1070
   385
1070
     0
1001
ACAD_DSTYLE_DIMFLIPARROW_WHICH_SYMBOL
1070
   386
1070
     3
  0
INSERT
  5
28C
330
1F
100
AcDbEntity
  8
寸法
100
AcDbBlockReference
  2
BV_ATTRIBUTE1
 10
199.9873615244965
 20
115.532235011475
 30
0.0
  0
INSERT
  5
294
330
1F
100
AcDbEntity
  8
寸法
100
AcDbBlockReference
  2
BV_ATTRIBUTE2
 10
199.9379709062201
 20
83.51061234019235
 30
0.0
  0
INSERT
  5
29D
330
1F
100
AcDbEntity
  8
寸法
100
AcDbBlockReference
  2
BV_ATTRIBUTE3
 10
187.7595085304146
 20
110.3971909307178
 30
0.0
  0
INSERT
  5
2A6
330
1F
100
AcDbEntity
  8
寸法
100
AcDbBlockReference
  2
BV_ATTRIBUTE4
 10
253.0083541073818
 20
93.5602805255124
 30
0.0
  0
ENDSEC
  0
SECTION
  2
OBJECTS
  0
DICTIONARY
  5
C
330
0
100
AcDbDictionary
281
     1
  3
ACAD_GROUP
350
D
  3
ACAD_LAYOUT
350
1A
  3
ACAD_MATERIAL
350
3B
  3
ACAD_MLEADERSTYLE
350
2A9
  3
ACAD_MLINESTYLE
350
17
  3
ACAD_PLOTSETTINGS
350
19
  3
ACAD_PLOTSTYLENAME
350
E
  3
ACAD_SCALELIST
350
FF
  3
ACAD_VISUALSTYLE
350
2A
  3
AcDbVariableDictionary
350
2A7
  0
DICTIONARY
  5
D
102
{ACAD_REACTORS
330
C
102
}
330
C
100
AcDbDictionary
281
     1
  0
DICTIONARY
  5
1A
102
{ACAD_REACTORS
330
C
102
}
330
C
100
AcDbDictionary
281
     1
  3
Layout1
350
1E
  3
Layout2
350
26
  3
Model
350
22
  0
DICTIONARY
  5
3B
102
{ACAD_REACTORS
330
C
102
}
330
C
100
AcDbDictionary
281
     1
  3
ByBlock
350
3D
  3
ByLayer
350
3C
  3
Global
350
3E
  0
DICTIONARY
  5
2A9
102
{ACAD_REACTORS
330
C
102
}
330
C
100
AcDbDictionary
281
     1
  0
DICTIONARY
  5
17
102
{ACAD_REACTORS
330
C
102
}
330
C
100
AcDbDictionary
281
     1
  3
Standard
350
18
  0
DICTIONARY
  5
19
102
{ACAD_REACTORS
330
C
102
}
330
C
100
AcDbDictionary
281
     1
  0
ACDBDICTIONARYWDFLT
  5
E
102
{ACAD_REACTORS
330
C
102
}
330
C
100
AcDbDictionary
281
     1
  3
Normal
350
F
100
AcDbDictionaryWithDefault
340
F
  0
DICTIONARY
  5
FF
102
{ACAD_REACTORS
330
C
102
}
330
C
100
AcDbDictionary
281
     1
  3
A0
350
100
  3
A1
350
101
  3
A2
350
102
  3
A3
350
103
  3
A4
350
104
  3
A5
350
105
  3
A6
350
106
  3
A7
350
107
  3
A8
350
108
  3
A9
350
109
  3
B0
350
10A
  3
B1
350
10B
  3
B2
350
10C
  3
B3
350
10D
  3
B4
350
10E
  3
B5
350
10F
  3
B6
350
110
  3
B7
350
111
  3
B8
350
112
  3
B9
350
113
  3
C0
350
114
  3
C1
350
115
  3
C2
350
116
  3
C3
350
117
  3
C4
350
118
  3
C5
350
119
  3
C6
350
11A
  3
C7
350
11B
  3
C8
350
11C
  3
C9
350
11D
  3
D0
350
11E
  3
D1
350
11F
  3
D2
350
120
  0
DICTIONARY
  5
2A
102
{ACAD_REACTORS
330
C
102
}
330
C
100
AcDbDictionary
281
     1
  3
2dWireframe
350
2F
  3
3D Hidden
350
31
  3
3dWireframe
350
30
  3
Basic
350
32
  3
Brighten
350
36
  3
ColorChange
350
3A
  3
Conceptual
350
34
  3
Dim
350
35
  3
Facepattern
350
39
  3
Flat
350
2B
  3
FlatWithEdges
350
2C
  3
Gouraud
350
2D
  3
GouraudWithEdges
350
2E
  3
Linepattern
350
38
  3
Realistic
350
33
  3
Thicken
350
37
  0
DICTIONARY
  5
2A7
102
{ACAD_REACTORS
330
C
102
}
330
C
100
AcDbDictionary
281
     1
  3
CANNOSCALE
350
2AA
  3
DIMASSOC
350
2AB
  3
HIDETEXT
350
2AC
  0
LAYOUT
  5
1E
102
{ACAD_REACTORS
330
1A
102
}
330
1A
100
AcDbPlotSettings
  1

  2
none_device
  4

  6

 40
0.0
 41
0.0
 42
0.0
 43
0.0
 44
0.0
 45
0.0
 46
0.0
 47
0.0
 48
0.0
 49
0.0
140
0.0
141
0.0
142
1.0
143
1.0
 70
   688
 72
     0
 73
     0
 74
     5
  7

 75
    16
147
1.0
148
0.0
149
0.0
100
AcDbLayout
  1
Layout1
 70
     1
 71
     1
 10
0.0
 20
0.0
 11
12.0
 21
9.0
 12
0.0
 22
0.0
 32
0.0
 14
1.000000000000000E+20
 24
1.000000000000000E+20
 34
1.000000000000000E+20
 15
-1.000000000000000E+20
 25
-1.000000000000000E+20
 35
-1.000000000000000E+20
146
0.0
 13
0.0
 23
0.0
 33
0.0
 16
1.0
 26
0.0
 36
0.0
 17
0.0
 27
1.0
 37
0.0
 76
     0
330
1B
  0
LAYOUT
  5
26
102
{ACAD_REACTORS
330
1A
102
}
330
1A
100
AcDbPlotSettings
  1

  2
none_device
  4

  6

 40
0.0
 41
0.0
 42
0.0
 43
0.0
 44
0.0
 45
0.0
 46
0.0
 47
0.0
 48
0.0
 49
0.0
140
0.0
141
0.0
142
1.0
143
1.0
 70
   688
 72
     0
 73
     0
 74
     5
  7

 75
    16
147
1.0
148
0.0
149
0.0
100
AcDbLayout
  1
Layout2
 70
     1
 71
     2
 10
0.0
 20
0.0
 11
0.0
 21
0.0
 12
0.0
 22
0.0
 32
0.0
 14
0.0
 24
0.0
 34
0.0
 15
0.0
 25
0.0
 35
0.0
146
0.0
 13
0.0
 23
0.0
 33
0.0
 16
1.0
 26
0.0
 36
0.0
 17
0.0
 27
1.0
 37
0.0
 76
     0
330
23
  0
LAYOUT
  5
22
102
{ACAD_REACTORS
330
1A
102
}
330
1A
100
AcDbPlotSettings
  1

  2
none_device
  4

  6

 40
0.0
 41
0.0
 42
0.0
 43
0.0
 44
0.0
 45
0.0
 46
0.0
 47
0.0
 48
0.0
 49
0.0
140
0.0
141
0.0
142
1.0
143
1.0
 70
  1712
 72
     0
 73
     0
 74
     0
  7

 75
     0
147
1.0
148
0.0
149
0.0
100
AcDbLayout
  1
Model
 70
     1
 71
     0
 10
0.0
 20
0.0
 11
500.0
 21
353.6585388183594
 12
0.0
 22
0.0
 32
0.0
 14
1.000000000000000E+20
 24
1.000000000000000E+20
 34
1.000000000000000E+20
 15
-1.000000000000000E+20
 25
-1.000000000000000E+20
 35
-1.000000000000000E+20
146
0.0
 13
0.0
 23
0.0
 33
0.0
 16
1.0
 26
0.0
 36
0.0
 17
0.0
 27
1.0
 37
0.0
 76
     0
330
1F
331
29
  0
MATERIAL
  5
3D
102
{ACAD_REACTORS
330
3B
102
}
102
{ACAD_XDICTIONARY
360
2D4
102
}
330
3B
100
AcDbMaterial
  1
ByBlock
  0
MATERIAL
  5
3C
102
{ACAD_REACTORS
330
3B
102
}
102
{ACAD_XDICTIONARY
360
2D2
102
}
330
3B
100
AcDbMaterial
  1
ByLayer
  0
MATERIAL
  5
3E
102
{ACAD_REACTORS
330
3B
102
}
102
{ACAD_XDICTIONARY
360
2D6
102
}
330
3B
100
AcDbMaterial
  1
Global
  0
MLINESTYLE
  5
18
102
{ACAD_REACTORS
330
17
102
}
330
17
100
AcDbMlineStyle
  2
Standard
 70
     0
  3

 62
   256
 51
90.0
 52
90.0
 71
     2
 49
0.5
 62
   256
  6
BYLAYER
 49
-0.5
 62
   256
  6
BYLAYER
  0
ACDBPLACEHOLDER
  5
F
102
{ACAD_REACTORS
330
E
102
}
330
E
  0
SCALE
  5
100
102
{ACAD_REACTORS
330
FF
102
}
330
FF
100
AcDbScale
 70
     0
300
1:1
140
1.0
141
1.0
290
     1
  0
SCALE
  5
101
102
{ACAD_REACTORS
330
FF
102
}
330
FF
100
AcDbScale
 70
     0
300
1:2
140
1.0
141
2.0
290
     0
  0
SCALE
  5
102
102
{ACAD_REACTORS
330
FF
102
}
330
FF
100
AcDbScale
 70
     0
300
1:4
140
1.0
141
4.0
290
     0
  0
SCALE
  5
103
102
{ACAD_REACTORS
330
FF
102
}
330
FF
100
AcDbScale
 70
     0
300
1:5
140
1.0
141
5.0
290
     0
  0
SCALE
  5
104
102
{ACAD_REACTORS
330
FF
102
}
330
FF
100
AcDbScale
 70
     0
300
1:8
140
1.0
141
8.0
290
     0
  0
SCALE
  5
105
102
{ACAD_REACTORS
330
FF
102
}
330
FF
100
AcDbScale
 70
     0
300
1:10
140
1.0
141
10.0
290
     0
  0
SCALE
  5
106
102
{ACAD_REACTORS
330
FF
102
}
330
FF
100
AcDbScale
 70
     0
300
1:16
140
1.0
141
16.0
290
     0
  0
SCALE
  5
107
102
{ACAD_REACTORS
330
FF
102
}
330
FF
100
AcDbScale
 70
     0
300
1:20
140
1.0
141
20.0
290
     0
  0
SCALE
  5
108
102
{ACAD_REACTORS
330
FF
102
}
330
FF
100
AcDbScale
 70
     0
300
1:30
140
1.0
141
30.0
290
     0
  0
SCALE
  5
109
102
{ACAD_REACTORS
330
FF
102
}
330
FF
100
AcDbScale
 70
     0
300
1:40
140
1.0
141
40.0
290
     0
  0
SCALE
  5
10A
102
{ACAD_REACTORS
330
FF
102
}
330
FF
100
AcDbScale
 70
     0
300
1:50
140
1.0
141
50.0
290
     0
  0
SCALE
  5
10B
102
{ACAD_REACTORS
330
FF
102
}
330
FF
100
AcDbScale
 70
     0
300
1:100
140
1.0
141
100.0
290
     0
  0
SCALE
  5
10C
102
{ACAD_REACTORS
330
FF
102
}
330
FF
100
AcDbScale
 70
     0
300
2:1
140
2.0
141
1.0
290
     0
  0
SCALE
  5
10D
102
{ACAD_REACTORS
330
FF
102
}
330
FF
100
AcDbScale
 70
     0
300
4:1
140
4.0
141
1.0
290
     0
  0
SCALE
  5
10E
102
{ACAD_REACTORS
330
FF
102
}
330
FF
100
AcDbScale
 70
     0
300
8:1
140
8.0
141
1.0
290
     0
  0
SCALE
  5
10F
102
{ACAD_REACTORS
330
FF
102
}
330
FF
100
AcDbScale
 70
     0
300
10:1
140
10.0
141
1.0
290
     0
  0
SCALE
  5
110
102
{ACAD_REACTORS
330
FF
102
}
330
FF
100
AcDbScale
 70
     0
300
100:1
140
100.0
141
1.0
290
     0
  0
SCALE
  5
111
102
{ACAD_REACTORS
330
FF
102
}
330
FF
100
AcDbScale
 70
     0
300
1/128" = 1'-0"
140
0.0078125
141
12.0
290
     0
  0
SCALE
  5
112
102
{ACAD_REACTORS
330
FF
102
}
330
FF
100
AcDbScale
 70
     0
300
1/64" = 1'-0"
140
0.015625
141
12.0
290
     0
  0
SCALE
  5
113
102
{ACAD_REACTORS
330
FF
102
}
330
FF
100
AcDbScale
 70
     0
300
1/32" = 1'-0"
140
0.03125
141
12.0
290
     0
  0
SCALE
  5
114
102
{ACAD_REACTORS
330
FF
102
}
330
FF
100
AcDbScale
 70
     0
300
1/16" = 1'-0"
140
0.0625
141
12.0
290
     0
  0
SCALE
  5
115
102
{ACAD_REACTORS
330
FF
102
}
330
FF
100
AcDbScale
 70
     0
300
3/32" = 1'-0"
140
0.09375
141
12.0
290
     0
  0
SCALE
  5
116
102
{ACAD_REACTORS
330
FF
102
}
330
FF
100
AcDbScale
 70
     0
300
1/8" = 1'-0"
140
0.125
141
12.0
290
     0
  0
SCALE
  5
117
102
{ACAD_REACTORS
330
FF
102
}
330
FF
100
AcDbScale
 70
     0
300
3/16" = 1'-0"
140
0.1875
141
12.0
290
     0
  0
SCALE
  5
118
102
{ACAD_REACTORS
330
FF
102
}
330
FF
100
AcDbScale
 70
     0
300
1/4" = 1'-0"
140
0.25
141
12.0
290
     0
  0
SCALE
  5
119
102
{ACAD_REACTORS
330
FF
102
}
330
FF
100
AcDbScale
 70
     0
300
3/8" = 1'-0"
140
0.375
141
12.0
290
     0
  0
SCALE
  5
11A
102
{ACAD_REACTORS
330
FF
102
}
330
FF
100
AcDbScale
 70
     0
300
1/2" = 1'-0"
140
0.5
141
12.0
290
     0
  0
SCALE
  5
11B
102
{ACAD_REACTORS
330
FF
102
}
330
FF
100
AcDbScale
 70
     0
300
3/4" = 1'-0"
140
0.75
141
12.0
290
     0
  0
SCALE
  5
11C
102
{ACAD_REACTORS
330
FF
102
}
330
FF
100
AcDbScale
 70
     0
300
1" = 1'-0"
140
1.0
141
12.0
290
     0
  0
SCALE
  5
11D
102
{ACAD_REACTORS
330
FF
102
}
330
FF
100
AcDbScale
 70
     0
300
1-1/2" = 1'-0"
140
1.5
141
12.0
290
     0
  0
SCALE
  5
11E
102
{ACAD_REACTORS
330
FF
102
}
330
FF
100
AcDbScale
 70
     0
300
3" = 1'-0"
140
3.0
141
12.0
290
     0
  0
SCALE
  5
11F
102
{ACAD_REACTORS
330
FF
102
}
330
FF
100
AcDbScale
 70
     0
300
6" = 1'-0"
140
6.0
141
12.0
290
     0
  0
SCALE
  5
120
102
{ACAD_REACTORS
330
FF
102
}
330
FF
100
AcDbScale
 70
     0
300
1'-0" = 1'-0"
140
12.0
141
12.0
290
     0
  0
VISUALSTYLE
  5
2F
102
{ACAD_REACTORS
330
2A
102
}
102
{ACAD_XDICTIONARY
360
2BA
102
}
330
2A
100
AcDbVisualStyle
  2
2dWireframe
 70
     4
 71
     0
 72
     2
 73
     0
 90
        0
 40
-0.6
 41
-30.0
 62
     5
 63
     7
 74
     1
 91
        4
 64
     7
 65
   257
 75
     1
175
     1
 42
1.0
 92
        0
 66
   257
 43
1.0
 76
     1
 77
     6
 78
     2
 67
     7
 79
     5
170
     0
171
     0
290
     0
174
     0
 93
        1
 44
0.0
173
     0
291
     0
 45
0.0
1001
ACAD
1000
AcDbSavedByObjectVersion
1070
     0
  0
VISUALSTYLE
  5
31
102
{ACAD_REACTORS
330
2A
102
}
102
{ACAD_XDICTIONARY
360
2BE
102
}
330
2A
100
AcDbVisualStyle
  2
3D Hidden
 70
     6
 71
     1
 72
     2
 73
     2
 90
        0
 40
-0.6
 41
-30.0
 62
     5
 63
     7
 74
     2
 91
        2
 64
     7
 65
   257
 75
     2
175
     1
 42
40.0
 92
        0
 66
   257
 43
1.0
 76
     1
 77
     6
 78
     2
 67
     7
 79
     3
170
     0
171
     0
290
     0
174
     0
 93
        1
 44
0.0
173
     0
291
     0
 45
0.0
1001
ACAD
1000
AcDbSavedByObjectVersion
1070
     0
  0
VISUALSTYLE
  5
30
102
{ACAD_REACTORS
330
2A
102
}
102
{ACAD_XDICTIONARY
360
2BC
102
}
330
2A
100
AcDbVisualStyle
  2
3dWireframe
 70
     5
 71
     0
 72
     2
 73
     0
 90
        0
 40
-0.6
 41
-30.0
 62
     5
 63
     7
 74
     1
 91
        4
 64
     7
 65
   257
 75
     1
175
     1
 42
1.0
 92
        0
 66
   257
 43
1.0
 76
     1
 77
     6
 78
     2
 67
     7
 79
     5
170
     0
171
     0
290
     0
174
     0
 93
        1
 44
0.0
173
     0
291
     0
 45
0.0
1001
ACAD
1000
AcDbSavedByObjectVersion
1070
     0
  0
VISUALSTYLE
  5
32
102
{ACAD_REACTORS
330
2A
102
}
102
{ACAD_XDICTIONARY
360
2C0
102
}
330
2A
100
AcDbVisualStyle
  2
Basic
 70
     7
 71
     1
 72
     0
 73
     1
 90
        0
 40
-0.6
 41
-30.0
 62
     5
 63
     7
 74
     0
 91
        4
 64
     7
 65
   257
 75
     1
175
     1
 42
1.0
 92
        8
 66
     7
 43
1.0
 76
     1
 77
     6
 78
     2
 67
     7
 79
     5
170
     0
171
     0
290
     0
174
     0
 93
        1
 44
0.0
173
     0
291
     1
 45
0.0
1001
ACAD
1000
AcDbSavedByObjectVersion
1070
     0
  0
VISUALSTYLE
  5
36
102
{ACAD_REACTORS
330
2A
102
}
102
{ACAD_XDICTIONARY
360
2C8
102
}
330
2A
100
AcDbVisualStyle
  2
Brighten
 70
    12
 71
     2
 72
     2
 73
     0
 90
        0
 40
-0.6
 41
-30.0
 62
     5
 63
     7
 74
     1
 91
        4
 64
     7
 65
   257
 75
     1
175
     1
 42
1.0
 92
        8
 66
     7
 43
1.0
 76
     1
 77
     6
 78
     2
 67
     7
 79
     5
170
     0
171
     0
290
     0
174
     0
 93
        1
 44
50.0
173
     0
291
     1
 45
0.0
1001
ACAD
1000
AcDbSavedByObjectVersion
1070
     0
  0
VISUALSTYLE
  5
3A
102
{ACAD_REACTORS
330
2A
102
}
102
{ACAD_XDICTIONARY
360
2D0
102
}
330
2A
100
AcDbVisualStyle
  2
ColorChange
 70
    16
 71
     2
 72
     2
 73
     3
 90
        0
 40
-0.6
 41
-30.0
 62
     5
 63
     8
 74
     1
 91
        4
 64
     7
 65
   257
 75
     1
175
     1
 42
1.0
 92
        8
 66
     8
 43
1.0
 76
     1
 77
     6
 78
     2
 67
     7
 79
     5
170
     0
171
     0
290
     0
174
     0
 93
        1
 44
0.0
173
     0
291
     1
 45
0.0
1001
ACAD
1000
AcDbSavedByObjectVersion
1070
     0
  0
VISUALSTYLE
  5
34
102
{ACAD_REACTORS
330
2A
102
}
102
{ACAD_XDICTIONARY
360
2C4
102
}
330
2A
100
AcDbVisualStyle
  2
Conceptual
 70
     9
 71
     3
 72
     2
 73
     0
 90
        0
 40
-0.6
 41
-30.0
 62
     5
 63
     7
 74
     2
 91
        2
 64
     7
 65
   257
 75
     1
175
     1
 42
40.0
 92
        8
 66
     7
 43
1.0
 76
     1
 77
     6
 78
     2
 67
     7
 79
     3
170
     0
171
     0
290
     0
174
     0
 93
        1
 44
0.0
173
     0
291
     0
 45
0.0
1001
ACAD
1000
AcDbSavedByObjectVersion
1070
     0
  0
VISUALSTYLE
  5
35
102
{ACAD_REACTORS
330
2A
102
}
102
{ACAD_XDICTIONARY
360
2C6
102
}
330
2A
100
AcDbVisualStyle
  2
Dim
 70
    11
 71
     2
 72
     2
 73
     0
 90
        0
 40
-0.6
 41
-30.0
 62
     5
 63
     7
 74
     1
 91
        4
 64
     7
 65
   257
 75
     1
175
     1
 42
1.0
 92
        8
 66
     7
 43
1.0
 76
     1
 77
     6
 78
     2
 67
     7
 79
     5
170
     0
171
     0
290
     0
174
     0
 93
        1
 44
-50.0
173
     0
291
     1
 45
0.0
1001
ACAD
1000
AcDbSavedByObjectVersion
1070
     0
  0
VISUALSTYLE
  5
39
102
{ACAD_REACTORS
330
2A
102
}
102
{ACAD_XDICTIONARY
360
2CE
102
}
330
2A
100
AcDbVisualStyle
  2
Facepattern
 70
    15
 71
     2
 72
     2
 73
     0
 90
        0
 40
-0.6
 41
-30.0
 62
     5
 63
     7
 74
     1
 91
        4
 64
     7
 65
   257
 75
     1
175
     1
 42
1.0
 92
        8
 66
     7
 43
1.0
 76
     1
 77
     6
 78
     2
 67
     7
 79
     5
170
     0
171
     0
290
     0
174
     0
 93
        1
 44
0.0
173
     0
291
     1
 45
0.0
1001
ACAD
1000
AcDbSavedByObjectVersion
1070
     0
  0
VISUALSTYLE
  5
2B
102
{ACAD_REACTORS
330
2A
102
}
102
{ACAD_XDICTIONARY
360
2B2
102
}
330
2A
100
AcDbVisualStyle
  2
Flat
 70
     0
 71
     2
 72
     1
 73
     1
 90
        2
 40
-0.6
 41
30.0
 62
     5
 63
     7
 74
     0
 91
        4
 64
     7
 65
   257
 75
     1
175
     1
 42
1.0
 92
        8
 66
     7
 43
1.0
 76
     1
 77
     6
 78
     2
 67
     7
 79
     5
170
     0
171
     0
290
     0
174
     0
 93
       13
 44
0.0
173
     0
291
     1
 45
0.0
1001
ACAD
1000
AcDbSavedByObjectVersion
1070
     0
  0
VISUALSTYLE
  5
2C
102
{ACAD_REACTORS
330
2A
102
}
102
{ACAD_XDICTIONARY
360
2B4
102
}
330
2A
100
AcDbVisualStyle
  2
FlatWithEdges
 70
     1
 71
     2
 72
     1
 73
     1
 90
        2
 40
-0.6
 41
30.0
 62
     5
 63
     7
 74
     1
 91
        4
 64
     7
 65
   257
 75
     1
175
     1
 42
1.0
 92
        0
 66
   257
 43
1.0
 76
     1
 77
     6
 78
     2
 67
     7
 79
     5
170
     0
171
     0
290
     0
174
     0
 93
       13
 44
0.0
173
     0
291
     1
 45
0.0
1001
ACAD
1000
AcDbSavedByObjectVersion
1070
     0
  0
VISUALSTYLE
  5
2D
102
{ACAD_REACTORS
330
2A
102
}
102
{ACAD_XDICTIONARY
360
2B6
102
}
330
2A
100
AcDbVisualStyle
  2
Gouraud
 70
     2
 71
     2
 72
     2
 73
     1
 90
        2
 40
-0.6
 41
30.0
 62
     5
 63
     7
 74
     0
 91
        4
 64
     7
 65
   257
 75
     1
175
     1
 42
1.0
 92
        0
 66
     7
 43
1.0
 76
     1
 77
     6
 78
     2
 67
     7
 79
     5
170
     0
171
     0
290
     0
174
     0
 93
       13
 44
0.0
173
     0
291
     1
 45
0.0
1001
ACAD
1000
AcDbSavedByObjectVersion
1070
     0
  0
VISUALSTYLE
  5
2E
102
{ACAD_REACTORS
330
2A
102
}
102
{ACAD_XDICTIONARY
360
2B8
102
}
330
2A
100
AcDbVisualStyle
  2
GouraudWithEdges
 70
     3
 71
     2
 72
     2
 73
     1
 90
        2
 40
-0.6
 41
30.0
 62
     5
 63
     7
 74
     1
 91
        4
 64
     7
 65
   257
 75
     1
175
     1
 42
1.0
 92
        0
 66
   257
 43
1.0
 76
     1
 77
     6
 78
     2
 67
     7
 79
     5
170
     0
171
     0
290
     0
174
     0
 93
       13
 44
0.0
173
     0
291
     1
 45
0.0
1001
ACAD
1000
AcDbSavedByObjectVersion
1070
     0
  0
VISUALSTYLE
  5
38
102
{ACAD_REACTORS
330
2A
102
}
102
{ACAD_XDICTIONARY
360
2CC
102
}
330
2A
100
AcDbVisualStyle
  2
Linepattern
 70
    14
 71
     2
 72
     2
 73
     0
 90
        0
 40
-0.6
 41
-30.0
 62
     5
 63
     7
 74
     1
 91
        4
 64
     7
 65
   257
 75
     7
175
     7
 42
1.0
 92
        8
 66
     7
 43
1.0
 76
     1
 77
     6
 78
     2
 67
     7
 79
     5
170
     0
171
     0
290
     0
174
     0
 93
        1
 44
0.0
173
     0
291
     1
 45
0.0
1001
ACAD
1000
AcDbSavedByObjectVersion
1070
     0
  0
VISUALSTYLE
  5
33
102
{ACAD_REACTORS
330
2A
102
}
102
{ACAD_XDICTIONARY
360
2C2
102
}
330
2A
100
AcDbVisualStyle
  2
Realistic
 70
     8
 71
     2
 72
     2
 73
     0
 90
        0
 40
-0.6
 41
-30.0
 62
     5
 63
     7
 74
     1
 91
        0
 64
     7
 65
   257
 75
     1
175
     1
 42
1.0
 92
        8
 66
     8
 43
1.0
 76
     1
 77
     6
 78
     2
 67
     7
 79
     5
170
     0
171
     0
290
     0
174
     0
 93
       13
 44
0.0
173
     0
291
     0
 45
0.0
1001
ACAD
1000
AcDbSavedByObjectVersion
1070
     0
  0
VISUALSTYLE
  5
37
102
{ACAD_REACTORS
330
2A
102
}
102
{ACAD_XDICTIONARY
360
2CA
102
}
330
2A
100
AcDbVisualStyle
  2
Thicken
 70
    13
 71
     2
 72
     2
 73
     0
 90
        0
 40
-0.6
 41
-30.0
 62
     5
 63
     7
 74
     1
 91
        4
 64
     7
 65
   257
 75
     1
175
     1
 42
1.0
 92
       12
 66
     7
 43
1.0
 76
     1
 77
     6
 78
     2
 67
     7
 79
     5
170
     0
171
     0
290
     0
174
     0
 93
        1
 44
0.0
173
     0
291
     1
 45
0.0
1001
ACAD
1000
AcDbSavedByObjectVersion
1070
     0
  0
DICTIONARYVAR
  5
2AA
102
{ACAD_REACTORS
330
2A7
102
}
330
2A7
100
DictionaryVariables
280
     0
  1
1:1
  0
DICTIONARYVAR
  5
2AB
102
{ACAD_REACTORS
330
2A7
102
}
330
2A7
100
DictionaryVariables
280
     0
  1
2
  0
DICTIONARYVAR
  5
2AC
102
{ACAD_REACTORS
330
2A7
102
}
330
2A7
100
DictionaryVariables
280
     0
  1
1
  0
DICTIONARY
  5
2D4
330
3D
100
AcDbDictionary
280
     1
281
     1
  3
ACAD_XREC_ROUNDTRIP
360
2D5
  0
DICTIONARY
  5
2D2
330
3C
100
AcDbDictionary
280
     1
281
     1
  3
ACAD_XREC_ROUNDTRIP
360
2D3
  0
DICTIONARY
  5
2D6
330
3E
100
AcDbDictionary
280
     1
281
     1
  3
ACAD_XREC_ROUNDTRIP
360
2D7
  0
DICTIONARY
  5
2BA
330
2F
100
AcDbDictionary
280
     1
281
     1
  3
ACAD_XREC_ROUNDTRIP
360
2BB
  0
DICTIONARY
  5
2BE
330
31
100
AcDbDictionary
280
     1
281
     1
  3
ACAD_XREC_ROUNDTRIP
360
2BF
  0
DICTIONARY
  5
2BC
330
30
100
AcDbDictionary
280
     1
281
     1
  3
ACAD_XREC_ROUNDTRIP
360
2BD
  0
DICTIONARY
  5
2C0
330
32
100
AcDbDictionary
280
     1
281
     1
  3
ACAD_XREC_ROUNDTRIP
360
2C1
  0
DICTIONARY
  5
2C8
330
36
100
AcDbDictionary
280
     1
281
     1
  3
ACAD_XREC_ROUNDTRIP
360
2C9
  0
DICTIONARY
  5
2D0
330
3A
100
AcDbDictionary
280
     1
281
     1
  3
ACAD_XREC_ROUNDTRIP
360
2D1
  0
DICTIONARY
  5
2C4
330
34
100
AcDbDictionary
280
     1
281
     1
  3
ACAD_XREC_ROUNDTRIP
360
2C5
  0
DICTIONARY
  5
2C6
330
35
100
AcDbDictionary
280
     1
281
     1
  3
ACAD_XREC_ROUNDTRIP
360
2C7
  0
DICTIONARY
  5
2CE
330
39
100
AcDbDictionary
280
     1
281
     1
  3
ACAD_XREC_ROUNDTRIP
360
2CF
  0
DICTIONARY
  5
2B2
330
2B
100
AcDbDictionary
280
     1
281
     1
  3
ACAD_XREC_ROUNDTRIP
360
2B3
  0
DICTIONARY
  5
2B4
330
2C
100
AcDbDictionary
280
     1
281
     1
  3
ACAD_XREC_ROUNDTRIP
360
2B5
  0
DICTIONARY
  5
2B6
330
2D
100
AcDbDictionary
280
     1
281
     1
  3
ACAD_XREC_ROUNDTRIP
360
2B7
  0
DICTIONARY
  5
2B8
330
2E
100
AcDbDictionary
280
     1
281
     1
  3
ACAD_XREC_ROUNDTRIP
360
2B9
  0
DICTIONARY
  5
2CC
330
38
100
AcDbDictionary
280
     1
281
     1
  3
ACAD_XREC_ROUNDTRIP
360
2CD
  0
DICTIONARY
  5
2C2
330
33
100
AcDbDictionary
280
     1
281
     1
  3
ACAD_XREC_ROUNDTRIP
360
2C3
  0
DICTIONARY
  5
2CA
330
37
100
AcDbDictionary
280
     1
281
     1
  3
ACAD_XREC_ROUNDTRIP
360
2CB
  0
XRECORD
  5
2D5
102
{ACAD_REACTORS
330
2D4
102
}
330
2D4
100
AcDbXrecord
280
     1
102
MATERIAL
148
0.0
149
0.0
149
0.0
 93
        0
 94
      127
282
     0
 72
     1
 77
     1
171
     1
175
     1
179
     1
273
     0
  0
XRECORD
  5
2D3
102
{ACAD_REACTORS
330
2D2
102
}
330
2D2
100
AcDbXrecord
280
     1
102
MATERIAL
148
0.0
149
0.0
149
0.0
 93
        0
 94
      127
282
     0
 72
     1
 77
     1
171
     1
175
     1
179
     1
273
     0
  0
XRECORD
  5
2D7
102
{ACAD_REACTORS
330
2D6
102
}
330
2D6
100
AcDbXrecord
280
     1
102
MATERIAL
148
0.0
149
0.0
149
0.0
 93
        0
 94
      127
282
     0
 72
     1
 77
     1
171
     1
175
     1
179
     1
273
     0
  0
XRECORD
  5
2BB
102
{ACAD_REACTORS
330
2BA
102
}
330
2BA
100
AcDbXrecord
280
     1
102
RTVSPropertyOp0
 70
     1
102
RTVSPropertyOp1
 70
     1
102
RTVSPropertyOp2
 70
     1
102
RTVSPropertyOp3
 70
     1
102
RTVSPropertyOp4
 70
     1
102
RTVSPropertyOp5
 70
     1
102
RTVSPropertyOp6
 70
     1
102
RTVSPropertyOp7
 70
     1
102
RTVSPropertyOp8
 70
     1
102
RTVSPropertyOp9
 70
     1
102
RTVSPropertyOp10
 70
     1
102
RTVSPropertyOp11
 70
     1
102
RTVSPropertyOp12
 70
     1
102
RTVSPropertyOp13
 70
     1
102
RTVSPropertyOp14
 70
     1
102
RTVSPropertyOp15
 70
     1
102
RTVSPropertyOp16
 70
     1
102
RTVSPropertyOp17
 70
     1
102
RTVSPropertyOp18
 70
     1
102
RTVSPropertyOp19
 70
     1
102
RTVSPropertyOp20
 70
     1
102
RTVSPropertyOp21
 70
     1
102
RTVSPropertyOp22
 70
     1
102
RTVSPropertyOp23
 70
     1
102
RTVSPropertyOp24
 70
     1
102
RTVSPropertyOp25
 70
     1
102
RTVSPropertyOp26
 70
     1
102
RTVSPropertyOp27
 70
     1
  0
XRECORD
  5
2BF
102
{ACAD_REACTORS
330
2BE
102
}
330
2BE
100
AcDbXrecord
280
     1
102
RTVSPropertyOp0
 70
     1
102
RTVSPropertyOp1
 70
     1
102
RTVSPropertyOp2
 70
     1
102
RTVSPropertyOp3
 70
     1
102
RTVSPropertyOp4
 70
     1
102
RTVSPropertyOp5
 70
     1
102
RTVSPropertyOp6
 70
     1
102
RTVSPropertyOp7
 70
     1
102
RTVSPropertyOp8
 70
     1
102
RTVSPropertyOp9
 70
     1
102
RTVSPropertyOp10
 70
     1
102
RTVSPropertyOp11
 70
     1
102
RTVSPropertyOp12
 70
     1
102
RTVSPropertyOp13
 70
     1
102
RTVSPropertyOp14
 70
     1
102
RTVSPropertyOp15
 70
     1
102
RTVSPropertyOp16
 70
     1
102
RTVSPropertyOp17
 70
     1
102
RTVSPropertyOp18
 70
     1
102
RTVSPropertyOp19
 70
     1
102
RTVSPropertyOp20
 70
     1
102
RTVSPropertyOp21
 70
     1
102
RTVSPropertyOp22
 70
     1
102
RTVSPropertyOp23
 70
     1
102
RTVSPropertyOp24
 70
     1
102
RTVSPropertyOp25
 70
     1
102
RTVSPropertyOp26
 70
     1
102
RTVSPropertyOp27
 70
     1
  0
XRECORD
  5
2BD
102
{ACAD_REACTORS
330
2BC
102
}
330
2BC
100
AcDbXrecord
280
     1
102
RTVSPropertyOp0
 70
     1
102
RTVSPropertyOp1
 70
     1
102
RTVSPropertyOp2
 70
     1
102
RTVSPropertyOp3
 70
     1
102
RTVSPropertyOp4
 70
     1
102
RTVSPropertyOp5
 70
     1
102
RTVSPropertyOp6
 70
     1
102
RTVSPropertyOp7
 70
     1
102
RTVSPropertyOp8
 70
     1
102
RTVSPropertyOp9
 70
     1
102
RTVSPropertyOp10
 70
     1
102
RTVSPropertyOp11
 70
     1
102
RTVSPropertyOp12
 70
     1
102
RTVSPropertyOp13
 70
     1
102
RTVSPropertyOp14
 70
     1
102
RTVSPropertyOp15
 70
     1
102
RTVSPropertyOp16
 70
     1
102
RTVSPropertyOp17
 70
     1
102
RTVSPropertyOp18
 70
     1
102
RTVSPropertyOp19
 70
     1
102
RTVSPropertyOp20
 70
     1
102
RTVSPropertyOp21
 70
     1
102
RTVSPropertyOp22
 70
     1
102
RTVSPropertyOp23
 70
     1
102
RTVSPropertyOp24
 70
     1
102
RTVSPropertyOp25
 70
     1
102
RTVSPropertyOp26
 70
     1
102
RTVSPropertyOp27
 70
     1
  0
XRECORD
  5
2C1
102
{ACAD_REACTORS
330
2C0
102
}
330
2C0
100
AcDbXrecord
280
     1
102
RTVSPropertyOp0
 70
     1
102
RTVSPropertyOp1
 70
     1
102
RTVSPropertyOp2
 70
     1
102
RTVSPropertyOp3
 70
     1
102
RTVSPropertyOp4
 70
     1
102
RTVSPropertyOp5
 70
     1
102
RTVSPropertyOp6
 70
     1
102
RTVSPropertyOp7
 70
     1
102
RTVSPropertyOp8
 70
     1
102
RTVSPropertyOp9
 70
     1
102
RTVSPropertyOp10
 70
     1
102
RTVSPropertyOp11
 70
     1
102
RTVSPropertyOp12
 70
     1
102
RTVSPropertyOp13
 70
     1
102
RTVSPropertyOp14
 70
     1
102
RTVSPropertyOp15
 70
     1
102
RTVSPropertyOp16
 70
     1
102
RTVSPropertyOp17
 70
     1
102
RTVSPropertyOp18
 70
     1
102
RTVSPropertyOp19
 70
     1
102
RTVSPropertyOp20
 70
     1
102
RTVSPropertyOp21
 70
     1
102
RTVSPropertyOp22
 70
     1
102
RTVSPropertyOp23
 70
     1
102
RTVSPropertyOp24
 70
     1
102
RTVSPropertyOp25
 70
     1
102
RTVSPropertyOp26
 70
     1
102
RTVSPropertyOp27
 70
     1
  0
XRECORD
  5
2C9
102
{ACAD_REACTORS
330
2C8
102
}
330
2C8
100
AcDbXrecord
280
     1
102
RTVSPropertyOp0
 70
     1
102
RTVSPropertyOp1
 70
     1
102
RTVSPropertyOp2
 70
     1
102
RTVSPropertyOp3
 70
     1
102
RTVSPropertyOp4
 70
     1
102
RTVSPropertyOp5
 70
     1
102
RTVSPropertyOp6
 70
     1
102
RTVSPropertyOp7
 70
     1
102
RTVSPropertyOp8
 70
     1
102
RTVSPropertyOp9
 70
     1
102
RTVSPropertyOp10
 70
     1
102
RTVSPropertyOp11
 70
     1
102
RTVSPropertyOp12
 70
     1
102
RTVSPropertyOp13
 70
     1
102
RTVSPropertyOp14
 70
     1
102
RTVSPropertyOp15
 70
     1
102
RTVSPropertyOp16
 70
     1
102
RTVSPropertyOp17
 70
     1
102
RTVSPropertyOp18
 70
     1
102
RTVSPropertyOp19
 70
     1
102
RTVSPropertyOp20
 70
     1
102
RTVSPropertyOp21
 70
     1
102
RTVSPropertyOp22
 70
     1
102
RTVSPropertyOp23
 70
     1
102
RTVSPropertyOp24
 70
     1
102
RTVSPropertyOp25
 70
     1
102
RTVSPropertyOp26
 70
     1
102
RTVSPropertyOp27
 70
     1
  0
XRECORD
  5
2D1
102
{ACAD_REACTORS
330
2D0
102
}
330
2D0
100
AcDbXrecord
280
     1
102
RTVSPropertyOp0
 70
     1
102
RTVSPropertyOp1
 70
     1
102
RTVSPropertyOp2
 70
     1
102
RTVSPropertyOp3
 70
     1
102
RTVSPropertyOp4
 70
     1
102
RTVSPropertyOp5
 70
     1
102
RTVSPropertyOp6
 70
     1
102
RTVSPropertyOp7
 70
     1
102
RTVSPropertyOp8
 70
     1
102
RTVSPropertyOp9
 70
     1
102
RTVSPropertyOp10
 70
     1
102
RTVSPropertyOp11
 70
     1
102
RTVSPropertyOp12
 70
     1
102
RTVSPropertyOp13
 70
     1
102
RTVSPropertyOp14
 70
     1
102
RTVSPropertyOp15
 70
     1
102
RTVSPropertyOp16
 70
     1
102
RTVSPropertyOp17
 70
     1
102
RTVSPropertyOp18
 70
     1
102
RTVSPropertyOp19
 70
     1
102
RTVSPropertyOp20
 70
     1
102
RTVSPropertyOp21
 70
     1
102
RTVSPropertyOp22
 70
     1
102
RTVSPropertyOp23
 70
     1
102
RTVSPropertyOp24
 70
     1
102
RTVSPropertyOp25
 70
     1
102
RTVSPropertyOp26
 70
     1
102
RTVSPropertyOp27
 70
     1
  0
XRECORD
  5
2C5
102
{ACAD_REACTORS
330
2C4
102
}
330
2C4
100
AcDbXrecord
280
     1
102
RTVSPropertyOp0
 70
     1
102
RTVSPropertyOp1
 70
     1
102
RTVSPropertyOp2
 70
     1
102
RTVSPropertyOp3
 70
     1
102
RTVSPropertyOp4
 70
     1
102
RTVSPropertyOp5
 70
     1
102
RTVSPropertyOp6
 70
     1
102
RTVSPropertyOp7
 70
     1
102
RTVSPropertyOp8
 70
     1
102
RTVSPropertyOp9
 70
     1
102
RTVSPropertyOp10
 70
     1
102
RTVSPropertyOp11
 70
     1
102
RTVSPropertyOp12
 70
     1
102
RTVSPropertyOp13
 70
     1
102
RTVSPropertyOp14
 70
     1
102
RTVSPropertyOp15
 70
     1
102
RTVSPropertyOp16
 70
     1
102
RTVSPropertyOp17
 70
     1
102
RTVSPropertyOp18
 70
     1
102
RTVSPropertyOp19
 70
     1
102
RTVSPropertyOp20
 70
     1
102
RTVSPropertyOp21
 70
     1
102
RTVSPropertyOp22
 70
     1
102
RTVSPropertyOp23
 70
     1
102
RTVSPropertyOp24
 70
     1
102
RTVSPropertyOp25
 70
     1
102
RTVSPropertyOp26
 70
     1
102
RTVSPropertyOp27
 70
     1
  0
XRECORD
  5
2C7
102
{ACAD_REACTORS
330
2C6
102
}
330
2C6
100
AcDbXrecord
280
     1
102
RTVSPropertyOp0
 70
     1
102
RTVSPropertyOp1
 70
     1
102
RTVSPropertyOp2
 70
     1
102
RTVSPropertyOp3
 70
     1
102
RTVSPropertyOp4
 70
     1
102
RTVSPropertyOp5
 70
     1
102
RTVSPropertyOp6
 70
     1
102
RTVSPropertyOp7
 70
     1
102
RTVSPropertyOp8
 70
     1
102
RTVSPropertyOp9
 70
     1
102
RTVSPropertyOp10
 70
     1
102
RTVSPropertyOp11
 70
     1
102
RTVSPropertyOp12
 70
     1
102
RTVSPropertyOp13
 70
     1
102
RTVSPropertyOp14
 70
     1
102
RTVSPropertyOp15
 70
     1
102
RTVSPropertyOp16
 70
     1
102
RTVSPropertyOp17
 70
     1
102
RTVSPropertyOp18
 70
     1
102
RTVSPropertyOp19
 70
     1
102
RTVSPropertyOp20
 70
     1
102
RTVSPropertyOp21
 70
     1
102
RTVSPropertyOp22
 70
     1
102
RTVSPropertyOp23
 70
     1
102
RTVSPropertyOp24
 70
     1
102
RTVSPropertyOp25
 70
     1
102
RTVSPropertyOp26
 70
     1
102
RTVSPropertyOp27
 70
     1
  0
XRECORD
  5
2CF
102
{ACAD_REACTORS
330
2CE
102
}
330
2CE
100
AcDbXrecord
280
     1
102
RTVSPropertyOp0
 70
     1
102
RTVSPropertyOp1
 70
     1
102
RTVSPropertyOp2
 70
     1
102
RTVSPropertyOp3
 70
     1
102
RTVSPropertyOp4
 70
     1
102
RTVSPropertyOp5
 70
     1
102
RTVSPropertyOp6
 70
     1
102
RTVSPropertyOp7
 70
     1
102
RTVSPropertyOp8
 70
     1
102
RTVSPropertyOp9
 70
     1
102
RTVSPropertyOp10
 70
     1
102
RTVSPropertyOp11
 70
     1
102
RTVSPropertyOp12
 70
     1
102
RTVSPropertyOp13
 70
     1
102
RTVSPropertyOp14
 70
     1
102
RTVSPropertyOp15
 70
     1
102
RTVSPropertyOp16
 70
     1
102
RTVSPropertyOp17
 70
     1
102
RTVSPropertyOp18
 70
     1
102
RTVSPropertyOp19
 70
     1
102
RTVSPropertyOp20
 70
     1
102
RTVSPropertyOp21
 70
     1
102
RTVSPropertyOp22
 70
     1
102
RTVSPropertyOp23
 70
     1
102
RTVSPropertyOp24
 70
     1
102
RTVSPropertyOp25
 70
     1
102
RTVSPropertyOp26
 70
     1
102
RTVSPropertyOp27
 70
     1
  0
XRECORD
  5
2B3
102
{ACAD_REACTORS
330
2B2
102
}
330
2B2
100
AcDbXrecord
280
     1
102
RTVSPropertyOp0
 70
     1
102
RTVSPropertyOp1
 70
     1
102
RTVSPropertyOp2
 70
     1
102
RTVSPropertyOp3
 70
     1
102
RTVSPropertyOp4
 70
     1
102
RTVSPropertyOp5
 70
     1
102
RTVSPropertyOp6
 70
     1
102
RTVSPropertyOp7
 70
     1
102
RTVSPropertyOp8
 70
     1
102
RTVSPropertyOp9
 70
     1
102
RTVSPropertyOp10
 70
     1
102
RTVSPropertyOp11
 70
     1
102
RTVSPropertyOp12
 70
     1
102
RTVSPropertyOp13
 70
     1
102
RTVSPropertyOp14
 70
     1
102
RTVSPropertyOp15
 70
     1
102
RTVSPropertyOp16
 70
     1
102
RTVSPropertyOp17
 70
     1
102
RTVSPropertyOp18
 70
     1
102
RTVSPropertyOp19
 70
     1
102
RTVSPropertyOp20
 70
     1
102
RTVSPropertyOp21
 70
     1
102
RTVSPropertyOp22
 70
     1
102
RTVSPropertyOp23
 70
     1
102
RTVSPropertyOp24
 70
     1
102
RTVSPropertyOp25
 70
     1
102
RTVSPropertyOp26
 70
     1
102
RTVSPropertyOp27
 70
     1
  0
XRECORD
  5
2B5
102
{ACAD_REACTORS
330
2B4
102
}
330
2B4
100
AcDbXrecord
280
     1
102
RTVSPropertyOp0
 70
     1
102
RTVSPropertyOp1
 70
     1
102
RTVSPropertyOp2
 70
     1
102
RTVSPropertyOp3
 70
     1
102
RTVSPropertyOp4
 70
     1
102
RTVSPropertyOp5
 70
     1
102
RTVSPropertyOp6
 70
     1
102
RTVSPropertyOp7
 70
     1
102
RTVSPropertyOp8
 70
     1
102
RTVSPropertyOp9
 70
     1
102
RTVSPropertyOp10
 70
     1
102
RTVSPropertyOp11
 70
     1
102
RTVSPropertyOp12
 70
     1
102
RTVSPropertyOp13
 70
     1
102
RTVSPropertyOp14
 70
     1
102
RTVSPropertyOp15
 70
     1
102
RTVSPropertyOp16
 70
     1
102
RTVSPropertyOp17
 70
     1
102
RTVSPropertyOp18
 70
     1
102
RTVSPropertyOp19
 70
     1
102
RTVSPropertyOp20
 70
     1
102
RTVSPropertyOp21
 70
     1
102
RTVSPropertyOp22
 70
     1
102
RTVSPropertyOp23
 70
     1
102
RTVSPropertyOp24
 70
     1
102
RTVSPropertyOp25
 70
     1
102
RTVSPropertyOp26
 70
     1
102
RTVSPropertyOp27
 70
     1
  0
XRECORD
  5
2B7
102
{ACAD_REACTORS
330
2B6
102
}
330
2B6
100
AcDbXrecord
280
     1
102
RTVSPropertyOp0
 70
     1
102
RTVSPropertyOp1
 70
     1
102
RTVSPropertyOp2
 70
     1
102
RTVSPropertyOp3
 70
     1
102
RTVSPropertyOp4
 70
     1
102
RTVSPropertyOp5
 70
     1
102
RTVSPropertyOp6
 70
     1
102
RTVSPropertyOp7
 70
     1
102
RTVSPropertyOp8
 70
     1
102
RTVSPropertyOp9
 70
     1
102
RTVSPropertyOp10
 70
     1
102
RTVSPropertyOp11
 70
     1
102
RTVSPropertyOp12
 70
     1
102
RTVSPropertyOp13
 70
     1
102
RTVSPropertyOp14
 70
     1
102
RTVSPropertyOp15
 70
     1
102
RTVSPropertyOp16
 70
     1
102
RTVSPropertyOp17
 70
     1
102
RTVSPropertyOp18
 70
     1
102
RTVSPropertyOp19
 70
     1
102
RTVSPropertyOp20
 70
     1
102
RTVSPropertyOp21
 70
     1
102
RTVSPropertyOp22
 70
     1
102
RTVSPropertyOp23
 70
     1
102
RTVSPropertyOp24
 70
     1
102
RTVSPropertyOp25
 70
     1
102
RTVSPropertyOp26
 70
     1
102
RTVSPropertyOp27
 70
     1
  0
XRECORD
  5
2B9
102
{ACAD_REACTORS
330
2B8
102
}
330
2B8
100
AcDbXrecord
280
     1
102
RTVSPropertyOp0
 70
     1
102
RTVSPropertyOp1
 70
     1
102
RTVSPropertyOp2
 70
     1
102
RTVSPropertyOp3
 70
     1
102
RTVSPropertyOp4
 70
     1
102
RTVSPropertyOp5
 70
     1
102
RTVSPropertyOp6
 70
     1
102
RTVSPropertyOp7
 70
     1
102
RTVSPropertyOp8
 70
     1
102
RTVSPropertyOp9
 70
     1
102
RTVSPropertyOp10
 70
     1
102
RTVSPropertyOp11
 70
     1
102
RTVSPropertyOp12
 70
     1
102
RTVSPropertyOp13
 70
     1
102
RTVSPropertyOp14
 70
     1
102
RTVSPropertyOp15
 70
     1
102
RTVSPropertyOp16
 70
     1
102
RTVSPropertyOp17
 70
     1
102
RTVSPropertyOp18
 70
     1
102
RTVSPropertyOp19
 70
     1
102
RTVSPropertyOp20
 70
     1
102
RTVSPropertyOp21
 70
     1
102
RTVSPropertyOp22
 70
     1
102
RTVSPropertyOp23
 70
     1
102
RTVSPropertyOp24
 70
     1
102
RTVSPropertyOp25
 70
     1
102
RTVSPropertyOp26
 70
     1
102
RTVSPropertyOp27
 70
     1
  0
XRECORD
  5
2CD
102
{ACAD_REACTORS
330
2CC
102
}
330
2CC
100
AcDbXrecord
280
     1
102
RTVSPropertyOp0
 70
     1
102
RTVSPropertyOp1
 70
     1
102
RTVSPropertyOp2
 70
     1
102
RTVSPropertyOp3
 70
     1
102
RTVSPropertyOp4
 70
     1
102
RTVSPropertyOp5
 70
     1
102
RTVSPropertyOp6
 70
     1
102
RTVSPropertyOp7
 70
     1
102
RTVSPropertyOp8
 70
     1
102
RTVSPropertyOp9
 70
     1
102
RTVSPropertyOp10
 70
     1
102
RTVSPropertyOp11
 70
     1
102
RTVSPropertyOp12
 70
     1
102
RTVSPropertyOp13
 70
     1
102
RTVSPropertyOp14
 70
     1
102
RTVSPropertyOp15
 70
     1
102
RTVSPropertyOp16
 70
     1
102
RTVSPropertyOp17
 70
     1
102
RTVSPropertyOp18
 70
     1
102
RTVSPropertyOp19
 70
     1
102
RTVSPropertyOp20
 70
     1
102
RTVSPropertyOp21
 70
     1
102
RTVSPropertyOp22
 70
     1
102
RTVSPropertyOp23
 70
     1
102
RTVSPropertyOp24
 70
     1
102
RTVSPropertyOp25
 70
     1
102
RTVSPropertyOp26
 70
     1
102
RTVSPropertyOp27
 70
     1
  0
XRECORD
  5
2C3
102
{ACAD_REACTORS
330
2C2
102
}
330
2C2
100
AcDbXrecord
280
     1
102
RTVSPropertyOp0
 70
     1
102
RTVSPropertyOp1
 70
     1
102
RTVSPropertyOp2
 70
     1
102
RTVSPropertyOp3
 70
     1
102
RTVSPropertyOp4
 70
     1
102
RTVSPropertyOp5
 70
     1
102
RTVSPropertyOp6
 70
     1
102
RTVSPropertyOp7
 70
     1
102
RTVSPropertyOp8
 70
     1
102
RTVSPropertyOp9
 70
     1
102
RTVSPropertyOp10
 70
     1
102
RTVSPropertyOp11
 70
     1
102
RTVSPropertyOp12
 70
     1
102
RTVSPropertyOp13
 70
     1
102
RTVSPropertyOp14
 70
     1
102
RTVSPropertyOp15
 70
     1
102
RTVSPropertyOp16
 70
     1
102
RTVSPropertyOp17
 70
     1
102
RTVSPropertyOp18
 70
     1
102
RTVSPropertyOp19
 70
     1
102
RTVSPropertyOp20
 70
     1
102
RTVSPropertyOp21
 70
     1
102
RTVSPropertyOp22
 70
     1
102
RTVSPropertyOp23
 70
     1
102
RTVSPropertyOp24
 70
     1
102
RTVSPropertyOp25
 70
     1
102
RTVSPropertyOp26
 70
     1
102
RTVSPropertyOp27
 70
     1
  0
XRECORD
  5
2CB
102
{ACAD_REACTORS
330
2CA
102
}
330
2CA
100
AcDbXrecord
280
     1
102
RTVSPropertyOp0
 70
     1
102
RTVSPropertyOp1
 70
     1
102
RTVSPropertyOp2
 70
     1
102
RTVSPropertyOp3
 70
     1
102
RTVSPropertyOp4
 70
     1
102
RTVSPropertyOp5
 70
     1
102
RTVSPropertyOp6
 70
     1
102
RTVSPropertyOp7
 70
     1
102
RTVSPropertyOp8
 70
     1
102
RTVSPropertyOp9
 70
     1
102
RTVSPropertyOp10
 70
     1
102
RTVSPropertyOp11
 70
     1
102
RTVSPropertyOp12
 70
     1
102
RTVSPropertyOp13
 70
     1
102
RTVSPropertyOp14
 70
     1
102
RTVSPropertyOp15
 70
     1
102
RTVSPropertyOp16
 70
     1
102
RTVSPropertyOp17
 70
     1
102
RTVSPropertyOp18
 70
     1
102
RTVSPropertyOp19
 70
     1
102
RTVSPropertyOp20
 70
     1
102
RTVSPropertyOp21
 70
     1
102
RTVSPropertyOp22
 70
     1
102
RTVSPropertyOp23
 70
     1
102
RTVSPropertyOp24
 70
     1
102
RTVSPropertyOp25
 70
     1
102
RTVSPropertyOp26
 70
     1
102
RTVSPropertyOp27
 70
     1
  0
ENDSEC
  0
EOF
